<?xml version="1.0" encoding="UTF-8"?>
<svg width="372px" height="372px" viewBox="0 0 372 372" version="1.1" xmlns="http://www.w3.org/2000/svg" xmlns:xlink="http://www.w3.org/1999/xlink">
    <!-- Generator: Sketch 55.2 (78181) - https://sketchapp.com -->
    <title>Group 153beach_obj</title>
    <desc>Created with Sketch.</desc>
    <defs>
        <path d="M0.337,185.745 C0.337,288.237 83.423,371.323 185.915,371.323 L185.915,371.323 C288.407,371.323 371.494,288.237 371.494,185.745 L371.494,185.745 C371.494,83.253 288.407,0.167 185.915,0.167 L185.915,0.167 C83.423,0.167 0.337,83.253 0.337,185.745 L0.337,185.745 Z" id="path-1"></path>
    </defs>
    <g id="Page-1" stroke="none" stroke-width="1" fill="none" fill-rule="evenodd">
        <g id="Group-153">
            <mask id="mask-2" fill="white">
                <use xlink:href="#path-1"></use>
            </mask>
            <g id="Clip-2"></g>
            <polygon id="Fill-1" fill="#99D9D9" mask="url(#mask-2)" points="-425 294.393 1596.173 294.393 1596.173 -191 -425 -191"></polygon>
            <path d="M1879.3064,277.4549 C1879.3064,279.8529 1921.7824,174.3339 1226.2424,174.3339 L-424.9996,174.3339 L-424.9996,689.9469 C-424.9996,689.9469 190.8974,464.5109 1135.9814,411.7519 C1481.0974,399.7609 1879.3064,358.9929 1879.3064,277.4549" id="Fill-3" fill="#08AAEB" mask="url(#mask-2)"></path>
            <path d="M160.1945,125.5174 C160.1945,137.4874 170.8175,147.1924 183.9205,147.1924 C197.0245,147.1924 207.6455,137.4874 207.6455,125.5174 C207.6455,113.5484 197.0245,103.8434 183.9205,103.8434 C170.8175,103.8434 160.1945,113.5484 160.1945,125.5174" id="Fill-4" fill="#C90E32" mask="url(#mask-2)"></path>
            <path d="M183.92,103.8436 C178.992,103.8436 174.416,105.2166 170.623,107.5656 C167.926,117.6836 173.227,120.7546 173.227,120.7546 C179.487,111.1216 185.39,106.6086 190.053,104.5796 C188.097,104.1026 186.042,103.8436 183.92,103.8436" id="Fill-5" fill="#F6A821" mask="url(#mask-2)"></path>
            <path d="M173.2252,120.0521 C175.3012,134.6421 185.3302,141.8151 193.6212,145.2951 C201.8872,141.9071 207.6452,134.3301 207.6452,125.5171 C207.6452,124.4491 207.5572,123.4001 207.3942,122.3731 C193.8672,116.2851 173.2252,120.0521 173.2252,120.0521" id="Fill-6" fill="#F6A821" mask="url(#mask-2)"></path>
            <path d="M161.9969,117.2235 C160.8369,119.7805 160.1949,122.5785 160.1949,125.5175 C160.1949,130.7815 162.2489,135.6055 165.6639,139.3605 C165.0579,125.8805 173.2249,120.0305 173.2249,120.0305 C169.2069,117.8105 165.4169,117.0825 161.9969,117.2235" id="Fill-7" fill="#F6A821" mask="url(#mask-2)"></path>
            <path d="M198.329,108.3031 C198.501,109.3551 198.592,110.4311 198.592,111.5261 C198.592,123.4961 187.97,133.1991 174.866,133.1991 C169.445,133.1991 164.452,131.5351 160.457,128.7401 C162.161,139.1811 172.017,147.1921 183.92,147.1921 C197.024,147.1921 207.646,137.4881 207.646,125.5171 C207.646,118.5001 203.992,112.2641 198.329,108.3031" id="Fill-8" fill="#990729" mask="url(#mask-2)"></path>
            <path d="M170.8422,119.1102 C169.8942,121.5662 170.1912,123.9692 171.5082,124.4792 C172.8242,124.9862 174.6602,123.4072 175.6092,120.9502 C176.5572,118.4932 176.2602,116.0902 174.9432,115.5812 C173.6272,115.0732 171.7922,116.6532 170.8422,119.1102" id="Fill-9" fill="#C90E32" mask="url(#mask-2)"></path>
            <path d="M171.7069,119.4432 C171.1019,121.0092 171.2909,122.5422 172.1309,122.8652 C172.9689,123.1892 174.1399,122.1822 174.7449,120.6172 C175.3499,119.0492 175.1599,117.5192 174.3209,117.1952 C173.4819,116.8702 172.3119,117.8782 171.7069,119.4432" id="Fill-10" fill="#F6A821" mask="url(#mask-2)"></path>
            <path d="M207.5524,123.6913 C207.5164,123.3013 207.4714,122.9143 207.4124,122.5313 C207.4044,122.4773 207.3954,122.4233 207.3864,122.3693 C204.1734,120.9243 200.5594,120.0403 196.9164,119.5233 C193.8094,126.6673 186.6694,131.9393 178.0614,132.9993 C182.2534,139.2793 188.2914,143.0573 193.6214,145.2953 C195.6864,144.4473 197.5964,143.3403 199.2984,142.0163 C199.2994,142.0143 199.3014,142.0143 199.3014,142.0133 C200.1474,141.3553 200.9404,140.6443 201.6774,139.8843 C201.6894,139.8723 201.7024,139.8593 201.7154,139.8463 C202.0644,139.4843 202.4004,139.1123 202.7234,138.7283 C202.7404,138.7093 202.7564,138.6903 202.7744,138.6703 C203.1024,138.2783 203.4144,137.8773 203.7134,137.4653 C203.7334,137.4373 203.7534,137.4083 203.7724,137.3813 C204.0434,137.0053 204.2984,136.6203 204.5434,136.2283 C204.5774,136.1733 204.6134,136.1193 204.6464,136.0643 C204.9014,135.6483 205.1434,135.2223 205.3684,134.7883 C205.3904,134.7463 205.4104,134.7023 205.4314,134.6613 C205.6294,134.2733 205.8134,133.8783 205.9864,133.4793 C206.0234,133.3933 206.0624,133.3063 206.0984,133.2193 C206.2824,132.7803 206.4524,132.3353 206.6044,131.8813 C206.6204,131.8353 206.6334,131.7873 206.6484,131.7403 C206.7824,131.3343 206.8994,130.9223 207.0074,130.5073 C207.0344,130.3983 207.0634,130.2873 207.0904,130.1763 C207.1994,129.7163 207.3004,129.2513 207.3774,128.7803 C207.3834,128.7443 207.3864,128.7073 207.3934,128.6703 C207.4624,128.2333 207.5144,127.7913 207.5554,127.3473 C207.5674,127.2233 207.5774,127.1003 207.5864,126.9763 C207.6214,126.4933 207.6454,126.0083 207.6454,125.5173 C207.6454,125.0153 207.6224,124.5173 207.5844,124.0233 C207.5764,123.9113 207.5624,123.8023 207.5524,123.6913" id="Fill-11" fill="#D38A20" mask="url(#mask-2)"></path>
            <path d="M166.3185,131.7289 C164.2055,130.9809 162.2315,129.9799 160.4605,128.7419 C160.4695,128.7989 160.4795,128.8559 160.4895,128.9129 C160.5305,129.1469 160.5735,129.3799 160.6215,129.6119 C160.6415,129.7039 160.6625,129.7929 160.6825,129.8829 C160.7325,130.1079 160.7855,130.3329 160.8435,130.5549 C160.8685,130.6499 160.8935,130.7449 160.9205,130.8399 C160.9805,131.0549 161.0425,131.2689 161.1085,131.4809 C161.1395,131.5809 161.1725,131.6779 161.2045,131.7749 C161.2715,131.9819 161.3435,132.1869 161.4175,132.3919 C161.4545,132.4929 161.4935,132.5939 161.5325,132.6939 C161.6075,132.8919 161.6855,133.0869 161.7675,133.2809 C161.8115,133.3849 161.8565,133.4899 161.9015,133.5939 C161.9845,133.7799 162.0685,133.9659 162.1565,134.1499 C162.2085,134.2579 162.2605,134.3669 162.3145,134.4749 C162.4015,134.6509 162.4935,134.8249 162.5855,134.9989 C162.6445,135.1109 162.7045,135.2219 162.7655,135.3319 C162.8595,135.4989 162.9545,135.6649 163.0535,135.8299 C163.1195,135.9429 163.1865,136.0539 163.2555,136.1659 C163.3535,136.3239 163.4555,136.4809 163.5585,136.6369 C163.6315,136.7509 163.7065,136.8639 163.7835,136.9759 C163.8855,137.1269 163.9915,137.2749 164.0985,137.4229 C164.1815,137.5369 164.2625,137.6509 164.3465,137.7629 C164.4535,137.9059 164.5625,138.0449 164.6725,138.1849 C164.7635,138.2989 164.8535,138.4129 164.9455,138.5259 C165.0565,138.6599 165.1705,138.7909 165.2835,138.9229 C165.3805,139.0359 165.4775,139.1499 165.5765,139.2599 C165.6055,139.2909 165.6355,139.3219 165.6645,139.3539 C165.5355,136.4669 165.8105,133.9329 166.3185,131.7289" id="Fill-12" fill="#D38A20" mask="url(#mask-2)"></path>
            <path d="M194.0221,105.9051 C190.9561,104.5851 187.5331,103.8431 183.9201,103.8431 C174.1261,103.8431 165.7201,109.2661 162.0971,117.0041 C166.5051,112.5251 175.8721,106.2731 194.0221,105.9051" id="Fill-13" fill="#990729" mask="url(#mask-2)"></path>
            <path d="M186.6415,106.4173 C187.8365,105.6543 188.9785,105.0463 190.0535,104.5793 C188.0965,104.1023 186.0415,103.8433 183.9205,103.8433 C178.9915,103.8433 174.4165,105.2163 170.6235,107.5653 C170.2565,108.9433 170.0415,110.1873 169.9365,111.3133 C174.0305,109.1733 179.4715,107.2953 186.6415,106.4173" id="Fill-14" fill="#D38A20" mask="url(#mask-2)"></path>
            <path d="M81.661,72.8158 C81.661,89.8228 95.448,103.6098 112.455,103.6098 C129.463,103.6098 143.25,89.8228 143.25,72.8158 C143.25,55.8088 129.463,42.0218 112.455,42.0218 C95.448,42.0218 81.661,55.8088 81.661,72.8158" id="Fill-15" fill="#FFC500" mask="url(#mask-2)"></path>
            <path d="M87.7189,72.8158 C87.7189,86.5248 98.8329,97.6388 112.5419,97.6388 C126.2509,97.6388 137.3649,86.5248 137.3649,72.8158 C137.3649,59.1068 126.2509,47.9928 112.5419,47.9928 C98.8329,47.9928 87.7189,59.1068 87.7189,72.8158" id="Fill-16" fill="#FFC500" mask="url(#mask-2)"></path>
            <path d="M143.6254,114.4198 C143.3844,103.1548 134.1924,94.0978 122.8654,94.0978 C120.3214,94.0978 117.8974,94.5808 115.6464,95.4148 C112.8724,91.0928 108.0414,88.2288 102.5334,88.2288 C101.1924,88.2288 99.9054,88.4168 98.6674,88.7318 C94.5514,81.9488 87.1104,77.3998 78.5884,77.3998 C67.4194,77.3998 58.0864,85.1978 55.7024,95.6348 C53.2874,94.6498 50.6444,94.0978 47.8684,94.0978 C36.5414,94.0978 27.3494,103.1548 27.1084,114.4198 L143.6254,114.4198 Z" id="Fill-17" fill="#FFFFFF" mask="url(#mask-2)"></path>
            <path d="M400.4723,124.8597 C400.2543,114.8177 392.0593,106.7357 381.9573,106.7357 C379.6883,106.7357 377.5233,107.1727 375.5203,107.9127 C373.0453,104.0577 368.7383,101.5067 363.8243,101.5067 C362.6313,101.5067 361.4843,101.6717 360.3813,101.9597 C356.7073,95.9087 350.0723,91.8487 342.4773,91.8487 C332.5153,91.8487 324.1963,98.8057 322.0703,108.1087 C319.9133,107.2347 317.5553,106.7357 315.0793,106.7357 C304.9843,106.7357 296.7923,114.8177 296.5713,124.8597 L400.4723,124.8597 Z" id="Fill-18" fill="#FFFFFF" mask="url(#mask-2)"></path>
            <path d="M265.8448,28.4823 C265.7258,22.9883 261.2438,18.5673 255.7158,18.5673 C254.4748,18.5673 253.2908,18.8033 252.1958,19.2113 C250.8418,17.1023 248.4848,15.7073 245.7998,15.7073 C245.1458,15.7073 244.5138,15.7973 243.9138,15.9523 C241.9048,12.6433 238.2758,10.4253 234.1158,10.4253 C228.6658,10.4253 224.1178,14.2253 222.9538,19.3203 C221.7778,18.8363 220.4888,18.5673 219.1288,18.5673 C213.6088,18.5673 209.1248,22.9883 209.0078,28.4823 L265.8448,28.4823 Z" id="Fill-19" fill="#FFFFFF" mask="url(#mask-2)"></path>
            <path d="M61.1634,280.4032 C59.0194,284.3432 63.0924,287.1902 66.7904,287.7682 C70.6534,288.3772 75.1624,287.2362 78.7634,289.1032 C80.5494,290.0272 81.6014,291.9252 82.7554,293.4912 C84.6074,296.0052 87.0994,297.5772 90.1474,298.2552 C94.4874,299.2212 99.3434,299.1262 103.7764,299.137287 C109.1824,299.1522 113.9514,297.2242 119.0294,295.7492 C121.9724,294.8962 125.1444,295.3032 128.1644,295.3532 C131.2904,295.4012 134.4564,295.2722 137.4544,294.2962 C139.8284,293.5232 142.1014,292.5252 143.9934,290.8532 C148.9424,286.4762 141.9064,281.8122 143.8484,277.0852 C144.9354,274.4342 149.6234,274.0452 149.4384,270.7452 C149.2924,268.2102 145.9694,266.8042 143.8924,265.8282 C140.1424,264.0702 136.1724,262.7732 132.1674,261.6242 C130.2944,261.0862 128.3974,260.7012 126.4764,260.3092 C124.4874,259.9042 122.5084,259.4462 120.4914,259.1422 C118.0174,258.7692 115.4814,258.5602 112.9834,258.3492 C110.5504,258.1412 108.1214,258.0332 105.6794,258.0152 C100.6254,257.9782 95.6114,258.1432 90.6894,259.1052 C88.2244,259.5862 85.7554,260.0652 83.3294,260.6852 C79.1794,261.7482 70.5744,264.1302 72.1394,269.6002 C72.4284,270.6142 73.1204,271.4582 73.0214,272.5562 C72.8334,274.6612 69.8254,275.5032 68.0734,276.1352 C65.6404,277.0162 62.7744,277.8792 61.3544,280.0782 C61.2874,280.1842 61.2224,280.2932 61.1634,280.4032" id="Fill-20" fill="#08C7EB" mask="url(#mask-2)"></path>
            <path d="M73.7918,266.6883 C73.5358,268.6673 75.0628,270.8153 73.9148,272.6813 C73.4268,273.4763 72.6578,274.1103 71.7898,274.5463 C71.7508,274.5513 71.7128,274.5573 71.6758,274.5633 C72.4048,274.0553 72.9458,273.4073 73.0208,272.5563 C73.1208,271.4583 72.4278,270.6143 72.1388,269.6003 C71.3478,266.8323 73.1598,264.8573 75.6778,263.4413 C74.7338,264.3023 73.9578,265.3973 73.7918,266.6883" id="Fill-21" fill="#CBE9F0" mask="url(#mask-2)"></path>
            <path d="M60.6417,281.8153 C60.7777,282.8203 61.2727,283.6763 62.0417,284.3433 C63.1597,285.3173 64.5987,285.8763 66.0197,286.2473 C67.4797,286.6273 68.9757,286.8363 70.4787,286.9453 C72.3577,287.0833 74.2667,287.0803 76.1287,287.4113 C77.1147,287.5883 78.0967,287.8503 78.9957,288.2983 C79.6877,288.6403 80.4257,289.0643 80.9517,289.6353 C82.3987,291.2113 83.7737,292.8483 85.3747,294.2733 C85.6237,294.4933 86.0457,294.8783 86.5387,295.2483 C86.7367,295.4073 86.9427,295.5593 87.1567,295.7023 C88.3277,296.4773 89.6397,296.9143 90.9937,297.2523 C92.8397,297.7113 94.7147,298.0243 96.5987,298.2643 C98.4207,298.4983 100.2477,298.7233 102.0887,298.6263 C104.2267,298.5073 106.3267,298.0593 108.3667,297.4093 C109.4247,297.0693 110.4697,296.6903 111.5067,296.2843 C112.5987,295.8623 113.6747,295.3963 114.8167,295.1163 C117.1017,294.5603 119.4587,294.5523 121.7917,294.7173 C124.0907,294.8823 126.3687,295.1893 128.6787,295.0853 C132.7487,294.9033 137.0147,293.9213 140.4757,291.6973 C141.8117,290.8363 143.1217,289.7303 143.7957,288.2563 C144.4917,286.7353 144.3847,285.0903 143.7317,283.5703 C143.0037,281.8733 141.6457,280.1473 141.7557,278.2083 C141.8147,277.2043 142.2687,276.2263 142.9877,275.5193 C143.5937,274.9303 144.3327,274.5203 145.0817,274.1393 C145.7837,273.7823 146.5047,273.4393 147.1297,272.9563 C147.7957,272.4433 148.5387,271.7623 148.7097,270.8983 C148.9397,269.7543 148.2747,268.7303 147.5447,267.8163 C148.5777,268.5873 149.3667,269.5383 149.4377,270.7453 C149.6227,274.0443 144.9357,274.4343 143.8487,277.0853 C141.9067,281.8123 148.9427,286.4763 143.9927,290.8533 C142.1007,292.5253 139.8277,293.5233 137.4547,294.2963 C134.4557,295.2723 131.2897,295.4003 128.1647,295.3533 C125.1447,295.3033 121.9727,294.8963 119.0297,295.7493 C113.9517,297.2243 109.1827,299.1523 103.7757,299.137387 C99.3437,299.1263 94.4877,299.2213 90.1467,298.2543 C87.0997,297.5773 84.6077,296.0053 82.7557,293.4913 C81.6017,291.9253 80.5497,290.0273 78.7627,289.1033 C75.1627,287.2353 70.6537,288.3773 66.7907,287.7683 C63.5517,287.2633 60.0237,285.0123 60.6417,281.8153" id="Fill-22" fill="#CBE9F0" mask="url(#mask-2)"></path>
            <path d="M76.453,278.368 C76.809,278.368 77.155,278.376 77.5,278.391 C77.258,277.601 77.13,276.79 77.13,275.967 C77.13,267.265 91.042,260.212 108.205,260.212 C125.365,260.212 139.278,267.265 139.278,275.967 C139.278,284.664 125.365,291.719 108.205,291.719 C97.444,291.719 87.961,288.944 82.386,284.733 C80.781,285.258 78.715,285.579 76.453,285.579 C71.365,285.579 67.242,283.966 67.242,281.972 C67.242,279.982 71.365,278.368 76.453,278.368" id="Fill-23" fill="#08C7EB" mask="url(#mask-2)"></path>
            <path d="M134.9237,290.0814 C134.9237,290.4914 135.7497,290.8244 136.7647,290.8244 C137.7807,290.8244 138.6037,290.4914 138.6037,290.0814 C138.6037,289.6694 137.7807,289.3374 136.7647,289.3374 C135.7497,289.3374 134.9237,289.6694 134.9237,290.0814" id="Fill-24" fill="#08C7EB" mask="url(#mask-2)"></path>
            <path d="M131.1937,291.9549 C131.1937,292.1519 131.5927,292.3139 132.0837,292.3139 C132.5767,292.3139 132.9737,292.1519 132.9737,291.9549 C132.9737,291.7529 132.5767,291.5929 132.0837,291.5929 C131.5927,291.5929 131.1937,291.7529 131.1937,291.9549" id="Fill-25" fill="#08C7EB" mask="url(#mask-2)"></path>
            <path d="M96.9532,295.3231 C96.9532,295.7331 97.7762,296.0691 98.7922,296.0691 C99.8102,296.0691 100.6322,295.7331 100.6322,295.3231 C100.6322,294.9131 99.8102,294.5791 98.7922,294.5791 C97.7762,294.5791 96.9532,294.9131 96.9532,295.3231" id="Fill-26" fill="#08C7EB" mask="url(#mask-2)"></path>
            <path d="M91.3278,295.3231 C91.3278,295.5231 91.7258,295.6861 92.2168,295.6861 C92.7108,295.6861 93.1088,295.5231 93.1088,295.3231 C93.1088,295.1261 92.7108,294.9641 92.2168,294.9641 C91.7258,294.9641 91.3278,295.1261 91.3278,295.3231" id="Fill-27" fill="#08C7EB" mask="url(#mask-2)"></path>
            <path d="M65.588,283.0907 C65.588,283.2897 65.987,283.4497 66.477,283.4497 C66.969,283.4497 67.367,283.2897 67.367,283.0907 C67.367,282.8917 66.969,282.7287 66.477,282.7287 C65.987,282.7287 65.588,282.8917 65.588,283.0907" id="Fill-28" fill="#08C7EB" mask="url(#mask-2)"></path>
            <path d="M75.3844,266.1615 C75.3844,266.3605 75.7824,266.5215 76.2734,266.5215 C76.7654,266.5215 77.1664,266.3605 77.1664,266.1615 C77.1664,265.9635 76.7654,265.8025 76.2734,265.8025 C75.7824,265.8025 75.3844,265.9635 75.3844,266.1615" id="Fill-29" fill="#08C7EB" mask="url(#mask-2)"></path>
            <path d="M143.83,269.3377 C143.83,269.5377 144.229,269.6977 144.718,269.6977 C145.213,269.6977 145.612,269.5377 145.612,269.3377 C145.612,269.1407 145.213,268.9787 144.718,268.9787 C144.229,268.9787 143.83,269.1407 143.83,269.3377" id="Fill-30" fill="#08C7EB" mask="url(#mask-2)"></path>
            <path d="M131.7467,287.826 C134.8757,285.994 137.9327,283.707 139.5437,280.368 C139.5747,280.301 139.7067,280.444 139.6837,280.501 C138.2807,284.015 135.0777,286.24 131.8527,287.956 C131.7997,287.983 131.7017,287.85 131.7467,287.826" id="Fill-31" fill="#CBE9F0" mask="url(#mask-2)"></path>
            <path d="M128.6942,290.1932 C129.7192,289.7942 130.7602,289.4322 131.7542,288.9542 C132.7502,288.4692 133.6742,287.8432 134.5902,287.2262 C136.3262,286.0552 138.2432,284.7012 139.3292,282.8592 C139.3732,282.7882 139.5202,282.9512 139.4862,283.0142 C138.5122,284.9502 136.6942,286.4592 134.9302,287.6492 C133.0582,288.9182 131.1242,290.0522 128.8772,290.4912 C128.7722,290.5122 128.5652,290.2412 128.6942,290.1932" id="Fill-32" fill="#CBE9F0" mask="url(#mask-2)"></path>
            <path d="M86.4981,288.5931 C87.2361,289.1231 88.2051,289.3961 89.0601,289.6751 C89.9331,289.9621 90.8101,290.2311 91.6961,290.4871 C93.5231,291.0131 95.3751,291.4951 97.2261,291.9191 C97.2981,291.9361 97.4331,292.1521 97.3211,292.1341 C95.2981,291.8101 93.2931,291.3201 91.3331,290.7261 C89.7511,290.2511 87.8201,289.7541 86.4991,288.7181 C86.4471,288.6801 86.3951,288.5191 86.4981,288.5931" id="Fill-33" fill="#CBE9F0" mask="url(#mask-2)"></path>
            <path d="M90.91,291.8011 C92.578,292.3731 94.278,292.7941 95.99,293.2171 C96.078,293.2381 96.252,293.5181 96.108,293.4931 C94.343,293.1881 92.619,292.6001 90.956,291.9411 C90.918,291.9261 90.842,291.7761 90.91,291.8011" id="Fill-34" fill="#CBE9F0" mask="url(#mask-2)"></path>
            <path d="M114.8954,270.7513 C104.1964,270.7513 95.5224,269.3983 95.5224,267.7293 C95.5224,266.0603 104.1964,264.7073 114.8954,264.7073 C125.5944,264.7073 134.2684,266.0603 134.2684,267.7293 C134.2684,269.3983 125.5944,270.7513 114.8954,270.7513 M112.7714,260.9303 C88.1004,260.9303 80.8984,266.6563 80.8984,273.7193 C80.8984,280.7833 88.1004,286.5093 112.7714,286.5093 C137.4434,286.5093 145.0074,280.7833 145.0074,273.7193 C145.0074,266.6563 137.4434,260.9303 112.7714,260.9303" id="Fill-35" fill="#F6A821" mask="url(#mask-2)"></path>
            <polygon id="Fill-36" fill="#FF8A64" mask="url(#mask-2)" points="104.9327 263.0174 96.3707 271.8134 92.3507 268.1294 105.0067 254.1764"></polygon>
            <path d="M97.3751,270.8846 C101.0561,269.5116 107.4531,268.6036 114.7291,268.6036 C122.0061,268.6036 128.4031,269.5116 132.0841,270.8846 C134.1761,270.1046 135.3911,269.1746 135.3911,268.1766 C135.3911,265.4206 126.1411,263.1866 114.7291,263.1866 C103.3181,263.1866 94.0681,265.4206 94.0681,268.1766 C94.0681,269.1746 95.2831,270.1046 97.3751,270.8846" id="Fill-37" fill="#4C2030" mask="url(#mask-2)"></path>
            <path d="M134.2684,267.7293 C134.2684,269.3983 125.5944,270.7513 114.8954,270.7513 C104.1954,270.7513 95.5224,269.3983 95.5224,267.7293 C95.5224,266.0603 104.1954,264.7073 114.8954,264.7073 C125.5944,264.7073 134.2684,266.0603 134.2684,267.7293 M111.1924,260.9393 C110.9314,260.9413 110.6704,260.9443 110.4134,260.9483 C110.2644,260.9513 110.1184,260.9543 109.9704,260.9573 C109.7374,260.9613 109.5044,260.9653 109.2744,260.9713 C109.1194,260.9753 108.9674,260.9793 108.8144,260.9833 C108.5954,260.9893 108.3774,260.9953 108.1614,261.0023 C108.0074,261.0073 107.8544,261.0133 107.7014,261.0193 C107.4904,261.0263 107.2794,261.0343 107.0714,261.0423 C106.9214,261.0493 106.7724,261.0563 106.6234,261.0623 C106.4164,261.0723 106.2114,261.0823 106.0074,261.0923 C105.8624,261.0993 105.7174,261.1073 105.5734,261.1153 C105.3694,261.1263 105.1664,261.1373 104.9654,261.1493 C104.8274,261.1583 104.6894,261.1673 104.5514,261.1753 C104.3474,261.1883 104.1444,261.2023 103.9434,261.2163 C103.8144,261.2263 103.6854,261.2343 103.5584,261.2443 C103.3484,261.2593 103.1414,261.2763 102.9354,261.2923 C102.8204,261.3023 102.7044,261.3113 102.5904,261.3213 C102.3674,261.3403 102.1484,261.3603 101.9294,261.3803 C101.8364,261.3893 101.7414,261.3963 101.6484,261.4063 C101.3904,261.4303 101.1364,261.4563 100.8834,261.4833 C100.8334,261.4883 100.7814,261.4933 100.7314,261.4993 C100.1124,261.5643 99.5104,261.6363 98.9254,261.7133 C98.9164,261.7153 98.9074,261.7163 98.8994,261.7173 C98.6214,261.7543 98.3464,261.7923 98.0764,261.8313 C98.0264,261.8383 97.9774,261.8463 97.9274,261.8543 C97.6994,261.8873 97.4724,261.9213 97.2494,261.9573 C97.1864,261.9663 97.1254,261.9773 97.0634,261.9873 C96.8544,262.0213 96.6484,262.0553 96.4454,262.0903 C96.3784,262.1023 96.3124,262.1133 96.2464,262.1253 C96.0494,262.1603 95.8544,262.1953 95.6624,262.2313 C95.5964,262.2443 95.5304,262.2563 95.4644,262.2693 C95.2734,262.3053 95.0844,262.3433 94.8984,262.3803 C94.8364,262.3933 94.7754,262.4063 94.7144,262.4183 C94.5244,262.4583 94.3374,262.4983 94.1524,262.5393 C94.0974,262.5513 94.0424,262.5623 93.9884,262.5753 C93.7964,262.6183 93.6074,262.6623 93.4204,262.7073 C93.3764,262.7173 93.3324,262.7273 93.2884,262.7383 C93.0884,262.7863 92.8904,262.8353 92.6954,262.8863 C92.6674,262.8933 92.6394,262.9003 92.6124,262.9073 C92.3914,262.9643 92.1734,263.0233 91.9604,263.0833 L91.9594,263.0833 C90.6314,263.4533 89.4444,263.8663 88.3874,264.3163 L88.3794,264.3193 C88.2084,264.3933 88.0394,264.4673 87.8754,264.5413 C87.8684,264.5453 87.8604,264.5483 87.8534,264.5523 C87.6924,264.6253 87.5354,264.6993 87.3804,264.7743 L87.3574,264.7863 C87.2024,264.8623 87.0504,264.9383 86.9024,265.0163 C86.8974,265.0193 86.8914,265.0213 86.8864,265.0243 C86.7334,265.1043 86.5844,265.1853 86.4384,265.2673 C85.5384,266.3343 84.8434,267.5413 84.5004,268.8963 C83.7594,271.8243 85.2734,275.4453 88.2144,276.1273 C90.5134,276.6603 93.1724,275.4023 95.1714,276.6573 C96.2324,277.3233 96.7934,278.5313 97.4094,279.6223 C98.4254,281.4233 99.7734,283.0963 101.5654,284.1283 C103.3574,285.1603 105.6434,285.4703 107.5134,284.5883 C110.0744,283.3803 111.6054,280.1713 114.4204,279.8623 C116.5694,279.6253 118.4224,281.2113 120.2814,282.3163 C121.7684,283.2003 123.4134,283.8163 125.1154,284.1263 C126.6574,284.4083 128.3764,284.3993 129.6394,283.4703 C131.0964,282.3983 131.5264,280.4573 132.1374,278.7543 C132.7494,277.0513 133.9974,275.2223 135.8064,275.2463 C137.5834,275.2693 138.8134,277.0653 140.4994,277.6293 C141.6884,278.0273 143.0204,277.7653 144.1374,277.1943 C144.2094,277.1583 144.2784,277.1183 144.3484,277.0793 C144.5164,276.6813 144.6494,276.2763 144.7524,275.8643 C144.7544,275.8543 144.7564,275.8443 144.7594,275.8343 C144.7894,275.7083 144.8174,275.5823 144.8424,275.4553 C144.8444,275.4443 144.8474,275.4333 144.8494,275.4223 C144.8994,275.1583 144.9374,274.8913 144.9634,274.6213 C144.9664,274.5893 144.9694,274.5563 144.9714,274.5243 C144.9804,274.4233 144.9874,274.3223 144.9924,274.2213 C144.9944,274.1853 144.9964,274.1493 144.9984,274.1133 C145.0034,273.9823 145.0074,273.8513 145.0074,273.7193 C145.0074,266.6563 137.4434,260.9303 112.7714,260.9303 C112.3704,260.9303 111.9734,260.9323 111.5804,260.9353 C111.4494,260.9363 111.3214,260.9373 111.1924,260.9393" id="Fill-38" fill="#F7CE7A" mask="url(#mask-2)"></path>
            <path d="M96.3168,269.8109 C96.3168,269.8109 97.5798,272.1409 96.9618,274.2709 C96.3448,276.4019 95.1098,274.9809 95.6038,272.3569 C93.8438,276.3399 92.5468,276.4939 92.3308,275.9379 C92.0178,275.1319 93.1648,273.0679 93.1648,273.0679 C93.1648,273.0679 91.9918,275.1979 90.9418,275.1359 C89.8918,275.0739 91.7138,272.1719 91.7138,272.1719 C91.7138,272.1719 90.3548,273.9319 89.6448,273.6849 C88.9348,273.4379 91.0038,270.7829 91.0038,270.7829 C91.0038,270.7829 90.0578,271.7399 89.4968,271.2149 C88.9348,270.6899 91.6138,267.4899 94.2728,267.4539" id="Fill-39" fill="#FF8A64" mask="url(#mask-2)"></path>
            <path d="M121.6017,248.5169 L114.2417,248.0919 L105.5057,249.7859 C105.5057,249.7859 104.3977,260.5739 108.9267,274.6349 C111.7777,282.7359 119.5267,276.1729 125.6437,274.0459 C126.3007,261.6679 121.6017,248.5169 121.6017,248.5169" id="Fill-40" fill="#FF8A64" mask="url(#mask-2)"></path>
            <path d="M142.6378,258.1395 C149.5188,261.8135 158.5308,261.9295 164.8018,257.2895 C171.0728,252.6495 173.4458,242.9725 169.0138,236.5525 C168.7178,236.1245 168.3838,235.6735 168.3788,235.1535 C168.3728,234.5005 168.8788,233.9725 169.3268,233.4975 C173.3568,229.2185 175.0768,222.8835 173.7668,217.1525 C172.4558,211.4225 168.1528,206.4645 162.6628,204.3625 C167.0658,199.1325 167.4688,191.1595 164.3208,185.0905 C161.1728,179.0215 154.9118,174.8865 148.2188,173.4925 C141.5258,172.0975 134.4728,173.2475 128.1498,175.8475 C120.1718,160.4975 100.1178,153.4015 83.9318,158.3745 C76.3858,160.6935 68.2058,166.9975 64.2108,173.8345 C59.1868,182.4325 59.4798,193.2915 62.4598,202.7945 C57.0488,204.2325 53.0988,209.3475 52.0458,214.8465 C50.9928,220.3455 52.4858,226.0925 55.1308,231.0275 C58.1778,236.7115 63.4788,241.8965 69.9268,242.0515 C70.5968,248.2105 75.5778,253.4115 81.4848,255.2815 C87.3918,257.1495 93.9718,256.0155 99.4738,253.1685" id="Fill-41" fill="#4C2030" mask="url(#mask-2)"></path>
            <path d="M154.131,219.5672 C154.131,239.3412 136.84,255.3712 115.51,255.3712 C94.181,255.3712 76.89,239.3412 76.89,219.5672 C76.89,199.7932 94.181,183.7622 115.51,183.7622 C136.84,183.7622 154.131,199.7932 154.131,219.5672" id="Fill-42" fill="#FF8A64" mask="url(#mask-2)"></path>
            <path d="M148.5817,191.6419 C142.3307,184.7359 133.9437,181.4219 124.7187,179.7509 C115.8117,178.1379 96.3227,188.1119 87.9647,191.3329 C87.5977,198.8259 101.0697,197.5399 106.6287,202.8949 C112.3707,208.4269 120.5707,211.5709 128.7397,211.3729 C133.4197,222.0899 146.3397,228.9339 158.3797,227.0739 C158.5297,221.7369 157.4637,216.4449 156.4017,211.2029 C154.9987,204.2699 153.4247,196.9919 148.5817,191.6419" id="Fill-43" fill="#4C2030" mask="url(#mask-2)"></path>
            <path d="M101.2555,187.9134 C101.2555,187.9134 147.0395,175.4814 153.9625,219.4204 C153.9625,219.4204 143.4225,188.0024 101.2555,187.9134" id="Fill-44" fill="#C90E32" mask="url(#mask-2)"></path>
            <path d="M140.1139,199.1205 C138.2219,194.6185 137.9079,189.4705 139.2389,184.7715 C140.5699,180.0725 143.5369,175.8535 147.5089,173.0125 C147.6359,173.7755 147.7639,174.5385 147.8599,175.3065 C148.9319,183.9125 145.7069,192.9485 139.4269,198.9295" id="Fill-45" fill="#C90E32" mask="url(#mask-2)"></path>
            <path d="M140.0797,199.5892 C143.1507,195.2682 148.4507,192.9642 153.7147,192.3392 C158.9787,191.7132 164.2937,192.5592 169.5277,193.4032 C167.6237,196.7622 164.1597,199.0622 160.4407,200.0962 C156.7207,201.1312 152.7597,200.9972 148.9587,200.3242 C146.0447,199.8082 143.1867,198.9802 140.4477,197.8602" id="Fill-46" fill="#C90E32" mask="url(#mask-2)"></path>
            <path d="M92.0026,228.3685 C90.2836,222.0065 98.6066,218.4805 103.3456,223.4395 C104.9526,225.1215 105.9706,227.7125 105.2936,231.7065 C105.0606,233.5145 98.6296,236.1595 94.1146,231.8105 C92.9856,230.7235 92.3206,229.5455 92.0026,228.3685" id="Fill-47" fill="#FFFFFF" mask="url(#mask-2)"></path>
            <path d="M94.3195,224.9261 C92.7695,227.5221 93.6175,230.8831 96.2145,232.4331 C98.8105,233.9831 102.1715,233.1341 103.7205,230.5381 C105.2705,227.9421 104.4225,224.5811 101.8265,223.0311 C99.2305,221.4811 95.8695,222.3301 94.3195,224.9261" id="Fill-48" fill="#4C2030" mask="url(#mask-2)"></path>
            <path d="M137.9276,228.3685 C139.6466,222.0065 131.3236,218.4805 126.5846,223.4395 C124.9776,225.1215 123.9596,227.7125 124.6376,231.7065 C124.8696,233.5145 131.3006,236.1595 135.8156,231.8105 C136.9446,230.7235 137.6096,229.5455 137.9276,228.3685" id="Fill-49" fill="#FFFFFF" mask="url(#mask-2)"></path>
            <path d="M135.611,224.9261 C137.161,227.5221 136.312,230.8831 133.716,232.4331 C131.12,233.9831 127.759,233.1341 126.209,230.5381 C124.66,227.9421 125.508,224.5811 128.104,223.0311 C130.7,221.4811 134.061,222.3301 135.611,224.9261" id="Fill-50" fill="#4C2030" mask="url(#mask-2)"></path>
            <path d="M93.0458,225.1195 C93.0458,223.5315 94.3328,222.2445 95.9208,222.2445 C97.5098,222.2445 98.7968,223.5315 98.7968,225.1195 C98.7968,226.7075 97.5098,227.9955 95.9208,227.9955 C94.3328,227.9955 93.0458,226.7075 93.0458,225.1195" id="Fill-51" fill="#FFFFFF" mask="url(#mask-2)"></path>
            <path d="M125.4347,226.3602 C125.4347,224.7722 126.7217,223.4842 128.3097,223.4842 C129.8987,223.4842 131.1857,224.7722 131.1857,226.3602 C131.1857,227.9482 129.8987,229.2352 128.3097,229.2352 C126.7217,229.2352 125.4347,227.9482 125.4347,226.3602" id="Fill-52" fill="#FFFFFF" mask="url(#mask-2)"></path>
            <path d="M79.4823,225.2225 C79.4823,225.2225 74.3813,222.2755 72.5683,227.1495 C70.7543,232.0235 75.4173,237.6435 82.0893,237.2695 L79.4823,225.2225 Z" id="Fill-53" fill="#FF8A64" mask="url(#mask-2)"></path>
            <path d="M150.6112,225.9798 C150.6112,225.9798 155.5812,223.1078 157.3482,227.8578 C159.1152,232.6068 154.5722,238.0828 148.0712,237.7188 L150.6112,225.9798 Z" id="Fill-54" fill="#FF8A64" mask="url(#mask-2)"></path>
            <path d="M93.8295,236.4671 C93.9925,235.2581 92.4785,233.8751 90.4475,233.3801 C88.4165,232.8841 86.6375,233.4641 86.4745,234.6741 C86.3105,235.8841 87.8245,237.2661 89.8555,237.7611 C91.8865,238.2571 93.6655,237.6771 93.8295,236.4671" id="Fill-55" fill="#FEA87F" mask="url(#mask-2)"></path>
            <path d="M137.4904,236.4671 C137.3264,235.2581 138.8414,233.8751 140.8724,233.3801 C142.9034,232.8841 144.6824,233.4641 144.8454,234.6741 C145.0094,235.8841 143.4954,237.2661 141.4644,237.7611 C139.4334,238.2571 137.6544,237.6771 137.4904,236.4671" id="Fill-56" fill="#FEA87F" mask="url(#mask-2)"></path>
            <path d="M78.0775,223.5902 C79.4995,215.9662 84.4215,202.4502 101.4355,196.8312 C101.9105,196.6732 102.1995,196.1632 102.0485,195.6862 C97.5875,181.5602 80.8285,192.6852 80.8285,192.6852 C80.8285,192.6852 71.4235,199.1012 76.2535,223.5852 C76.4515,224.5862 77.8905,224.5932 78.0775,223.5902" id="Fill-57" fill="#4C2030" mask="url(#mask-2)"></path>
            <path d="M139.5709,214.619 C139.5709,214.619 135.5919,207.661 126.3869,211.194 C130.6679,205.414 139.0539,208.304 139.5709,214.619" id="Fill-58" fill="#4C2030" mask="url(#mask-2)"></path>
            <path d="M116.0487,265.2562 C116.0487,264.9572 115.8057,264.7142 115.5067,264.7142 C115.2077,264.7142 114.9657,264.9572 114.9657,265.2562 C114.9657,265.5552 115.2077,265.7982 115.5067,265.7982 C115.8057,265.7982 116.0487,265.5552 116.0487,265.2562" id="Fill-59" fill="#D9D9D9" mask="url(#mask-2)"></path>
            <path d="M76.3687,235.994 C76.3687,236.802 77.0237,237.456 77.8317,237.456 C78.6397,237.456 79.2947,236.802 79.2947,235.994 C79.2947,235.186 78.6397,234.531 77.8317,234.531 C77.0237,234.531 76.3687,235.186 76.3687,235.994" id="Fill-60" fill="#FFFFFF" mask="url(#mask-2)"></path>
            <path d="M151.3549,235.994 C151.3549,236.802 152.0099,237.456 152.8179,237.456 C153.6259,237.456 154.2809,236.802 154.2809,235.994 C154.2809,235.186 153.6259,234.531 152.8179,234.531 C152.0099,234.531 151.3549,235.186 151.3549,235.994" id="Fill-61" fill="#FFFFFF" mask="url(#mask-2)"></path>
            <path d="M121.1549,236.0209 C120.5929,237.1339 118.8559,239.9389 115.6139,239.9389 C112.7249,239.9389 111.0349,237.9169 110.3009,236.7579 C109.2909,237.3819 108.7389,238.5669 110.5589,240.2939 C110.5909,240.3239 110.6229,240.3539 110.6549,240.3839 C113.0499,242.5809 117.0319,242.5859 119.9339,240.5989 C121.0719,239.8189 122.2109,238.8039 122.2399,237.8469 C122.2739,236.7069 121.8169,236.1759 121.1549,236.0209" id="Fill-62" fill="#EF4379" mask="url(#mask-2)"></path>
            <path d="M115.6139,239.9393 C118.8559,239.9393 120.5929,237.1343 121.1549,236.0213 C120.1159,235.7783 118.5699,236.4693 117.5989,237.2403 C116.0099,238.5013 113.6259,236.7383 112.5549,236.3173 C112.0929,236.1353 111.0659,236.2863 110.3019,236.7583 C111.0349,237.9163 112.7249,239.9393 115.6139,239.9393" id="Fill-63" fill="#FFFFFF" mask="url(#mask-2)"></path>
            <path d="M78.1417,230.8133 C78.3127,230.3293 78.6287,230.2493 78.9377,230.3163 C78.7377,229.1753 78.6657,228.4613 78.6657,228.4613 C78.6497,228.4463 78.6337,228.4303 78.6177,228.4153 C77.0607,226.9183 74.5047,228.5893 75.1727,230.6433 C75.6897,232.2323 77.3717,233.2483 79.7037,233.7863 C79.5417,233.1813 79.4037,232.6053 79.2857,232.0693 C78.6477,231.8813 77.8967,231.5083 78.1417,230.8133" id="Fill-64" fill="#CE5B52" mask="url(#mask-2)"></path>
            <path d="M152.8793,230.8133 C152.7083,230.3293 152.3923,230.2493 152.0833,230.3163 C152.2833,229.1753 152.3553,228.4613 152.3553,228.4613 C152.3713,228.4463 152.3873,228.4303 152.4033,228.4153 C153.9603,226.9183 156.5163,228.5893 155.8483,230.6433 C155.3313,232.2323 153.6493,233.2483 151.3173,233.7863 C151.4793,233.1813 151.6173,232.6053 151.7353,232.0693 C152.3733,231.8813 153.1243,231.5083 152.8793,230.8133" id="Fill-65" fill="#CE5B52" mask="url(#mask-2)"></path>
            <path d="M136.9296,264.1561 C136.4696,264.6001 135.8286,264.8701 135.1316,264.9471 C132.8746,265.1971 130.6146,265.4091 128.3536,265.5561 C132.0006,266.1051 134.2686,266.8761 134.2686,267.7291 C134.2686,269.3981 125.5946,270.7511 114.8956,270.7511 C104.1956,270.7511 95.5226,269.3981 95.5226,267.7291 C95.5226,267.0881 96.8046,266.4931 98.9896,266.0041 C97.5936,265.4211 96.2736,264.7491 95.1126,263.7471 C94.6906,263.3831 94.3346,262.9881 94.0376,262.5641 C94.0216,262.5681 94.0046,262.5721 93.9886,262.5751 C93.7966,262.6181 93.6076,262.6621 93.4206,262.7071 C93.3766,262.7171 93.3326,262.7271 93.2886,262.7381 C93.0876,262.7861 92.8906,262.8361 92.6956,262.8861 C92.6676,262.8931 92.6396,262.9001 92.6126,262.9071 C92.3916,262.9651 92.1736,263.0231 91.9606,263.0831 L91.9596,263.0831 C90.6316,263.4531 89.4446,263.8661 88.3876,264.3171 L88.3796,264.3201 C88.2086,264.3931 88.0396,264.4671 87.8756,264.5421 C87.8676,264.5451 87.8606,264.5491 87.8536,264.5521 C87.6926,264.6251 87.5356,264.6991 87.3806,264.7751 L87.3576,264.7861 C87.2026,264.8621 87.0506,264.9391 86.9026,265.0161 C86.8966,265.0191 86.8916,265.0221 86.8866,265.0251 C86.7336,265.1051 86.5846,265.1851 86.4386,265.2671 C85.5386,266.3341 84.8436,267.5411 84.5006,268.8971 C83.7596,271.8241 85.2736,275.4451 88.2146,276.1271 C90.5136,276.6601 93.1716,275.4031 95.1706,276.6571 C96.2316,277.3231 96.7936,278.5311 97.4086,279.6221 C98.4256,281.4241 99.7736,283.0961 101.5646,284.1281 C103.3566,285.1601 105.6436,285.4701 107.5136,284.5881 C110.0746,283.3801 111.6056,280.1721 114.4206,279.8621 C116.5696,279.6251 118.4226,281.2111 120.2816,282.3161 C121.7676,283.2001 123.4136,283.8171 125.1156,284.1271 C126.6576,284.4081 128.3766,284.3991 129.6396,283.4701 C131.0966,282.3981 131.5256,280.4571 132.1376,278.7541 C132.7496,277.0511 133.9966,275.2221 135.8056,275.2461 C137.5836,275.2691 138.8136,277.0661 140.4996,277.6301 C141.6886,278.0271 143.0206,277.7651 144.1376,277.1951 C144.2096,277.1581 144.2786,277.1181 144.3476,277.0791 C144.5156,276.6811 144.6496,276.2761 144.7526,275.8641 C144.7546,275.8551 144.7566,275.8441 144.7596,275.8351 C144.7896,275.7091 144.8176,275.5821 144.8426,275.4551 C144.8446,275.4441 144.8466,275.4331 144.8486,275.4231 C144.8996,275.1581 144.9376,274.8911 144.9636,274.6211 C144.9666,274.5891 144.9696,274.5561 144.9716,274.5241 C144.9806,274.4241 144.9876,274.3231 144.9926,274.2211 C144.9946,274.1851 144.9966,274.1491 144.9986,274.1131 C145.0036,273.9831 145.0076,273.8511 145.0076,273.7191 C145.0076,269.9151 142.8106,266.4991 136.9296,264.1561" id="Fill-66" fill="#F7CE7A" mask="url(#mask-2)"></path>
            <path d="M134.6671,263.3656 C134.6731,263.7846 134.5541,264.2016 134.2731,264.5696 C133.7231,265.2896 133.1601,265.9486 132.5161,266.4716 C133.6401,266.8546 134.2681,267.2806 134.2681,267.7296 C134.2681,269.3986 125.5951,270.7516 114.8951,270.7516 C104.1961,270.7516 95.5221,269.3986 95.5221,267.7296 C95.5221,267.3766 95.9121,267.0366 96.6271,266.7216 C95.3861,265.5646 94.3551,264.1946 93.6501,262.6536 C93.5741,262.6716 93.4961,262.6886 93.4201,262.7066 C93.3761,262.7176 93.3321,262.7276 93.2891,262.7386 C93.0881,262.7866 92.8901,262.8356 92.6951,262.8866 C92.6671,262.8936 92.6401,262.9006 92.6121,262.9076 C92.3911,262.9646 92.1741,263.0236 91.9601,263.0826 L91.9591,263.0826 C90.6311,263.4536 89.4441,263.8666 88.3871,264.3166 L88.3801,264.3196 C88.2081,264.3926 88.0401,264.4676 87.8751,264.5416 C87.8681,264.5456 87.8611,264.5486 87.8541,264.5526 C87.6931,264.6256 87.5351,264.6996 87.3811,264.7746 L87.3571,264.7866 C87.2021,264.8626 87.0511,264.9386 86.9021,265.0166 C86.8971,265.0186 86.8921,265.0216 86.8861,265.0246 C86.7331,265.1046 86.5841,265.1856 86.4381,265.2676 C85.5381,266.3346 84.8431,267.5416 84.5001,268.8966 C83.7591,271.8236 85.2731,275.4456 88.2151,276.1276 C90.5131,276.6596 93.1721,275.4026 95.1711,276.6576 C96.2321,277.3236 96.7931,278.5316 97.4091,279.6226 C98.4251,281.4236 99.7731,283.0956 101.5651,284.1286 C103.3571,285.1606 105.6431,285.4706 107.5131,284.5886 C110.0751,283.3806 111.6051,280.1716 114.4201,279.8626 C116.5701,279.6256 118.4221,281.2116 120.2811,282.3166 C121.7681,283.2006 123.4141,283.8166 125.1151,284.1266 C126.6581,284.4076 128.3761,284.3996 129.6391,283.4706 C131.0971,282.3986 131.5261,280.4576 132.1371,278.7546 C132.7491,277.0516 133.9971,275.2216 135.8061,275.2456 C137.5841,275.2696 138.8131,277.0656 140.4991,277.6296 C141.6891,278.0276 143.0201,277.7656 144.1371,277.1946 C144.2091,277.1576 144.2781,277.1176 144.3481,277.0786 C144.5161,276.6816 144.6501,276.2766 144.7521,275.8646 C144.7541,275.8546 144.7571,275.8446 144.7591,275.8346 C144.7901,275.7086 144.8181,275.5826 144.8431,275.4546 C144.8441,275.4446 144.8471,275.4336 144.8491,275.4226 C144.9001,275.1576 144.9371,274.8906 144.9631,274.6216 C144.9661,274.5896 144.9691,274.5566 144.9721,274.5246 C144.9801,274.4236 144.9871,274.3226 144.9931,274.2216 C144.9941,274.1856 144.9971,274.1496 144.9981,274.1136 C145.0031,273.9826 145.0071,273.8516 145.0071,273.7196 C145.0071,269.4616 142.2561,265.6896 134.6671,263.3656" id="Fill-67" fill="#F7CE7A" mask="url(#mask-2)"></path>
            <path d="M128.2501,272.329 C130.1791,272.573 132.0731,272.989 133.9321,273.558 C134.4321,273.712 134.6441,272.931 134.1471,272.778 C132.2171,272.186 130.2521,271.772 128.2501,271.519 C127.7331,271.454 127.7391,272.264 128.2501,272.329" id="Fill-68" fill="#F97000" mask="url(#mask-2)"></path>
            <path d="M89.3558,267.9242 C89.6268,269.5572 90.0078,271.1622 90.5008,272.7422 C90.6558,273.2382 91.4378,273.0272 91.2818,272.5272 C90.7888,270.9472 90.4068,269.3422 90.1368,267.7092 C90.0508,267.1952 89.2708,267.4142 89.3558,267.9242" id="Fill-69" fill="#F97000" mask="url(#mask-2)"></path>
            <path d="M97.4264,273.3353 C99.1194,273.3593 100.8124,273.3833 102.5044,273.4073 C103.0274,273.4153 103.0264,272.6053 102.5044,272.5983 C100.8124,272.5743 99.1194,272.5493 97.4264,272.5253 C96.9044,272.5183 96.9054,273.3273 97.4264,273.3353" id="Fill-70" fill="#F97000" mask="url(#mask-2)"></path>
            <path d="M105.9344,281.7513 C106.8664,280.6393 107.8264,279.5523 108.8144,278.4913 C109.1694,278.1093 108.5984,277.5353 108.2424,277.9183 C107.2534,278.9803 106.2934,280.0663 105.3624,281.1793 C105.0294,281.5763 105.5994,282.1523 105.9344,281.7513" id="Fill-71" fill="#F97000" mask="url(#mask-2)"></path>
            <path d="M112.4469,273.5296 C114.1199,274.3106 115.8479,274.9406 117.6339,275.4106 C118.1399,275.5426 118.3539,274.7616 117.8489,274.6296 C116.1309,274.1776 114.4659,273.5826 112.8549,272.8306 C112.3859,272.6116 111.9739,273.3086 112.4469,273.5296" id="Fill-72" fill="#F97000" mask="url(#mask-2)"></path>
            <path d="M122.7633,279.3177 C124.5093,278.4827 126.2843,277.7147 128.0883,277.0137 C128.5693,276.8277 128.3603,276.0447 127.8733,276.2337 C126.0033,276.9597 124.1643,277.7537 122.3553,278.6187 C121.8843,278.8437 122.2943,279.5417 122.7633,279.3177" id="Fill-73" fill="#F97000" mask="url(#mask-2)"></path>
            <path d="M140.4943,269.1283 C140.1903,270.8023 139.8523,272.4683 139.4803,274.1283 C139.3653,274.6373 140.1463,274.8533 140.2603,274.3443 C140.6333,272.6843 140.9713,271.0173 141.2753,269.3433 C141.3673,268.8333 140.5873,268.6153 140.4943,269.1283" id="Fill-74" fill="#F97000" mask="url(#mask-2)"></path>
            <path d="M96.3685,264.7904 C97.8455,264.3734 99.3325,263.9944 100.8295,263.6534 C101.3385,263.5384 101.1225,262.7574 100.6145,262.8734 C99.1175,263.2134 97.6305,263.5924 96.1535,264.0104 C95.6515,264.1514 95.8655,264.9324 96.3685,264.7904" id="Fill-75" fill="#F97000" mask="url(#mask-2)"></path>
            <path d="M134.7697,265.6068 C135.6767,266.8708 136.6707,268.0628 137.7587,269.1758 C138.1237,269.5498 138.6957,268.9768 138.3307,268.6038 C137.2917,267.5398 136.3357,266.4068 135.4687,265.1988 C135.1677,264.7788 134.4647,265.1818 134.7697,265.6068" id="Fill-76" fill="#F97000" mask="url(#mask-2)"></path>
            <polygon id="Fill-77" fill="#FF8A64" mask="url(#mask-2)" points="123.1888 262.6068 132.1138 271.8138 136.1328 268.1288 122.4918 253.4008"></polygon>
            <path d="M132.1588,269.8109 C132.1588,269.8109 130.8958,272.1409 131.5138,274.2709 C132.1308,276.4019 133.3658,274.9809 132.8718,272.3569 C134.6318,276.3399 135.9288,276.4939 136.1448,275.9379 C136.4578,275.1319 135.3108,273.0679 135.3108,273.0679 C135.3108,273.0679 136.4838,275.1979 137.5338,275.1359 C138.5838,275.0739 136.7628,272.1719 136.7628,272.1719 C136.7628,272.1719 138.1208,273.9319 138.8308,273.6849 C139.5408,273.4379 137.4718,270.7829 137.4718,270.7829 C137.4718,270.7829 138.4178,271.7399 138.9798,271.2149 C139.5408,270.6899 136.8618,267.4899 134.2028,267.4539" id="Fill-78" fill="#FF8A64" mask="url(#mask-2)"></path>
            <path d="M113.7318,261.9242 C113.6838,261.9422 113.6408,261.9592 113.6038,261.9742 C113.6408,261.9592 113.6838,261.9422 113.7318,261.9242" id="Fill-79" fill="#C90E32" mask="url(#mask-2)"></path>
            <path d="M124.3097,261.0326 C120.7137,261.6496 117.1967,262.5216 113.8267,263.6416 C113.6497,263.7006 113.4587,263.7616 113.2677,263.7386 C113.1027,263.7186 112.9637,263.6386 112.8317,263.5626 C110.2417,262.0666 107.3537,260.8576 104.2937,259.9856 C103.4167,261.3116 105.2687,265.2526 105.0067,266.5016 C104.6017,268.4236 102.5357,269.7886 102.8957,270.1016 C102.8957,270.1016 106.9037,270.6896 110.9737,270.7516 C113.5567,270.7906 116.0687,270.6846 118.7657,270.6916 C122.5067,270.7006 125.3957,270.2856 126.6367,270.1286 L126.3007,269.2976 C125.3677,266.3056 126.4337,266.5466 125.8097,265.1346 C125.2377,263.8426 124.2697,260.9796 124.3097,261.0326" id="Fill-80" fill="#C90E32" mask="url(#mask-2)"></path>
            <path d="M123.2159,259.7796 L124.0659,255.0996 L123.1449,253.9106 L121.4739,259.6006 C121.4739,259.6006 114.8049,261.4816 113.6039,261.9746 C113.6039,261.9746 107.9559,259.6906 106.6949,259.3316 C106.8149,257.9436 106.1479,253.7526 106.1479,253.7526 L105.0069,254.1766 L105.0719,258.8836 C105.0719,258.8836 104.7289,259.3276 104.2939,259.9856 C107.3539,260.8576 110.2419,262.0666 112.8309,263.5626 C112.9639,263.6386 113.1019,263.7176 113.2679,263.7386 C113.4589,263.7616 113.6489,263.7006 113.8269,263.6416 C117.1969,262.5216 120.7139,261.6496 124.3099,261.0326 C123.9859,260.6056 123.6219,260.1806 123.2159,259.7796" id="Fill-81" fill="#4C2030" mask="url(#mask-2)"></path>
            <path d="M222.4181,254.556 C220.5851,257.925 224.0681,260.36 227.2301,260.854 C230.5341,261.375 234.3891,260.399 237.4681,261.995 C238.9961,262.786 239.8961,264.409 240.8831,265.748 C242.4661,267.898 244.5971,269.242 247.2031,269.822 C250.9151,270.648 255.0681,270.567 258.8581,270.576076 C263.4811,270.589 267.5591,268.941 271.9021,267.679 C274.4181,266.95 277.1311,267.297 279.7141,267.34 C282.3871,267.381 285.0941,267.271 287.6581,266.436 C289.6881,265.775 291.6311,264.922 293.2501,263.493 C297.4821,259.749 291.4651,255.761 293.1261,251.719 C294.0561,249.452 298.0641,249.119 297.9061,246.297 C297.7811,244.129 294.9391,242.927 293.1631,242.092 C289.9561,240.589 286.5621,239.48 283.1371,238.497 C281.5351,238.037 279.9131,237.708 278.2701,237.372 C276.5691,237.026 274.8771,236.635 273.1521,236.374 C271.0361,236.056 268.8681,235.877 266.7321,235.696 C264.6511,235.519 262.5741,235.426 260.4851,235.411 C256.1641,235.379 251.8761,235.52 247.6671,236.343 C245.5591,236.754 243.4481,237.163 241.3731,237.694 C237.8241,238.603 230.4661,240.64 231.8041,245.318 C232.0511,246.185 232.6431,246.907 232.5581,247.846 C232.3971,249.646 229.8251,250.366 228.3271,250.907 C226.2471,251.66 223.7961,252.397 222.5811,254.278 C222.5241,254.369 222.4691,254.462 222.4181,254.556" id="Fill-82" fill="#08C7EB" mask="url(#mask-2)"></path>
            <path d="M233.2174,242.8275 C232.9984,244.5205 234.3034,246.3565 233.3224,247.9525 C232.9054,248.6325 232.2474,249.1745 231.5044,249.5475 C231.4714,249.5515 231.4394,249.5565 231.4074,249.5625 C232.0304,249.1275 232.4934,248.5735 232.5584,247.8465 C232.6434,246.9065 232.0504,246.1855 231.8034,245.3175 C231.1274,242.9515 232.6764,241.2625 234.8304,240.0515 C234.0224,240.7875 233.3594,241.7245 233.2174,242.8275" id="Fill-83" fill="#CBE9F0" mask="url(#mask-2)"></path>
            <path d="M221.9718,255.7635 C222.0888,256.6225 222.5108,257.3545 223.1688,257.9255 C224.1248,258.7585 225.3558,259.2365 226.5708,259.5535 C227.8198,259.8775 229.0988,260.0565 230.3838,260.1505 C231.9908,260.2685 233.6238,260.2655 235.2148,260.5485 C236.0588,260.7005 236.8988,260.9245 237.6678,261.3075 C238.2588,261.5995 238.8898,261.9625 239.3398,262.4505 C240.5768,263.7985 241.7528,265.1985 243.1218,266.4165 C243.3348,266.6055 243.6958,266.9345 244.1178,267.2505 C244.2878,267.3865 244.4628,267.5165 244.6458,267.6385 C245.6478,268.3015 246.7688,268.6755 247.9278,268.9645 C249.5058,269.3565 251.1088,269.6245 252.7208,269.8295 C254.2788,270.0305 255.8408,270.2225 257.4158,270.1385 C259.2428,270.0375 261.0398,269.6545 262.7838,269.0985 C263.6888,268.8075 264.5828,268.4835 265.4688,268.1375 C266.4028,267.7755 267.3228,267.3765 268.2998,267.1385 C270.2538,266.6625 272.2688,266.6555 274.2638,266.7965 C276.2308,266.9375 278.1778,267.2005 280.1538,267.1115 C283.6338,266.9555 287.2818,266.1165 290.2418,264.2135 C291.3848,263.4775 292.5038,262.5325 293.0808,261.2715 C293.6758,259.9715 293.5848,258.5635 293.0258,257.2645 C292.4028,255.8125 291.2428,254.3365 291.3368,252.6795 C291.3868,251.8205 291.7748,250.9835 292.3898,250.3795 C292.9078,249.8755 293.5408,249.5255 294.1808,249.1995 C294.7808,248.8935 295.3978,248.6005 295.9318,248.1875 C296.5018,247.7485 297.1368,247.1665 297.2828,246.4285 C297.4798,245.4495 296.9108,244.5745 296.2868,243.7925 C297.1698,244.4515 297.8448,245.2645 297.9058,246.2965 C298.0638,249.1185 294.0558,249.4515 293.1258,251.7185 C291.4648,255.7605 297.4818,259.7485 293.2498,263.4925 C291.6318,264.9225 289.6878,265.7745 287.6578,266.4365 C285.0938,267.2705 282.3868,267.3815 279.7138,267.3395 C277.1308,267.2975 274.4188,266.9495 271.9018,267.6785 C267.5598,268.9405 263.4808,270.5895 258.8578,270.576576 C255.0678,270.5665 250.9148,270.6475 247.2028,269.8215 C244.5968,269.2425 242.4658,267.8975 240.8828,265.7485 C239.8958,264.4095 238.9958,262.7855 237.4688,261.9955 C234.3888,260.3985 230.5338,261.3745 227.2298,260.8545 C224.4598,260.4225 221.4428,258.4975 221.9718,255.7635" id="Fill-84" fill="#CBE9F0" mask="url(#mask-2)"></path>
            <path d="M235.4928,252.8158 C235.7968,252.8158 236.0938,252.8218 236.3888,252.8358 C236.1808,252.1598 236.0718,251.4658 236.0718,250.7618 C236.0718,243.3208 247.9688,237.2898 262.6458,237.2898 C277.3198,237.2898 289.2178,243.3208 289.2178,250.7618 C289.2178,258.1998 277.3198,264.2328 262.6458,264.2328 C253.4428,264.2328 245.3338,261.8598 240.5658,258.2588 C239.1938,258.7078 237.4268,258.9828 235.4928,258.9828 C231.1418,258.9828 227.6168,257.6028 227.6168,255.8978 C227.6168,254.1958 231.1418,252.8158 235.4928,252.8158" id="Fill-85" fill="#08C7EB" mask="url(#mask-2)"></path>
            <path d="M285.4938,262.8324 C285.4938,263.1834 286.2008,263.4674 287.0678,263.4674 C287.9368,263.4674 288.6408,263.1834 288.6408,262.8324 C288.6408,262.4804 287.9368,262.1964 287.0678,262.1964 C286.2008,262.1964 285.4938,262.4804 285.4938,262.8324" id="Fill-86" fill="#08C7EB" mask="url(#mask-2)"></path>
            <path d="M282.3043,264.4344 C282.3043,264.6034 282.6453,264.7414 283.0653,264.7414 C283.4863,264.7414 283.8263,264.6034 283.8263,264.4344 C283.8263,264.2624 283.4863,264.1244 283.0653,264.1244 C282.6453,264.1244 282.3043,264.2624 282.3043,264.4344" id="Fill-87" fill="#08C7EB" mask="url(#mask-2)"></path>
            <path d="M253.0236,267.3148 C253.0236,267.6658 253.7276,267.9528 254.5966,267.9528 C255.4666,267.9528 256.1696,267.6658 256.1696,267.3148 C256.1696,266.9638 255.4666,266.6778 254.5966,266.6778 C253.7276,266.6778 253.0236,266.9638 253.0236,267.3148" id="Fill-88" fill="#08C7EB" mask="url(#mask-2)"></path>
            <path d="M248.213,267.3148 C248.213,267.4858 248.553,267.6258 248.973,267.6258 C249.395,267.6258 249.735,267.4858 249.735,267.3148 C249.735,267.1458 249.395,267.0078 248.973,267.0078 C248.553,267.0078 248.213,267.1458 248.213,267.3148" id="Fill-89" fill="#08C7EB" mask="url(#mask-2)"></path>
            <path d="M226.2018,256.8543 C226.2018,257.0243 226.5428,257.1613 226.9618,257.1613 C227.3828,257.1613 227.7228,257.0243 227.7228,256.8543 C227.7228,256.6843 227.3828,256.5443 226.9618,256.5443 C226.5428,256.5443 226.2018,256.6843 226.2018,256.8543" id="Fill-90" fill="#08C7EB" mask="url(#mask-2)"></path>
            <path d="M234.579,242.3773 C234.579,242.5473 234.919,242.6853 235.339,242.6853 C235.76,242.6853 236.103,242.5473 236.103,242.3773 C236.103,242.2083 235.76,242.0693 235.339,242.0693 C234.919,242.0693 234.579,242.2083 234.579,242.3773" id="Fill-91" fill="#08C7EB" mask="url(#mask-2)"></path>
            <path d="M293.11,245.0931 C293.11,245.2641 293.451,245.4021 293.87,245.4021 C294.292,245.4021 294.634,245.2641 294.634,245.0931 C294.634,244.9251 294.292,244.7861 293.87,244.7861 C293.451,244.7861 293.11,244.9251 293.11,245.0931" id="Fill-92" fill="#08C7EB" mask="url(#mask-2)"></path>
            <path d="M282.7772,260.9032 C285.4532,259.3372 288.0672,257.3822 289.4442,254.5252 C289.4712,254.4682 289.5842,254.5912 289.5642,254.6392 C288.3652,257.6452 285.6252,259.5472 282.8672,261.0152 C282.8222,261.0372 282.7382,260.9242 282.7772,260.9032" id="Fill-93" fill="#CBE9F0" mask="url(#mask-2)"></path>
            <path d="M280.1666,262.9281 C281.0436,262.5871 281.9336,262.2771 282.7836,261.8681 C283.6356,261.4531 284.4256,260.9181 285.2086,260.3901 C286.6936,259.3891 288.3326,258.2321 289.2616,256.6561 C289.2986,256.5951 289.4246,256.7351 289.3956,256.7891 C288.5626,258.4441 287.0086,259.7341 285.4996,260.7521 C283.8986,261.8371 282.2446,262.8071 280.3236,263.1831 C280.2326,263.2001 280.0566,262.9691 280.1666,262.9281" id="Fill-94" fill="#CBE9F0" mask="url(#mask-2)"></path>
            <path d="M244.0829,261.5594 C244.7139,262.0124 245.5429,262.2464 246.2729,262.4844 C247.0199,262.7294 247.7709,262.9594 248.5279,263.1794 C250.0899,263.6294 251.6739,264.0414 253.2569,264.4044 C253.3189,264.4184 253.4339,264.6034 253.3379,264.5874 C251.6089,264.3104 249.8939,263.8914 248.2169,263.3834 C246.8649,262.9764 245.2129,262.5524 244.0839,261.6654 C244.0389,261.6344 243.9949,261.4964 244.0829,261.5594" id="Fill-95" fill="#CBE9F0" mask="url(#mask-2)"></path>
            <path d="M247.8556,264.3031 C249.2826,264.7921 250.7356,265.1521 252.1996,265.5131 C252.2756,265.5321 252.4246,265.7711 252.3006,265.7501 C250.7916,265.4891 249.3166,264.9861 247.8956,264.4231 C247.8626,264.4091 247.7976,264.2821 247.8556,264.3031" id="Fill-96" fill="#CBE9F0" mask="url(#mask-2)"></path>
            <path d="M287.0477,185.4251 C291.1657,176.7711 289.6547,166.1481 283.2487,158.7101 C283.0267,158.4521 282.7917,158.1831 282.7357,157.8611 C282.6617,157.4371 282.9087,157.0301 283.1097,156.6421 C284.5177,153.9131 283.7587,150.5501 281.7917,148.1171 C279.8257,145.6851 276.8237,144.0791 273.7007,143.0141 C269.0957,141.4451 263.5977,141.0201 259.4917,143.4701 C256.4317,140.0531 251.6807,138.0021 246.8247,137.6551 C237.6627,137.0001 226.9127,142.5181 229.3167,151.8481 C224.9567,152.7361 220.8617,154.9851 218.3937,158.3441 C215.9257,161.7041 215.2587,166.1981 217.1097,169.8661 C217.9507,171.5341 219.4637,173.0981 221.4737,173.3721 C220.8457,176.1751 221.6247,179.2081 223.5547,181.4771 C225.8697,184.1991 230.3837,186.1021 234.1817,185.6071" id="Fill-97" fill="#B0814D" mask="url(#mask-2)"></path>
            <path d="M256.6871,228.6556 C257.0281,228.7106 257.3691,228.7536 257.7151,228.7846 L257.7001,228.9406 C257.7001,228.9406 257.6841,233.1086 258.1681,237.7956 C247.9191,237.0436 238.0671,227.2296 238.4211,226.6006 C238.7661,225.9886 240.0261,226.5666 240.1301,226.5986 C240.0361,226.5376 238.3751,225.1506 238.8531,224.5196 C239.1491,224.1276 241.2031,225.3056 241.2031,225.3056 C241.2031,225.3056 240.0501,223.3106 240.3771,223.0056 C240.8231,222.5876 242.8131,224.7106 242.8131,224.7106 C242.8131,224.7106 242.3491,222.4756 243.1581,222.9616 C243.9681,223.4486 244.2521,225.3296 244.2521,225.3296 C247.9641,227.3926 253.4981,228.2886 256.6871,228.6556" id="Fill-98" fill="#E0C6B3" mask="url(#mask-2)"></path>
            <path d="M250.931,233.7093 C250.78,233.5483 250.589,233.5813 250.398,233.6183 C250.127,233.6713 249.868,233.6033 249.613,233.5053 C249.443,233.4393 249.257,233.6493 249.354,233.8093 C249.522,234.0873 249.74,234.2653 250.058,234.3523 C250.35,234.4313 250.793,234.4313 250.968,234.1393 C251.053,233.9973 251.043,233.8283 250.931,233.7093" id="Fill-99" fill="#EDB9A6" mask="url(#mask-2)"></path>
            <path d="M242.1088,225.1737 C241.6618,225.0217 241.2748,225.4267 241.0678,225.7777 C240.8268,226.1897 240.8278,226.6287 241.0028,227.0607 C241.1308,227.3807 241.5668,227.2197 241.6058,226.9347 C241.6388,226.6797 241.7228,226.4247 241.8678,226.2117 C241.9338,226.1147 242.0388,226.0317 242.1238,225.9507 C242.2568,225.8217 242.3118,225.6967 242.3448,225.5197 C242.3738,225.3687 242.2408,225.2187 242.1088,225.1737" id="Fill-100" fill="#EDB9A6" mask="url(#mask-2)"></path>
            <path d="M264.7079,232.7406 C261.8889,232.8246 262.2209,229.5896 262.2209,229.5896 L262.2639,229.3896 C262.7809,229.5116 263.7009,228.8976 264.2109,228.9636 C265.3529,229.1106 266.0789,229.8406 267.1769,229.7406 C267.0949,230.3566 266.6509,232.6836 264.7079,232.7406" id="Fill-101" fill="#EFCBB1" mask="url(#mask-2)"></path>
            <path d="M262.2157,230.1449 C262.2647,231.0649 262.6317,232.8029 264.7077,232.7409 C266.1697,232.6979 266.7827,231.3719 267.0317,230.4539 C265.4177,230.6329 263.7727,230.5239 262.2157,230.1449" id="Fill-102" fill="#EFCBB1" mask="url(#mask-2)"></path>
            <path d="M250.8536,242.4618 C250.7536,242.9468 250.6726,243.4218 250.6126,243.8788 L250.6096,243.8858 C250.1496,243.6388 249.9496,243.4218 249.9496,243.2728 C249.9496,242.7338 250.6066,242.5218 250.8536,242.4618" id="Fill-103" fill="#F3A22A" mask="url(#mask-2)"></path>
            <path d="M277.7084,241.8924 C279.5104,242.1774 280.1304,243.1784 278.5504,244.1074 C278.2814,243.4814 277.9994,242.7304 277.7084,241.8924" id="Fill-104" fill="#F3A22A" mask="url(#mask-2)"></path>
            <path d="M261.5636,258.9779 C258.3256,258.8399 255.5786,258.5179 253.2686,258.0449 C243.1376,255.9739 241.4016,251.0049 243.5636,246.0119 C245.7196,241.0369 251.0536,241.7849 251.0536,241.7849 L251.2356,241.8319 C251.0916,242.3859 250.9596,242.9299 250.8536,243.4619 C250.6066,243.5209 249.9496,243.7339 249.9496,244.2719 C249.9496,244.4219 250.1496,244.6389 250.6096,244.8859 C252.1986,245.7459 256.8826,246.9569 267.0856,246.8689 C273.5156,246.8159 277.0416,245.9969 278.5496,245.1079 C280.1296,244.1779 279.5106,243.1769 277.7086,242.8929 C277.5426,242.4039 277.3706,241.8879 277.1986,241.3499 L277.3956,241.2879 C277.3956,241.2879 281.9546,240.5399 284.7736,243.4429 C287.8956,246.6529 288.6626,255.1949 276.0246,258.0799 C273.6536,258.6209 270.8096,258.9619 267.4176,259.0309 C265.3086,259.0749 263.3596,259.0559 261.5636,258.9779" id="Fill-105" fill="#F97000" mask="url(#mask-2)"></path>
            <path d="M253.0656,235.2904 C254.7616,230.8944 256.6666,227.1864 256.6666,227.1864 L256.7516,227.0554 C257.0356,227.2374 257.3306,227.4124 257.6276,227.5754 C259.0946,228.3974 260.6906,229.0204 262.2646,229.3894 L262.2206,229.5894 C262.2206,229.5894 261.8886,232.8254 264.7076,232.7404 C266.6506,232.6844 267.0956,230.3564 267.1766,229.7404 C269.5136,229.5244 271.7226,228.7764 273.6626,227.6004 C273.6656,227.6004 273.6696,227.5964 273.6726,227.5964 C273.6906,227.5874 273.7096,227.5784 273.7316,227.5654 C274.0606,228.9294 274.8896,232.3154 275.8626,235.8224 C276.2906,237.3654 276.7476,238.9264 277.1986,240.3504 C277.3706,240.8884 277.5426,241.4044 277.7086,241.8924 C277.9996,242.7304 278.2806,243.4814 278.5496,244.1074 C277.0416,244.9964 273.5156,245.8164 267.0856,245.8694 C256.8826,245.9574 252.1986,244.7464 250.6096,243.8854 L250.6126,243.8794 C250.6726,243.4224 250.7536,242.9474 250.8536,242.4614 C250.9596,241.9304 251.0916,241.3854 251.2356,240.8314 C251.7136,239.0074 252.3716,237.0894 253.0656,235.2904" id="Fill-106" fill="#3C4A5E" mask="url(#mask-2)"></path>
            <path d="M277.7084,241.0082 C277.5424,240.4072 277.3704,239.7722 277.1984,239.1092 C276.7474,237.3572 276.2914,235.4352 275.8624,233.5372 C274.8894,229.2202 274.0604,225.0532 273.7314,223.3742 C273.7094,223.3902 273.6904,223.4012 273.6724,223.4132 C273.6694,223.4132 273.6664,223.4162 273.6624,223.4162 C273.4154,223.6012 273.1624,223.7772 272.9064,223.9452 C272.6954,224.2132 272.4814,224.4772 272.2674,224.7412 C270.6824,225.9612 268.8774,226.6762 267.0314,226.9282 C266.7824,228.0582 266.1694,229.6922 264.7084,229.7442 C262.6314,229.8202 262.2654,227.6822 262.2154,226.5492 C260.1084,225.9172 258.1624,224.6782 256.6754,222.8922 L256.6664,222.9082 C256.6664,222.9082 254.7614,227.4712 253.0654,232.8822 C252.3714,235.0962 251.7144,237.4572 251.2354,239.7022 C251.0914,240.3842 250.9594,241.0542 250.8534,241.7092 C250.7534,242.3062 250.6724,242.8912 250.6124,243.4532 L250.6094,243.4612 C250.6704,243.5022 250.7364,243.5432 250.8064,243.5842 C259.6534,243.1382 270.4564,248.8062 278.4054,243.3052 C278.1804,242.6282 277.9484,241.8572 277.7084,241.0082" id="Fill-107" fill="#99D9D9" mask="url(#mask-2)"></path>
            <path d="M253.6522,245.8431 C253.0542,245.2341 251.8602,245.1191 251.0802,244.8201 C250.6332,244.6491 250.2072,244.4051 249.8672,244.0671 C249.5212,243.7241 249.4922,243.2541 249.3452,242.8151 C249.1972,242.3701 248.5602,242.2291 248.3132,242.6791 C247.6572,243.8751 248.4802,245.0661 249.4562,245.7541 C249.9772,246.1211 250.6122,246.3471 251.2072,246.5601 C251.7732,246.7611 252.5372,247.1331 253.1432,247.0711 C253.7452,247.0101 254.1242,246.3241 253.6522,245.8431" id="Fill-110" fill="#FFFDEE" mask="url(#mask-2)"></path>
            <path d="M256.6053,246.4764 L256.5973,246.4424 C256.5403,246.1894 256.3143,245.9784 256.0683,245.9124 C255.7473,245.8274 255.4003,245.7354 255.0703,245.8134 C254.6563,245.9114 254.5473,246.3694 254.7053,246.7114 C254.8723,247.0774 255.3143,247.2474 255.6643,247.3754 C255.9223,247.4694 256.2123,247.3534 256.4023,247.1804 C256.4093,247.1734 256.4173,247.1674 256.4243,247.1604 C256.6133,246.9884 256.6593,246.7154 256.6053,246.4764" id="Fill-111" fill="#FFFDEE" mask="url(#mask-2)"></path>
            <path d="M281.4647,244.0199 C281.4037,243.8269 281.2317,243.7489 281.0407,243.7789 C280.4947,243.8679 280.1627,244.4059 279.7637,244.7489 C279.0097,245.3969 278.0347,245.8409 277.1197,246.2019 C275.4747,246.8509 273.8947,246.6949 272.2257,246.9839 C272.1247,247.0019 272.0817,247.1349 272.1317,247.2159 C273.0897,248.7799 276.1447,247.7879 277.4327,247.3369 C278.4877,246.9669 281.9587,245.5929 281.4647,244.0199" id="Fill-112" fill="#FFFDEE" mask="url(#mask-2)"></path>
            <path d="M256.7699,233.0834 C256.7549,233.0604 256.7399,233.0374 256.7259,233.0144 C256.4619,232.5794 255.8489,232.4884 255.4839,232.8544 C255.1029,233.2354 255.2279,233.8104 255.6439,234.0964 C255.6659,234.1124 255.6879,234.1274 255.7109,234.1414 C256.3579,234.5624 257.1859,233.7294 256.7699,233.0834" id="Fill-113" fill="#FFFFFF" mask="url(#mask-2)"></path>
            <path d="M257.2084,236.9481 C257.2074,236.9411 257.2084,236.9361 257.2064,236.9291 C257.1994,236.8921 257.1924,236.8551 257.1854,236.8181 C257.1184,236.4671 256.5454,236.4671 256.4784,236.8181 C256.4714,236.8551 256.4644,236.8921 256.4574,236.9291 C256.4564,236.9361 256.4564,236.9411 256.4554,236.9481 C256.4344,237.0331 256.4424,237.1071 256.4684,237.1691 C256.5224,237.3281 256.6764,237.3971 256.8324,237.3921 C256.9874,237.3971 257.1414,237.3281 257.1954,237.1691 C257.2214,237.1071 257.2294,237.0331 257.2084,236.9481" id="Fill-114" fill="#FFFFFF" mask="url(#mask-2)"></path>
            <path d="M259.5433,233.5858 C258.6123,233.5858 258.6123,235.0308 259.5433,235.0308 C260.4753,235.0308 260.4753,233.5858 259.5433,233.5858" id="Fill-115" fill="#FFFFFF" mask="url(#mask-2)"></path>
            <path d="M261.2123,239.1317 C260.8283,239.1317 260.5083,239.4517 260.5083,239.8357 C260.5083,240.2187 260.8283,240.5397 261.2123,240.5397 C261.5963,240.5397 261.9163,240.2187 261.9163,239.8357 C261.9163,239.4517 261.5963,239.1317 261.2123,239.1317" id="Fill-116" fill="#FFFFFF" mask="url(#mask-2)"></path>
            <path d="M255.0912,240.1214 C254.6262,240.1214 254.2372,240.5094 254.2372,240.9744 C254.2372,241.4394 254.6262,241.8284 255.0912,241.8284 C255.5562,241.8284 255.9452,241.4394 255.9452,240.9744 C255.9452,240.5094 255.5562,240.1214 255.0912,240.1214" id="Fill-117" fill="#FFFFFF" mask="url(#mask-2)"></path>
            <path d="M263.298,235.555 C262.485,235.555 262.485,236.816 263.298,236.816 C264.111,236.816 264.111,235.555 263.298,235.555" id="Fill-118" fill="#FFFFFF" mask="url(#mask-2)"></path>
            <path d="M259.2723,230.7401 C258.9253,230.7401 258.6343,231.0301 258.6343,231.3781 C258.6343,231.7251 258.9253,232.0151 259.2723,232.0151 C259.6203,232.0151 259.9103,231.7251 259.9103,231.3781 C259.9103,231.0301 259.6203,230.7401 259.2723,230.7401" id="Fill-119" fill="#FFFFFF" mask="url(#mask-2)"></path>
            <path d="M269.973,231.4813 C269.018,231.4813 269.018,232.9623 269.973,232.9623 C270.928,232.9623 270.928,231.4813 269.973,231.4813" id="Fill-120" fill="#FFFFFF" mask="url(#mask-2)"></path>
            <path d="M267.1571,233.4359 C266.7951,233.4359 266.4931,233.7379 266.4931,234.0999 C266.4931,234.4609 266.7951,234.7629 267.1571,234.7629 C267.5191,234.7629 267.8211,234.4609 267.8211,234.0999 C267.8211,233.7379 267.5191,233.4359 267.1571,233.4359" id="Fill-121" fill="#FFFFFF" mask="url(#mask-2)"></path>
            <path d="M266.7399,237.9237 C266.2659,237.9237 265.8709,238.3197 265.8709,238.7927 C265.8709,239.2667 266.2659,239.6617 266.7399,239.6617 C267.2139,239.6617 267.6089,239.2667 267.6089,238.7927 C267.6089,238.3197 267.2139,237.9237 266.7399,237.9237" id="Fill-122" fill="#FFFFFF" mask="url(#mask-2)"></path>
            <path d="M265.2101,242.7562 C265.2101,242.5272 265.1181,242.3032 264.9551,242.1412 C264.7231,241.9082 264.4221,241.8592 264.1101,241.9182 C263.8861,241.9602 263.7271,242.1082 263.5671,242.2562 C263.0411,242.7392 263.4291,243.7572 264.1671,243.7042 C264.3301,243.6932 264.4861,243.6782 264.6271,243.5852 C264.6491,243.5712 264.6681,243.5532 264.6891,243.5382 C264.9931,243.4032 265.2101,243.1242 265.2101,242.7562" id="Fill-123" fill="#FFFFFF" mask="url(#mask-2)"></path>
            <path d="M271.1732,236.8597 C271.1702,236.8557 271.1672,236.8437 271.1632,236.8297 C271.1472,236.7897 271.1282,236.7507 271.1052,236.7137 C271.1292,236.7517 271.1442,236.7797 271.1552,236.8037 C271.0552,236.3287 270.4702,236.1597 270.0802,236.3717 C270.0512,236.3877 270.0222,236.4067 269.9922,236.4217 C269.6862,236.5707 269.5022,237.0197 269.6182,237.3397 C269.6212,237.3477 269.6242,237.3557 269.6262,237.3627 C269.7242,237.6307 269.8992,237.8427 270.1852,237.9217 C270.4552,237.9957 270.7672,237.9207 270.9632,237.7157 L270.9782,237.6997 C271.1902,237.4777 271.2732,237.1477 271.1732,236.8597" id="Fill-124" fill="#FFFFFF" mask="url(#mask-2)"></path>
            <path d="M271.163,236.8294 C271.167,236.8394 271.17,236.8494 271.173,236.8594 C271.18,236.8714 271.179,236.8544 271.155,236.8044 C271.156,236.8054 271.157,236.8074 271.157,236.8094 C271.159,236.8194 271.161,236.8224 271.163,236.8294" id="Fill-125" fill="#FFFFFF" mask="url(#mask-2)"></path>
            <path d="M269.5558,241.3949 C269.2118,241.3949 268.9248,241.6819 268.9248,242.0259 C268.9248,242.3699 269.2118,242.6569 269.5558,242.6569 C269.8998,242.6569 270.1868,242.3699 270.1868,242.0259 C270.1868,241.6819 269.8998,241.3949 269.5558,241.3949" id="Fill-126" fill="#FFFFFF" mask="url(#mask-2)"></path>
            <path d="M274.3534,240.9793 C273.9534,240.9793 273.6204,241.3133 273.6204,241.7123 C273.6204,242.1123 273.9534,242.4463 274.3534,242.4463 C274.7534,242.4463 275.0864,242.1123 275.0864,241.7123 C275.0864,241.3133 274.7534,240.9793 274.3534,240.9793" id="Fill-127" fill="#FFFFFF" mask="url(#mask-2)"></path>
            <path d="M272.7906,233.5086 C272.3886,233.5086 272.0526,233.8436 272.0526,234.2456 C272.0526,234.6476 272.3886,234.9836 272.7906,234.9836 C273.1926,234.9836 273.5276,234.6476 273.5276,234.2456 C273.5276,233.8436 273.1926,233.5086 272.7906,233.5086" id="Fill-128" fill="#FFFFFF" mask="url(#mask-2)"></path>
            <path d="M258.8634,242.3783 C258.7494,242.2823 258.7254,242.2663 258.5844,242.2153 C258.5064,242.1883 258.4254,242.1883 258.3444,242.2003 C258.3374,242.2003 258.3304,242.2023 258.3234,242.2033 C258.2964,242.2083 258.2704,242.2103 258.2444,242.2183 C258.0704,242.2613 257.9094,242.3713 257.8224,242.5203 C257.6124,242.8783 257.8064,243.3523 258.2054,243.4623 C258.4924,243.5423 258.8244,243.4163 258.9624,243.1453 C259.0834,242.9063 259.0874,242.5673 258.8634,242.3783" id="Fill-129" fill="#FFFFFF" mask="url(#mask-2)"></path>
            <path d="M274.548,238.4168 C274.539,238.3828 274.53,238.3498 274.52,238.3158 C274.385,237.8928 273.9,237.6688 273.501,237.9018 C273.079,238.1488 273.022,238.8668 273.501,239.0988 C273.534,239.1148 273.565,239.1308 273.596,239.1478 C274.096,239.4238 274.692,238.9748 274.548,238.4168" id="Fill-130" fill="#FFFFFF" mask="url(#mask-2)"></path>
            <path d="M230.3109,198.8441 C230.3109,198.8441 223.3169,180.2311 237.5479,160.2371 C251.7789,140.2431 291.2619,139.3211 308.9019,167.7551 C326.5409,196.1891 303.9679,213.5761 303.9679,213.5761" id="Fill-131" fill="#B0814D" mask="url(#mask-2)"></path>
            <path d="M233.0009,188.9911 C229.4969,207.6821 243.0009,225.8981 263.1619,229.6781 C283.3239,233.4571 302.5079,221.3681 306.0119,202.6771 C309.5149,183.9861 296.0119,165.7701 275.8509,161.9911 C255.6889,158.2111 236.5049,170.3001 233.0009,188.9911" id="Fill-132" fill="#F2D5C1" mask="url(#mask-2)"></path>
            <path d="M243.6224,192.6141 C242.8064,196.9671 245.6734,201.1561 250.0264,201.9721 C254.3784,202.7881 258.5684,199.9211 259.3834,195.5691 C260.1994,191.2161 257.3324,187.0261 252.9804,186.2111 C248.6284,185.3951 244.4384,188.2611 243.6224,192.6141" id="Fill-133" fill="#FFFFFF" mask="url(#mask-2)"></path>
            <path d="M244.2457,192.7308 C243.5997,196.1768 245.8697,199.4938 249.3157,200.1388 C252.7607,200.7848 256.0777,198.5158 256.7237,195.0698 C257.3697,191.6248 255.0997,188.3078 251.6537,187.6618 C248.2087,187.0158 244.8917,189.2848 244.2457,192.7308" id="Fill-134" fill="#373026" mask="url(#mask-2)"></path>
            <path d="M278.8112,199.2103 C277.9952,203.5633 280.8622,207.7523 285.2142,208.5683 C289.5672,209.3843 293.7572,206.5173 294.5722,202.1653 C295.3882,197.8123 292.5212,193.6233 288.1692,192.8073 C283.8172,191.9913 279.6272,194.8573 278.8112,199.2103" id="Fill-135" fill="#FFFFFF" mask="url(#mask-2)"></path>
            <path d="M279.4344,199.327 C278.7884,202.773 281.0584,206.09 284.5034,206.736 C287.9494,207.381 291.2664,205.112 291.9124,201.666 C292.5584,198.221 290.2884,194.904 286.8424,194.258 C283.3974,193.612 280.0804,195.882 279.4344,199.327" id="Fill-136" fill="#373026" mask="url(#mask-2)"></path>
            <path d="M245.2721,202.0238 C245.6681,200.8258 244.3941,199.1328 242.4241,198.2438 C240.4551,197.3538 238.5371,197.6038 238.1411,198.8008 C237.7451,199.9988 239.0201,201.6918 240.9891,202.5818 C242.9581,203.4718 244.8761,203.2218 245.2721,202.0238" id="Fill-137" fill="#F1B081" mask="url(#mask-2)"></path>
            <path d="M233.7982,189.8251 C233.7982,189.8251 229.4992,186.1361 226.9212,190.4211 C224.3432,194.7071 227.7542,200.8461 234.1282,201.6751 L233.7982,189.8251 Z" id="Fill-138" fill="#F2D5C1" mask="url(#mask-2)"></path>
            <path d="M304.2889,203.0389 C304.2889,203.0389 309.6329,201.1569 310.4839,206.0859 C311.3339,211.0139 305.9309,215.4999 299.6899,213.9649 L304.2889,203.0389 Z" id="Fill-139" fill="#F2D5C1" mask="url(#mask-2)"></path>
            <path d="M252.1793,160.4823 C252.1793,160.4823 248.5783,177.2703 263.4813,177.2893 C277.0153,177.2053 274.7773,166.5743 274.7773,166.5743 C274.7773,166.5743 284.8893,179.6063 297.8643,171.2473 C310.8383,162.8883 280.7323,145.1343 252.1793,160.4823" id="Fill-140" fill="#B0814D" mask="url(#mask-2)"></path>
            <path d="M265.422,215.4095 C265.188,215.3655 264.956,215.3095 264.727,215.2415 C260.872,214.0985 259.294,210.0075 259.229,209.8335 C259.154,209.6375 259.255,209.4165 259.452,209.3435 C259.649,209.2675 259.869,209.3685 259.943,209.5645 C259.958,209.6035 261.46,213.4795 264.949,214.5115 C267.413,215.2325 270.291,214.4095 273.505,212.0435 C273.675,211.9205 273.914,211.9555 274.039,212.1255 C274.163,212.2945 274.127,212.5335 273.958,212.6585 C270.828,214.9625 267.961,215.8855 265.422,215.4095" id="Fill-141" fill="#EDB9A6" mask="url(#mask-2)"></path>
            <path d="M273.4445,147.6986 C273.4445,147.6986 266.2025,144.0536 270.9255,140.1456 C275.6495,136.2386 277.0945,143.9166 277.0945,143.9166 C277.0945,143.9166 279.5205,137.5086 284.3955,141.7996 C289.2705,146.0906 279.9565,148.9196 279.9565,148.9196" id="Fill-142" fill="#B0814D" mask="url(#mask-2)"></path>
            <path d="M231.3207,194.3109 C231.5797,193.8629 231.9067,193.8419 232.2007,193.9669 C232.2147,192.7999 232.2757,192.0809 232.2757,192.0809 C232.2627,192.0609 232.2497,192.0429 232.2367,192.0249 C230.9727,190.2549 228.1327,191.4349 228.4137,193.5909 C228.6307,195.2599 230.1067,196.5779 232.3157,197.5429 C232.2677,196.9149 232.2377,196.3189 232.2197,195.7659 C231.6237,195.4609 230.9497,194.9529 231.3207,194.3109" id="Fill-143" fill="#EDB9A6" mask="url(#mask-2)"></path>
            <path d="M305.2994,208.1786 C305.2204,207.6676 304.9224,207.5296 304.6034,207.5396 C305.0134,206.4466 305.2174,205.7536 305.2174,205.7536 C305.2364,205.7406 305.2544,205.7286 305.2734,205.7166 C307.0924,204.5236 309.3124,206.6526 308.2694,208.5606 C307.4634,210.0376 305.6104,210.7316 303.2014,210.8306 C303.4744,210.2626 303.7174,209.7186 303.9344,209.2096 C304.6004,209.1416 305.4124,208.9116 305.2994,208.1786" id="Fill-144" fill="#EDB9A6" mask="url(#mask-2)"></path>
            <path d="M307.0834,165.0121 C301.5824,166.6441 296.5124,165.5201 292.6304,161.1801 C283.5614,151.0411 273.8704,148.3071 262.7294,150.5751 C258.3814,151.4611 255.8404,150.0971 254.3524,148.1961 C247.7804,150.4671 242.1204,154.2851 238.1534,159.4761 C242.3704,162.0011 247.0814,162.9891 251.8834,162.9071 C259.7294,162.7721 265.0934,159.5111 272.4754,161.5131 C279.8754,163.5211 282.8824,169.9171 291.2424,173.8721 C292.7504,173.6391 294.3274,173.1491 295.9584,172.3381 C297.2564,173.6051 298.4534,174.9551 299.5374,176.3801 C303.9044,176.9681 308.3374,176.3811 312.2914,174.0931 C310.8774,170.9081 309.0014,167.6791 307.0834,165.0121" id="Fill-145" fill="#FFFFFF" opacity="0.285388765" mask="url(#mask-2)"></path>
            <path d="M246.8036,189.1522 C247.1056,187.5392 248.6586,186.4762 250.2726,186.7782 C251.8856,187.0812 252.9486,188.6342 252.6466,190.2472 C252.3436,191.8602 250.7906,192.9232 249.1776,192.6212 C247.5636,192.3192 246.5016,190.7652 246.8036,189.1522" id="Fill-146" fill="#FFFFFF" mask="url(#mask-2)"></path>
            <path d="M282.1205,195.7723 C282.4225,194.1593 283.9755,193.0963 285.5895,193.3983 C287.2025,193.7013 288.2655,195.2543 287.9635,196.8683 C287.6605,198.4813 286.1075,199.5433 284.4945,199.2413 C282.8805,198.9393 281.8185,197.3863 282.1205,195.7723" id="Fill-147" fill="#FFFFFF" mask="url(#mask-2)"></path>
            <path d="M244.9889,228.1439 C244.9119,228.9679 248.4039,240.3949 263.4459,242.6379 L263.4879,242.6389 C263.4759,238.9989 263.3569,235.5159 263.3039,234.1139 C260.0699,233.5569 255.5099,232.5829 251.2109,229.7199 C251.2109,229.7199 251.3069,227.0699 250.6159,227.1759 C249.9209,227.2839 249.7099,228.5329 249.7099,228.5329 C249.7099,228.5329 248.4279,225.4869 247.9319,225.5609 C247.4399,225.6379 247.9879,227.8859 247.9879,227.8859 C247.9879,227.8859 246.3049,225.5089 245.9029,226.1809 C245.4969,226.8509 246.7409,228.9899 246.7409,228.9899 C246.7409,228.9899 245.0639,227.3229 244.9889,228.1439" id="Fill-148" fill="#F2D5C1" mask="url(#mask-2)"></path>
            <path d="M253.6105,232.5467 C253.6885,232.4377 253.8005,232.4107 253.9215,232.4647 C254.0795,232.5357 254.1985,232.6897 254.3265,232.8087 C254.3375,232.8177 254.4225,232.8897 254.4355,232.9007 C254.4055,232.8737 254.5145,232.9537 254.5285,232.9637 C254.6145,233.0247 254.7045,233.0757 254.7985,233.1227 C255.0755,233.2577 254.9445,233.7197 254.6415,233.7027 C254.3345,233.6857 254.0455,233.6207 253.8095,233.4117 C253.5865,233.2137 253.4145,232.8217 253.6105,232.5467" id="Fill-149" fill="#EDB9A6" mask="url(#mask-2)"></path>
            <path d="M301.0844,201.8001 C299.8424,205.4681 297.6934,210.1961 293.9344,211.6431 C288.9424,213.5651 284.0934,213.5501 279.3014,210.9971 C274.9794,208.6931 273.6274,203.4421 273.7224,198.9041 C273.7504,197.5371 274.0414,196.1891 274.3484,194.8561 C273.6194,194.5551 272.8904,194.2551 272.1614,193.9541 C272.4514,192.9101 272.8624,191.9001 273.3834,190.9501 C273.4844,190.7661 273.5994,190.5741 273.7844,190.4761 C273.9664,190.3801 274.1844,190.3911 274.3894,190.4061 C277.5964,190.6401 280.8874,191.1751 284.0474,191.7831 C287.6714,192.4821 291.2524,193.4331 294.7354,194.6561 C296.4434,195.2561 298.1284,195.9221 299.7784,196.6681 C300.7504,197.1071 303.6684,197.9111 304.1344,198.8551 C304.0834,199.4591 304.0324,200.0641 303.9814,200.6681 C303.9584,200.9361 303.9264,201.2261 303.7404,201.4221 C303.4764,201.7011 303.0204,201.6631 302.6564,201.5351 C301.8714,201.2581 301.3984,200.8731 301.0844,201.8001" id="Fill-150" fill="#512233" mask="url(#mask-2)"></path>
            <path d="M257.4904,200.681 C258.0314,199.798 258.4754,198.854 258.8344,197.884 C259.0204,197.38 260.3894,193.281 259.9484,193.035 C260.5214,193.355 261.2804,193.042 261.6744,192.517 C262.0684,191.993 262.1884,191.319 262.2964,190.672 C262.4054,190.02 262.5144,189.368 262.6234,188.716 C262.640674,188.614 262.6564,188.503 262.6114,188.409 C262.5544,188.29 262.4194,188.235 262.2954,188.191 C259.4734,187.192 256.4554,186.865 253.5244,186.329 C250.3544,185.749 247.1424,185.396 243.9224,185.271 C241.0814,185.161 238.1744,185.161 235.3584,185.529 C235.0004,185.575 234.6144,185.635 234.3604,185.892 C234.1674,186.086 234.0854,186.361 234.0124,186.625 C233.9004,187.034 233.7964,187.445 233.7004,187.858 C233.6294,188.163 233.5644,188.491 233.6784,188.783 C234.1514,190.003 235.5864,189.119 235.6884,190.671 C235.7714,191.94 235.6774,193.222 235.7714,194.494 C235.9464,196.869 236.4104,199.439 238.0274,201.289 C240.2734,203.86 243.5254,205.587 246.9614,205.973 C250.6994,206.392 253.7254,205.285 256.2164,202.425 C256.6904,201.881 257.1144,201.296 257.4904,200.681" id="Fill-151" fill="#512233" mask="url(#mask-2)"></path>
            <path d="M256.7687,191.1068 C264.1107,191.5028 271.2017,192.8438 278.1867,195.1228 C279.3257,195.4938 279.7797,193.6938 278.6477,193.3248 C271.5087,190.9958 264.2287,189.6538 256.7357,189.2508 C255.5407,189.1868 255.5787,191.0428 256.7687,191.1068" id="Fill-152" fill="#512233" mask="url(#mask-2)"></path>
        </g>
    </g>
</svg>