<?xml version="1.0" encoding="UTF-8"?>
<svg width="114px" height="37px" viewBox="0 0 114 37" version="1.1" xmlns="http://www.w3.org/2000/svg" xmlns:xlink="http://www.w3.org/1999/xlink">
    <!-- Generator: Sketch 55.2 (78181) - https://sketchapp.com -->
    <title>Group 19black_okay</title>
    <desc>Created with Sketch.</desc>
    <g id="Page-1" stroke="none" stroke-width="1" fill="none" fill-rule="evenodd">
        <g id="Group-19" transform="translate(0.666900, 0.674900)">
            <g id="Group-17">
                <path d="M94.401,36.309 L18.082,36.309 C8.096,36.309 -2.84217094e-14,28.213 -2.84217094e-14,18.228 L-2.84217094e-14,18.081 C-2.84217094e-14,8.095 8.096,-1.42108547e-14 18.082,-1.42108547e-14 L94.401,-1.42108547e-14 C104.387,-1.42108547e-14 112.482,8.095 112.482,18.081 L112.482,18.228 C112.482,28.213 104.387,36.309 94.401,36.309" id="Fill-96" fill="#000000"></path>
                <path d="M45.4772,13.0121 C43.7532,13.0121 42.8302,14.6271 42.8302,16.9751 C42.8302,18.6891 43.4322,21.4441 45.7152,21.4441 C47.5502,21.4441 48.2642,19.6451 48.2642,17.3671 C48.2642,14.9651 47.2132,13.0121 45.4772,13.0121 M50.5052,17.1861 C50.5052,20.2481 48.4602,22.0901 45.4492,22.0901 C42.6332,22.0901 40.5882,20.2351 40.5882,17.2971 C40.5882,14.5151 42.6622,12.3661 45.5882,12.3661 C48.5022,12.3661 50.5052,14.3321 50.5052,17.1861" id="Fill-98" fill="#FFFFFF"></path>
                <path d="M52.3209,14.0511 C52.3209,13.4891 52.3209,13.3341 52.0409,13.1661 L51.8019,13.0261 C51.7049,12.9421 51.7049,12.6881 51.8019,12.6041 C52.3779,12.4631 53.2309,12.1261 53.9459,11.8171 C54.0299,11.8171 54.1279,11.8451 54.1839,11.9151 C54.1559,12.4911 54.1419,13.0821 54.1419,13.9671 L54.1419,18.3791 C54.1419,18.5341 54.1839,18.5761 54.3389,18.5761 C54.5759,18.5761 54.8709,18.5061 55.1509,18.1831 L55.7389,17.4941 C56.0059,17.1711 56.0749,17.0161 56.0749,16.9321 C56.0749,16.8621 55.9349,16.8061 55.8089,16.7911 L55.4589,16.7361 C55.3329,16.6101 55.3459,16.3001 55.4869,16.2441 L55.8229,16.2441 C56.4809,16.2441 57.6439,16.1741 58.4699,16.0471 C58.6099,16.1171 58.6249,16.4261 58.5259,16.5391 L58.0779,16.6371 C57.8119,16.6941 57.5179,16.8341 57.1389,17.1291 C56.6069,17.5361 56.3969,17.7471 56.2009,17.9441 C56.1319,18.0291 56.1169,18.0841 56.1169,18.1271 C56.1169,18.1691 56.1449,18.2531 56.2159,18.3651 C56.4669,18.8151 57.6999,20.7271 58.0499,21.0501 C58.2469,21.2331 58.5119,21.3031 58.8769,21.3731 L59.0869,21.4151 C59.1989,21.5141 59.1709,21.8511 59.0309,21.9061 C58.5959,21.8791 58.0779,21.8651 57.2649,21.8651 C56.4389,21.8651 55.9349,21.8791 55.5429,21.9061 C55.4029,21.8361 55.3749,21.5411 55.4869,21.4151 L55.6689,21.3731 C55.8089,21.3451 55.8929,21.3171 55.8929,21.2601 C55.8929,21.2041 55.7669,20.9801 55.6549,20.8111 L54.6609,19.2931 C54.5619,19.1391 54.4499,19.0821 54.3099,19.0821 C54.2129,19.0821 54.1419,19.1531 54.1419,19.4201 L54.1419,20.2351 C54.1419,21.2191 54.1979,21.3301 54.6879,21.3871 L54.9129,21.4151 C55.0239,21.5001 55.0239,21.8221 54.8979,21.9061 C54.4499,21.8791 53.8619,21.8651 53.2169,21.8651 C52.5729,21.8651 51.9989,21.8791 51.5089,21.9061 C51.3829,21.8221 51.3829,21.5001 51.4949,21.4151 L51.7599,21.3871 C52.2649,21.3301 52.3209,21.2191 52.3209,20.2351 L52.3209,14.0511 Z" id="Fill-100" fill="#FFFFFF"></path>
                <path d="M62.4996,19.5746 C62.5146,19.3496 62.4996,19.3066 62.4016,19.3216 C61.7706,19.4056 61.2256,19.6446 61.2256,20.3046 C61.2256,20.7546 61.5476,21.1486 61.9396,21.1486 C62.3736,21.1486 62.4576,20.8946 62.4726,20.4596 L62.4996,19.5746 Z M64.1816,19.9396 C64.1246,20.8946 64.5306,21.1486 64.8116,21.1486 C64.9786,21.1486 65.1196,21.1056 65.3436,20.9796 C65.4696,21.0086 65.5536,21.1766 65.5116,21.3036 C65.3436,21.5276 64.6856,22.0616 63.8866,22.0616 C63.3956,22.0616 63.0886,21.8926 62.7096,21.5706 C62.6116,21.4856 62.5566,21.4576 62.4856,21.4576 C62.4156,21.4576 62.3316,21.5136 62.1916,21.6116 C61.9396,21.7956 61.5196,22.0616 61.0006,22.0616 C60.1886,22.0616 59.4326,21.5706 59.4326,20.5866 C59.4326,19.8696 59.8666,19.4336 60.8896,19.1256 C61.4216,18.9556 61.8126,18.8446 62.2056,18.7306 C62.4576,18.6606 62.5276,18.5626 62.5416,18.4496 C62.5566,18.2956 62.5696,18.1406 62.5696,17.9726 C62.5696,17.4376 62.3596,16.7636 61.7576,16.7636 C61.4216,16.7636 61.1276,16.9606 61.0286,17.5646 C61.0006,17.7896 60.9166,17.9166 60.7906,18.0136 C60.5806,18.1696 60.0346,18.3386 59.7826,18.3386 C59.5446,18.3386 59.4606,18.1826 59.4606,17.9866 C59.4606,17.6216 59.7966,17.1716 60.1326,16.9046 C60.6086,16.5246 61.4916,16.0476 62.4856,16.0476 C63.6626,16.0476 64.3496,16.6366 64.2786,18.0846 L64.1816,19.9396 Z" id="Fill-102" fill="#FFFFFF"></path>
                <path d="M65.3824,16.6937 C65.2844,16.5947 65.2844,16.2577 65.4244,16.2017 C65.9284,16.2297 66.5304,16.2447 67.2734,16.2447 C67.7914,16.2447 68.3234,16.2297 68.8424,16.2017 C68.9824,16.2577 68.9964,16.5947 68.8844,16.6937 L68.6044,16.7507 C68.2114,16.8347 68.1844,16.8897 68.1844,17.0157 C68.1844,17.1857 68.3374,17.5507 68.6044,18.2677 C68.7584,18.6607 69.0664,19.5177 69.2344,19.8697 C69.3884,19.5747 69.5284,19.2517 69.6684,18.9417 L69.9204,18.3657 C70.2154,17.6917 70.4394,17.1007 70.4394,16.9467 C70.4394,16.8477 70.2994,16.7777 70.1304,16.7507 L69.8514,16.6937 C69.7254,16.5947 69.7384,16.2447 69.8934,16.2017 C70.2004,16.2297 70.6214,16.2447 71.2514,16.2447 C71.6154,16.2447 71.9804,16.2297 72.3444,16.2017 C72.4844,16.2577 72.4984,16.6097 72.3714,16.6937 L72.1064,16.7207 C71.8254,16.7507 71.5874,16.8617 71.4614,17.0307 C71.2934,17.2557 70.9434,17.8597 70.6354,18.5057 L69.8934,20.0377 L67.7634,24.4647 C67.4694,25.0977 67.0774,25.3787 66.5594,25.3927 C65.8024,25.4067 65.6624,24.9277 65.6624,24.5487 C65.6624,24.1277 65.9704,23.8187 66.4604,23.8187 L66.7974,23.8187 C67.1334,23.8187 67.3434,23.7057 67.4834,23.5237 C67.6374,23.3127 67.7494,23.0457 67.8894,22.7507 C67.9744,22.5827 68.0854,22.3287 68.0854,22.1607 C68.0854,21.9767 68.0434,21.7107 67.8204,21.1337 L66.4754,17.7327 C66.2084,17.0587 66.0824,16.8057 65.6344,16.7357 L65.3824,16.6937 Z" id="Fill-104" fill="#FFFFFF"></path>
            </g>
        </g>
    </g>
</svg>