<?xml version="1.0" encoding="UTF-8"?>
<svg width="44px" height="44px" viewBox="0 0 44 44" version="1.1" xmlns="http://www.w3.org/2000/svg" xmlns:xlink="http://www.w3.org/1999/xlink">
    <!-- Generator: Sketch 55.2 (78181) - https://sketchapp.com -->
    <title>Group 3subtract</title>
    <desc>Created with Sketch.</desc>
    <g id="Page-1" stroke="none" stroke-width="1" fill="none" fill-rule="evenodd">
        <g id="Artboard" transform="translate(-65.000000, -232.000000)" fill="#FFFFFF">
            <g id="Group-3" transform="translate(65.060700, 232.495500)">
                <path d="M21.692,40.025 C11.583,40.025 3.36,31.801 3.36,21.693 C3.36,11.584 11.583,3.361 21.692,3.361 C31.8,3.361 40.024,11.584 40.024,21.693 C40.024,31.801 31.8,40.025 21.692,40.025 M21.692,0 C9.732,0 0,9.731 0,21.693 C0,33.655 9.732,43.385 21.692,43.385 C33.654,43.385 43.384,33.655 43.384,21.693 C43.384,9.731 33.652,0 21.692,0" id="Fill-834"></path>
                <path d="M30.0934,19.8614 L13.2904,19.8614 C12.3634,19.8614 11.6104,20.6134 11.6104,21.5414 C11.6104,22.4694 12.3634,23.2214 13.2904,23.2214 L30.0934,23.2214 C31.0214,23.2214 31.7734,22.4694 31.7734,21.5414 C31.7734,20.6134 31.0214,19.8614 30.0934,19.8614" id="Fill-836"></path>
            </g>
        </g>
    </g>
</svg>