<?xml version="1.0" encoding="UTF-8"?>
<svg width="44px" height="44px" viewBox="0 0 44 44" version="1.1" xmlns="http://www.w3.org/2000/svg" xmlns:xlink="http://www.w3.org/1999/xlink">
    <!-- Generator: Sketch 55.2 (78181) - https://sketchapp.com -->
    <title>Group 2multiply</title>
    <desc>Created with Sketch.</desc>
    <g id="Page-1" stroke="none" stroke-width="1" fill="none" fill-rule="evenodd">
        <g id="Artboard" transform="translate(-65.000000, -171.000000)" fill="#FFFFFF">
            <g id="Group-2" transform="translate(65.206850, 171.797400)">
                <path d="M8.34225002,34.7485 C1.06225002,27.4685 1.06225002,15.6215 8.34225002,8.3415 C15.62225,1.0605 27.46925,1.0605 34.74925,8.3415 C42.03025,15.6215 42.03025,27.4685 34.74925,34.7485 C27.46925,42.0285 15.62225,42.0285 8.34225002,34.7485 M36.78025,6.3105 C28.36725,-2.1035 14.72425,-2.1035 6.31125002,6.3105 C-2.10474998,14.7265 -2.10274998,28.3665 6.31125002,36.7805 C14.72625,45.1955 28.36525,45.1955 36.78025,36.7805 C45.19525,28.3665 45.19625,14.7255 36.78025,6.3105" id="Fill-822"></path>
                <path d="M30.68695,28.6547 L23.57695,21.5447 L30.68695,14.4357 C31.24795,13.8747 31.24595,12.9627 30.68695,12.4047 C30.12595,11.8427 29.21595,11.8427 28.65595,12.4047 L21.54595,19.5137 L14.43595,12.4047 C13.87495,11.8427 12.96495,11.8427 12.40495,12.4047 C11.84595,12.9627 11.84395,13.8747 12.40495,14.4357 L19.51495,21.5447 L12.40495,28.6547 C11.84595,29.2137 11.84395,30.1257 12.40495,30.6857 C12.96295,31.2447 13.87695,31.2447 14.43595,30.6857 L21.54595,23.5757 L28.65595,30.6857 C29.21395,31.2447 30.12795,31.2447 30.68695,30.6857 C31.24795,30.1257 31.24595,29.2137 30.68695,28.6547" id="Fill-824"></path>
            </g>
        </g>
    </g>
</svg>