<?xml version="1.0" encoding="UTF-8"?>
<svg width="44px" height="44px" viewBox="0 0 44 44" version="1.1" xmlns="http://www.w3.org/2000/svg" xmlns:xlink="http://www.w3.org/1999/xlink">
    <!-- Generator: Sketch 55.2 (78181) - https://sketchapp.com -->
    <title>Groupadd</title>
    <desc>Created with Sketch.</desc>
    <g id="Page-1" stroke="none" stroke-width="1" fill="none" fill-rule="evenodd">
        <g id="Artboard" transform="translate(-65.000000, -106.000000)" fill="#FFFFFF">
            <g id="Group" transform="translate(65.207700, 106.072000)">
                <path d="M21.545,40.219 C11.249,40.219 2.872,31.842 2.872,21.546 C2.872,11.25 11.249,2.873 21.545,2.873 C31.841,2.873 40.218,11.25 40.218,21.546 C40.218,31.842 31.841,40.219 21.545,40.219 M21.545,0 C9.646,0 0,9.647 0,21.546 C0,33.448 9.646,43.092 21.545,43.092 C33.447,43.092 43.09,33.448 43.09,21.546 C43.09,9.647 33.447,0 21.545,0" id="Fill-818"></path>
                <path d="M33.0357,20.1096 L22.9817,20.1096 L22.9817,10.0546 C22.9817,9.2616 22.3347,8.6186 21.5447,8.6186 C20.7517,8.6186 20.1087,9.2616 20.1087,10.0546 L20.1087,20.1096 L10.0537,20.1096 C9.2617,20.1096 8.6177,20.7536 8.6177,21.5466 C8.6177,22.3366 9.2617,22.9826 10.0537,22.9826 L20.1087,22.9826 L20.1087,33.0366 C20.1087,33.8266 20.7517,34.4736 21.5447,34.4736 C22.3347,34.4736 22.9817,33.8266 22.9817,33.0366 L22.9817,22.9826 L33.0357,22.9826 C33.8257,22.9826 34.4727,22.3366 34.4727,21.5466 C34.4727,20.7536 33.8257,20.1096 33.0357,20.1096" id="Fill-820"></path>
            </g>
        </g>
    </g>
</svg>