<?xml version="1.0" encoding="UTF-8"?>
<svg width="113px" height="37px" viewBox="0 0 113 37" version="1.1" xmlns="http://www.w3.org/2000/svg" xmlns:xlink="http://www.w3.org/1999/xlink">
    <!-- Generator: Sketch 55.2 (78181) - https://sketchapp.com -->
    <title>Group 18white_okay</title>
    <desc>Created with Sketch.</desc>
    <g id="Page-1" stroke="none" stroke-width="1" fill="none" fill-rule="evenodd">
        <g id="Group-18">
            <g id="Group-10">
                <path d="M94.401,36.31 L18.082,36.31 C8.096,36.31 -2.84217094e-14,28.214 -2.84217094e-14,18.228 L-2.84217094e-14,18.082 C-2.84217094e-14,8.096 8.096,-2.84217094e-14 18.082,-2.84217094e-14 L94.401,-2.84217094e-14 C104.387,-2.84217094e-14 112.483,8.096 112.483,18.082 L112.483,18.228 C112.483,28.214 104.387,36.31 94.401,36.31" id="Fill-2" fill="#FFFFFF"></path>
                <path d="M45.4777,13.0122 C43.7537,13.0122 42.8307,14.6282 42.8307,16.9752 C42.8307,18.6902 43.4327,21.4442 45.7157,21.4442 C47.5507,21.4442 48.2647,19.6452 48.2647,17.3682 C48.2647,14.9652 47.2137,13.0122 45.4777,13.0122 M50.5057,17.1862 C50.5057,20.2492 48.4607,22.0902 45.4497,22.0902 C42.6337,22.0902 40.5887,20.2352 40.5887,17.2982 C40.5887,14.5162 42.6627,12.3662 45.5887,12.3662 C48.5027,12.3662 50.5057,14.3322 50.5057,17.1862" id="Fill-4" fill="#000000"></path>
                <path d="M52.3205,14.0522 C52.3205,13.4902 52.3205,13.3352 52.0405,13.1662 L51.8015,13.0262 C51.7045,12.9422 51.7045,12.6892 51.8015,12.6042 C52.3765,12.4632 53.2305,12.1272 53.9455,11.8172 C54.0295,11.8172 54.1275,11.8462 54.1835,11.9162 C54.1555,12.4922 54.1415,13.0822 54.1415,13.9672 L54.1415,18.3802 C54.1415,18.5352 54.1835,18.5762 54.3385,18.5762 C54.5755,18.5762 54.8705,18.5062 55.1505,18.1842 L55.7385,17.4942 C56.0055,17.1722 56.0745,17.0172 56.0745,16.9332 C56.0745,16.8632 55.9345,16.8072 55.8085,16.7922 L55.4585,16.7372 C55.3325,16.6102 55.3455,16.3012 55.4865,16.2442 L55.8225,16.2442 C56.4805,16.2442 57.6435,16.1742 58.4695,16.0472 C58.6095,16.1172 58.6245,16.4272 58.5255,16.5392 L58.0775,16.6372 C57.8115,16.6942 57.5175,16.8342 57.1385,17.1292 C56.6065,17.5372 56.3965,17.7482 56.2005,17.9452 C56.1315,18.0302 56.1165,18.0852 56.1165,18.1272 C56.1165,18.1702 56.1445,18.2542 56.2155,18.3652 C56.4665,18.8162 57.6995,20.7272 58.0495,21.0512 C58.2465,21.2332 58.5115,21.3032 58.8765,21.3732 L59.0865,21.4162 C59.1985,21.5142 59.1705,21.8522 59.0305,21.9072 C58.5955,21.8792 58.0775,21.8652 57.2645,21.8652 C56.4385,21.8652 55.9345,21.8792 55.5425,21.9072 C55.4025,21.8372 55.3745,21.5422 55.4865,21.4162 L55.6685,21.3732 C55.8085,21.3462 55.8925,21.3182 55.8925,21.2612 C55.8925,21.2052 55.7665,20.9812 55.6545,20.8112 L54.6605,19.2932 C54.5615,19.1392 54.4495,19.0822 54.3095,19.0822 C54.2125,19.0822 54.1415,19.1532 54.1415,19.4202 L54.1415,20.2352 C54.1415,21.2192 54.1975,21.3312 54.6875,21.3872 L54.9125,21.4162 C55.0235,21.5002 55.0235,21.8232 54.8975,21.9072 C54.4495,21.8792 53.8615,21.8652 53.2165,21.8652 C52.5725,21.8652 51.9985,21.8792 51.5085,21.9072 C51.3825,21.8232 51.3825,21.5002 51.4945,21.4162 L51.7595,21.3872 C52.2645,21.3312 52.3205,21.2192 52.3205,20.2352 L52.3205,14.0522 Z" id="Fill-6" fill="#000000"></path>
                <path d="M62.5002,19.5747 C62.5152,19.3497 62.5002,19.3077 62.4022,19.3227 C61.7712,19.4067 61.2262,19.6447 61.2262,20.3047 C61.2262,20.7557 61.5482,21.1487 61.9402,21.1487 C62.3742,21.1487 62.4582,20.8957 62.4732,20.4607 L62.5002,19.5747 Z M64.1822,19.9397 C64.1252,20.8957 64.5312,21.1487 64.8122,21.1487 C64.9792,21.1487 65.1202,21.1067 65.3442,20.9807 C65.4702,21.0087 65.5542,21.1777 65.5122,21.3037 C65.3442,21.5277 64.6862,22.0627 63.8872,22.0627 C63.3962,22.0627 63.0892,21.8937 62.7102,21.5707 C62.6122,21.4867 62.5572,21.4577 62.4862,21.4577 C62.4162,21.4577 62.3322,21.5137 62.1922,21.6127 C61.9402,21.7957 61.5202,22.0627 61.0012,22.0627 C60.1892,22.0627 59.4332,21.5707 59.4332,20.5867 C59.4332,19.8697 59.8672,19.4337 60.8902,19.1257 C61.4222,18.9567 61.8132,18.8447 62.2062,18.7317 C62.4582,18.6617 62.5282,18.5627 62.5422,18.4507 C62.5572,18.2967 62.5702,18.1407 62.5702,17.9727 C62.5702,17.4387 62.3602,16.7637 61.7582,16.7637 C61.4222,16.7637 61.1282,16.9617 61.0292,17.5647 C61.0012,17.7897 60.9172,17.9167 60.7912,18.0147 C60.5812,18.1707 60.0352,18.3387 59.7832,18.3387 C59.5452,18.3387 59.4612,18.1837 59.4612,17.9867 C59.4612,17.6217 59.7972,17.1727 60.1332,16.9047 C60.6092,16.5257 61.4922,16.0477 62.4862,16.0477 C63.6632,16.0477 64.3502,16.6367 64.2792,18.0857 L64.1822,19.9397 Z" id="Fill-8" fill="#000000"></path>
                <path d="M65.382,16.6938 C65.284,16.5958 65.284,16.2578 65.424,16.2018 C65.928,16.2308 66.53,16.2448 67.273,16.2448 C67.791,16.2448 68.323,16.2308 68.842,16.2018 C68.982,16.2578 68.996,16.5958 68.884,16.6938 L68.604,16.7508 C68.211,16.8348 68.184,16.8908 68.184,17.0168 C68.184,17.1858 68.337,17.5508 68.604,18.2678 C68.758,18.6618 69.066,19.5188 69.234,19.8698 C69.388,19.5748 69.528,19.2528 69.668,18.9428 L69.92,18.3658 C70.215,17.6918 70.439,17.1018 70.439,16.9478 C70.439,16.8478 70.299,16.7778 70.13,16.7508 L69.851,16.6938 C69.724,16.5958 69.738,16.2448 69.893,16.2018 C70.2,16.2308 70.62,16.2448 71.251,16.2448 C71.615,16.2448 71.98,16.2308 72.344,16.2018 C72.484,16.2578 72.498,16.6098 72.371,16.6938 L72.106,16.7218 C71.825,16.7508 71.587,16.8628 71.461,17.0318 C71.293,17.2558 70.943,17.8598 70.635,18.5058 L69.893,20.0388 L67.763,24.4648 C67.469,25.0978 67.077,25.3798 66.559,25.3928 C65.802,25.4068 65.662,24.9288 65.662,24.5488 C65.662,24.1288 65.97,23.8188 66.46,23.8188 L66.797,23.8188 C67.133,23.8188 67.343,23.7068 67.484,23.5238 C67.637,23.3128 67.749,23.0468 67.889,22.7508 C67.974,22.5828 68.085,22.3298 68.085,22.1608 C68.085,21.9778 68.043,21.7118 67.82,21.1348 L66.475,17.7338 C66.208,17.0588 66.082,16.8068 65.634,16.7368 L65.382,16.6938 Z" id="Fill-10" fill="#000000"></path>
            </g>
        </g>
    </g>
</svg>