<?xml version="1.0" encoding="UTF-8"?>
<svg width="236px" height="86px" viewBox="0 0 236 86" version="1.1" xmlns="http://www.w3.org/2000/svg" xmlns:xlink="http://www.w3.org/1999/xlink">
    <!-- Generator: Sketch 55.2 (78181) - https://sketchapp.com -->
    <title>Group 24back</title>
    <desc>Created with Sketch.</desc>
    <defs>
        <filter x="-5.3%" y="-15.4%" width="110.5%" height="130.8%" filterUnits="objectBoundingBox" id="filter-1">
            <feOffset dx="0" dy="2" in="SourceAlpha" result="shadowOffsetOuter1"></feOffset>
            <feGaussianBlur stdDeviation="2" in="shadowOffsetOuter1" result="shadowBlurOuter1"></feGaussianBlur>
            <feColorMatrix values="0 0 0 0 0   0 0 0 0 0   0 0 0 0 0  0 0 0 0.5 0" type="matrix" in="shadowBlurOuter1" result="shadowMatrixOuter1"></feColorMatrix>
            <feMerge>
                <feMergeNode in="shadowMatrixOuter1"></feMergeNode>
                <feMergeNode in="SourceGraphic"></feMergeNode>
            </feMerge>
        </filter>
    </defs>
    <g id="Page-1" stroke="none" stroke-width="1" fill="none" fill-rule="evenodd">
        <g id="Group-24" transform="translate(4.000000, 2.006300)">
            <g id="Group-20">
                <g id="Group-13" filter="url(#filter-1)">
                    <path d="M189.064,77.376 L38.688,77.376 C17.321,77.376 -2.84217094e-14,60.055 -2.84217094e-14,38.688 L-2.84217094e-14,38.688 C-2.84217094e-14,17.321 17.321,9.9475983e-14 38.688,9.9475983e-14 L189.064,9.9475983e-14 C210.431,9.9475983e-14 227.752,17.321 227.752,38.688 L227.752,38.688 C227.752,60.055 210.431,77.376 189.064,77.376" id="Fill-50" fill="#000000"></path>
                    <path d="M89.8882,41.5342 C89.8882,43.8702 90.1862,45.3382 92.5132,45.3382 C94.7202,45.3382 95.8842,43.6312 95.8842,41.2042 C95.8842,38.5982 94.3922,36.7712 91.5292,36.7712 C89.8882,36.7712 89.8882,36.8022 89.8882,37.9992 L89.8882,41.5342 Z M89.8882,34.6142 C89.8882,35.3932 89.9172,35.4532 91.4692,35.4532 C94.0342,35.4532 94.9892,33.8052 94.9892,32.0092 C94.9892,29.4032 93.3782,28.1152 91.3202,28.1152 C89.9172,28.1152 89.8882,28.3542 89.8882,29.6732 L89.8882,34.6142 Z M85.7712,31.7092 C85.7712,28.6832 85.7112,28.3852 84.4582,28.2052 L83.6542,28.0852 C83.3852,27.9352 83.3252,27.0372 83.7732,27.0072 C86.0392,26.8562 88.2172,26.7372 91.2002,26.7372 C94.0642,26.7372 95.9732,27.0662 97.2852,27.8462 C98.5692,28.6242 99.3442,29.8822 99.3442,31.6492 C99.3442,34.1652 97.2262,35.1542 96.3012,35.3932 C96.0032,35.4532 95.7042,35.5732 95.7042,35.7222 C95.7042,35.8122 95.8542,35.9022 96.1222,35.9632 C98.4792,36.4722 100.4782,38.0292 100.5082,40.9342 C100.5372,43.6902 98.8972,45.3072 97.0182,45.9672 C95.1382,46.6262 92.9012,46.7162 91.0812,46.7162 C90.0072,46.7162 88.8732,46.5962 88.0082,46.5962 C86.5472,46.5962 85.0852,46.6262 83.3852,46.6852 C83.1462,46.5062 83.1462,45.7272 83.3852,45.6382 L84.2492,45.4582 C85.5922,45.1882 85.7712,44.9782 85.7712,42.2822 L85.7712,31.7092 Z" id="Fill-52" fill="#FFFFFF"></path>
                    <path d="M109.2212,41.7139 C109.2512,41.2349 109.2212,41.1449 109.0122,41.1749 C107.6702,41.3549 106.5062,41.8629 106.5062,43.2719 C106.5062,44.2299 107.1932,45.0679 108.0282,45.0679 C108.9522,45.0679 109.1322,44.5289 109.1612,43.6009 L109.2212,41.7139 Z M112.8012,42.4919 C112.6822,44.5289 113.5472,45.0679 114.1432,45.0679 C114.5012,45.0679 114.8002,44.9789 115.2772,44.7089 C115.5452,44.7689 115.7242,45.1279 115.6352,45.3979 C115.2772,45.8769 113.8752,47.0159 112.1742,47.0159 C111.1302,47.0159 110.4742,46.6559 109.6682,45.9669 C109.4602,45.7869 109.3402,45.7279 109.1922,45.7279 C109.0422,45.7279 108.8642,45.8469 108.5652,46.0569 C108.0282,46.4459 107.1332,47.0159 106.0302,47.0159 C104.2992,47.0159 102.6882,45.9669 102.6882,43.8699 C102.6882,42.3429 103.6132,41.4139 105.7902,40.7549 C106.9242,40.3959 107.7592,40.1559 108.5952,39.9159 C109.1322,39.7669 109.2812,39.5569 109.3112,39.3179 C109.3402,38.9879 109.3702,38.6579 109.3702,38.2989 C109.3702,37.1609 108.9232,35.7229 107.6402,35.7229 C106.9242,35.7229 106.2982,36.1429 106.0892,37.4309 C106.0302,37.9089 105.8502,38.1789 105.5822,38.3889 C105.1342,38.7189 103.9712,39.0779 103.4342,39.0779 C102.9272,39.0779 102.7482,38.7479 102.7482,38.3289 C102.7482,37.5499 103.4642,36.5919 104.1802,36.0229 C105.1942,35.2139 107.0742,34.1949 109.1922,34.1949 C111.6982,34.1949 113.1592,35.4529 113.0102,38.5389 L112.8012,42.4919 Z" id="Fill-54" fill="#FFFFFF"></path>
                    <path d="M127.062,34.7051 C127.45,35.0341 127.689,35.4531 127.689,36.2621 C127.689,37.1611 127.271,37.9701 126.913,37.9701 C126.764,37.9701 126.496,37.9091 126.436,37.8191 C125.6,36.6221 124.437,35.5731 123.363,35.5731 C121.424,35.5731 120.38,37.7901 120.38,39.8561 C120.38,42.2231 121.901,44.6191 124.646,44.6191 C125.75,44.6191 126.644,44.2601 127.3,43.1511 C127.659,43.1211 128.077,43.3311 128.077,43.8101 C127.42,45.3081 125.63,47.0161 122.796,47.0161 C119.038,47.0161 116.472,44.4991 116.472,40.9651 C116.472,36.7121 119.903,34.1951 123.93,34.1951 C124.944,34.1951 126.256,34.4051 127.062,34.7051" id="Fill-56" fill="#FFFFFF"></path>
                    <path d="M130.8228,29.9424 C130.8228,28.7444 130.8228,28.4144 130.2258,28.0544 L129.7188,27.7554 C129.5108,27.5764 129.5108,27.0374 129.7188,26.8564 C130.9418,26.5574 132.7608,25.8384 134.2828,25.1794 C134.4618,25.1794 134.6708,25.2394 134.7898,25.3894 C134.7298,26.6174 134.7008,27.8754 134.7008,29.7624 L134.7008,39.1684 C134.7008,39.4974 134.7898,39.5874 135.1178,39.5874 C135.6258,39.5874 136.2518,39.4374 136.8478,38.7484 L138.1008,37.2804 C138.6678,36.5914 138.8168,36.2614 138.8168,36.0824 C138.8168,35.9324 138.5188,35.8124 138.2508,35.7834 L137.5048,35.6634 C137.2358,35.3934 137.2658,34.7344 137.5638,34.6144 L138.2798,34.6144 C139.6818,34.6144 142.1578,34.4644 143.9188,34.1954 C144.2168,34.3444 144.2468,35.0044 144.0378,35.2444 L143.0828,35.4534 C142.5158,35.5734 141.8888,35.8734 141.0848,36.5024 C139.9508,37.3704 139.5038,37.8194 139.0858,38.2394 C138.9358,38.4194 138.9068,38.5394 138.9068,38.6294 C138.9068,38.7184 138.9668,38.8984 139.1158,39.1374 C139.6518,40.0954 142.2778,44.1704 143.0228,44.8584 C143.4408,45.2484 144.0078,45.3974 144.7838,45.5474 L145.2308,45.6374 C145.4688,45.8464 145.4098,46.5664 145.1118,46.6854 C144.1868,46.6264 143.0828,46.5954 141.3528,46.5954 C139.5928,46.5954 138.5188,46.6264 137.6828,46.6854 C137.3848,46.5364 137.3258,45.9074 137.5638,45.6374 L137.9518,45.5474 C138.2508,45.4874 138.4288,45.4274 138.4288,45.3074 C138.4288,45.1884 138.1608,44.7094 137.9228,44.3494 L135.8038,41.1144 C135.5948,40.7854 135.3568,40.6654 135.0578,40.6654 C134.8488,40.6654 134.7008,40.8154 134.7008,41.3834 L134.7008,43.1214 C134.7008,45.2174 134.8198,45.4584 135.8638,45.5774 L136.3418,45.6374 C136.5798,45.8174 136.5798,46.5054 136.3108,46.6854 C135.3568,46.6264 134.1038,46.5954 132.7318,46.5954 C131.3588,46.5954 130.1358,46.6264 129.0928,46.6854 C128.8238,46.5054 128.8238,45.8174 129.0618,45.6374 L129.6298,45.5774 C130.7028,45.4584 130.8228,45.2174 130.8228,43.1214 L130.8228,29.9424 Z" id="Fill-58" fill="#FFFFFF"></path>
                </g>
            </g>
        </g>
    </g>
</svg>