<?xml version="1.0" encoding="UTF-8"?>
<svg width="457px" height="78px" viewBox="0 0 457 78" version="1.1" xmlns="http://www.w3.org/2000/svg" xmlns:xlink="http://www.w3.org/1999/xlink">
    <!-- Generator: Sketch 55.2 (78181) - https://sketchapp.com -->
    <title>Group 22play</title>
    <desc>Created with Sketch.</desc>
    <g id="Page-1" stroke="none" stroke-width="1" fill="none" fill-rule="evenodd">
        <g id="Group-22" transform="translate(0.859800, 0.315900)">
            <g id="Group-11">
                <path d="M416.816,77.376 L38.688,77.376 C17.321,77.376 0,60.055 0,38.688 C0,17.321 17.321,9.9475983e-14 38.688,9.9475983e-14 L416.816,9.9475983e-14 C438.183,9.9475983e-14 455.504,17.321 455.504,38.688 C455.504,60.055 438.183,77.376 416.816,77.376" id="Fill-12" fill="#000000"></path>
                <path d="M119.9459,41.624 C119.9459,43.032 120.0649,43.99 120.4529,44.47 C120.8409,44.978 121.3779,45.219 123.5549,45.219 C126.2689,45.219 127.1049,45.129 128.8649,41.654 C129.1029,41.354 129.7899,41.475 129.9989,41.834 C129.8489,43.392 129.1339,45.878 128.7159,46.686 C127.1339,46.626 124.2709,46.597 121.8249,46.597 L117.8279,46.597 C116.4559,46.597 114.9639,46.626 113.1139,46.686 C112.8449,46.507 112.7859,45.817 113.0249,45.638 L114.1579,45.488 C115.5009,45.309 115.6789,45.068 115.6789,42.283 L115.6789,31.141 C115.6789,28.355 115.5009,28.086 114.1579,27.906 L113.2939,27.786 C112.9949,27.606 112.9949,26.917 113.3529,26.737 C114.9039,26.798 116.3949,26.827 117.8279,26.827 C119.2589,26.827 120.7509,26.798 122.2429,26.737 C122.4809,26.917 122.4809,27.606 122.2429,27.786 L121.4669,27.906 C120.1249,28.115 119.9459,28.355 119.9459,31.141 L119.9459,41.624 Z" id="Fill-14" fill="#FFFFFF"></path>
                <path d="M137.6675,38.1797 C138.0845,38.1797 138.5625,38.1197 138.8905,37.9097 C139.0395,37.8207 139.0995,37.5207 139.0995,37.2207 C139.0995,36.2327 138.5315,35.5747 137.5185,35.5747 C136.2655,35.5747 135.1905,36.7717 135.1905,37.7307 C135.1905,38.1497 135.6085,38.1797 136.5635,38.1797 L137.6675,38.1797 Z M135.6975,39.4977 C135.0125,39.4977 134.9525,39.5577 134.9525,40.0367 C134.9525,42.2837 136.3845,44.4697 139.1585,44.4697 C139.9935,44.4697 141.1275,44.2897 141.9335,42.9117 C142.2615,42.8527 142.7085,43.0917 142.7085,43.6017 C141.4855,46.1477 139.2775,47.0157 137.4875,47.0157 C133.4605,47.0157 131.2835,44.1697 131.2835,40.9057 C131.2835,37.1307 133.9975,34.1967 137.7275,34.1967 C140.8285,34.1967 142.4995,36.2027 142.4995,38.5087 C142.4995,39.0777 142.3505,39.4977 141.4255,39.4977 L135.6975,39.4977 Z" id="Fill-16" fill="#FFFFFF"></path>
                <path d="M150.0484,36.2324 C149.6604,36.2324 149.6304,36.2624 149.6304,36.9214 L149.6304,41.4154 C149.6304,43.0914 149.6304,44.9494 151.7184,44.9494 C152.1364,44.9494 152.6134,44.7394 152.9714,44.5004 C153.2704,44.5894 153.4484,44.9194 153.3894,45.2784 C152.5544,46.1764 150.9434,47.0154 149.0934,47.0154 C146.6174,47.0154 145.7524,45.5784 145.7524,43.6014 L145.7524,36.9214 C145.7524,36.2934 145.7234,36.2324 145.1864,36.2324 L144.2614,36.2324 C143.9334,36.1134 143.8434,35.5134 144.0814,35.3034 C145.0064,34.9744 145.8424,34.4354 146.5584,33.9564 C147.0954,33.5664 147.8404,32.9374 148.7654,31.6204 C148.9744,31.5004 149.5114,31.5304 149.6604,31.7694 L149.6604,34.0164 C149.6604,34.5854 149.6904,34.6154 150.2274,34.6154 L152.8824,34.6154 C153.0314,34.7354 153.1204,34.9154 153.1204,35.1844 C153.1204,35.5134 153.0314,36.0524 152.7334,36.2324 L150.0484,36.2324 Z" id="Fill-18" fill="#FFFFFF"></path>
                <path d="M159.5054,29.2832 C159.5054,32.0692 157.2684,33.8062 154.7924,34.3762 C154.2854,34.3152 154.1664,33.6572 154.4944,33.4472 C155.5674,33.0572 157.0294,32.0692 157.0294,30.6612 C157.0294,29.4032 156.1054,28.9842 155.3894,28.8042 C154.8824,28.6542 154.4944,28.1762 154.4944,27.4862 C154.4944,26.4682 155.4194,25.6292 156.5524,25.6292 C157.7764,25.6292 159.5054,26.6782 159.5054,29.2832" id="Fill-20" fill="#FFFFFF"></path>
                <path d="M159.7457,46.0869 C159.4177,45.4879 159.2087,44.0509 159.2677,42.7019 C159.4467,42.4029 160.1027,42.3729 160.2827,42.6429 C160.6707,43.8709 161.8047,45.6379 163.3247,45.6379 C164.2207,45.6379 164.8767,45.0989 164.8767,44.0799 C164.8767,42.9719 163.9217,42.3429 162.9077,41.8339 C161.1177,40.9359 159.8357,39.8579 159.8357,38.0599 C159.8357,35.4539 162.0127,34.1959 164.5777,34.1959 C166.0997,34.1959 167.4417,34.5849 167.7697,34.8249 C168.0677,35.4829 168.2177,36.6819 168.2177,37.8199 C168.0987,38.1499 167.3517,38.1499 167.1737,37.9409 C166.5767,36.2029 165.8307,35.5739 164.8467,35.5739 C163.9817,35.5739 163.3547,36.0829 163.3547,36.8919 C163.3547,37.5809 163.9217,38.1499 165.2647,38.8089 C167.2927,39.7969 168.5457,41.0549 168.5457,43.0019 C168.5167,45.6679 166.2487,47.0159 163.4447,47.0159 C161.7447,47.0159 160.5517,46.7159 159.7457,46.0869" id="Fill-22" fill="#FFFFFF"></path>
                <path d="M184.2984,47.0762 C181.5544,47.0762 179.8544,46.2972 179.2274,45.9372 C178.6604,45.2782 178.2734,43.1222 178.2734,41.0852 C178.4814,40.6952 179.1674,40.6662 179.4054,40.9952 C180.0024,42.9422 182.0014,45.6982 184.5364,45.6982 C186.7444,45.6982 187.7584,44.1702 187.7584,42.6732 C187.7584,40.2462 185.4914,38.8082 183.7014,37.9102 C181.5544,36.8322 179.1974,35.0342 179.1974,32.0692 C179.1674,28.6842 181.7924,26.3482 186.1174,26.3482 C187.1024,26.3482 188.3254,26.4682 189.5194,26.8272 C189.9064,26.9472 190.1754,27.0072 190.5324,27.0672 C190.7724,27.7252 191.0694,29.3442 191.0694,31.3502 C190.9204,31.7102 190.1754,31.7402 189.9064,31.4402 C189.4004,29.9132 188.1164,27.7252 185.9694,27.7252 C184.0004,27.7252 182.9264,29.0142 182.9264,30.5122 C182.9264,31.8892 184.1494,33.1472 185.6414,33.9272 L187.6104,34.9742 C189.4594,35.9632 191.8164,37.7002 191.8164,40.9952 C191.8164,44.6802 188.8034,47.0762 184.2984,47.0762" id="Fill-24" fill="#FFFFFF"></path>
                <path d="M199.1568,36.2324 C198.7688,36.2324 198.7388,36.2624 198.7388,36.9214 L198.7388,41.4154 C198.7388,43.0914 198.7388,44.9494 200.8268,44.9494 C201.2448,44.9494 201.7218,44.7394 202.0798,44.5004 C202.3788,44.5894 202.5568,44.9194 202.4978,45.2784 C201.6628,46.1764 200.0518,47.0154 198.2018,47.0154 C195.7258,47.0154 194.8608,45.5784 194.8608,43.6014 L194.8608,36.9214 C194.8608,36.2934 194.8318,36.2324 194.2948,36.2324 L193.3698,36.2324 C193.0418,36.1134 192.9518,35.5134 193.1898,35.3034 C194.1148,34.9744 194.9508,34.4354 195.6668,33.9564 C196.2038,33.5664 196.9488,32.9374 197.8738,31.6204 C198.0828,31.5004 198.6198,31.5304 198.7688,31.7694 L198.7688,34.0164 C198.7688,34.5854 198.7988,34.6154 199.3358,34.6154 L201.9908,34.6154 C202.1398,34.7354 202.2288,34.9154 202.2288,35.1844 C202.2288,35.5134 202.1398,36.0524 201.8418,36.2324 L199.1568,36.2324 Z" id="Fill-26" fill="#FFFFFF"></path>
                <path d="M210.2847,41.7138 C210.3147,41.2348 210.2847,41.1448 210.0757,41.1748 C208.7337,41.3548 207.5707,41.8638 207.5707,43.2718 C207.5707,44.2308 208.2567,45.0678 209.0917,45.0678 C210.0157,45.0678 210.1957,44.5288 210.2247,43.6018 L210.2847,41.7138 Z M213.8647,42.4928 C213.7457,44.5288 214.6107,45.0678 215.2077,45.0678 C215.5647,45.0678 215.8637,44.9788 216.3407,44.7088 C216.6087,44.7698 216.7877,45.1288 216.6987,45.3988 C216.3407,45.8778 214.9387,47.0158 213.2377,47.0158 C212.1937,47.0158 211.5377,46.6558 210.7317,45.9678 C210.5237,45.7878 210.4037,45.7278 210.2557,45.7278 C210.1057,45.7278 209.9277,45.8478 209.6287,46.0578 C209.0917,46.4458 208.1967,47.0158 207.0937,47.0158 C205.3627,47.0158 203.7527,45.9678 203.7527,43.8708 C203.7527,42.3428 204.6767,41.4148 206.8537,40.7558 C207.9877,40.3968 208.8227,40.1558 209.6587,39.9168 C210.1957,39.7678 210.3447,39.5578 210.3747,39.3178 C210.4037,38.9878 210.4337,38.6588 210.4337,38.2998 C210.4337,37.1608 209.9867,35.7238 208.7037,35.7238 C207.9877,35.7238 207.3617,36.1428 207.1527,37.4308 C207.0937,37.9098 206.9137,38.1798 206.6457,38.3898 C206.1977,38.7188 205.0347,39.0778 204.4977,39.0778 C203.9907,39.0778 203.8117,38.7488 203.8117,38.3288 C203.8117,37.5508 204.5277,36.5918 205.2437,36.0238 C206.2577,35.2138 208.1377,34.1958 210.2557,34.1958 C212.7617,34.1958 214.2227,35.4538 214.0737,38.5388 L213.8647,42.4928 Z" id="Fill-28" fill="#FFFFFF"></path>
                <path d="M219.1168,38.6592 C219.1168,37.4612 219.1168,37.1012 218.5508,36.7422 L218.1328,36.4722 C217.9238,36.2932 217.9238,35.7542 218.1328,35.5742 C219.5048,35.1842 221.5628,34.3762 222.4878,33.7762 C222.7258,33.7762 222.9048,33.8662 223.0248,34.0462 C222.9648,34.6452 222.9048,35.0642 222.9048,35.3342 C222.9048,35.5442 222.9648,35.6342 223.2038,35.6932 C224.0098,35.1842 224.8738,34.1962 226.1268,34.1962 C226.9318,34.1962 227.7678,34.8252 227.7678,35.9632 C227.7678,37.3412 226.8128,37.9102 225.8588,37.9102 C225.4408,37.9102 225.0828,37.7302 224.6948,37.3712 C224.0098,36.8022 223.7408,36.7712 223.5608,36.7712 C223.1438,36.7712 222.9948,37.4302 222.9948,38.5692 L222.9948,43.1222 C222.9948,45.2192 223.1138,45.4582 224.0978,45.5482 L225.0538,45.6382 C225.2918,45.8172 225.2918,46.5072 225.0228,46.6862 C223.5918,46.6262 222.3978,46.5962 220.9958,46.5962 C219.7728,46.5962 218.4608,46.6262 217.4758,46.6862 C217.2078,46.5072 217.2078,45.8172 217.4458,45.6382 L218.0128,45.5782 C218.9978,45.4882 219.1168,45.2192 219.1168,43.1222 L219.1168,38.6592 Z" id="Fill-30" fill="#FFFFFF"></path>
                <path d="M235.107,36.2324 C234.719,36.2324 234.689,36.2624 234.689,36.9214 L234.689,41.4154 C234.689,43.0914 234.689,44.9494 236.777,44.9494 C237.195,44.9494 237.672,44.7394 238.03,44.5004 C238.329,44.5894 238.507,44.9194 238.448,45.2784 C237.613,46.1764 236.002,47.0154 234.152,47.0154 C231.676,47.0154 230.811,45.5784 230.811,43.6014 L230.811,36.9214 C230.811,36.2934 230.782,36.2324 230.245,36.2324 L229.32,36.2324 C228.992,36.1134 228.902,35.5134 229.14,35.3034 C230.065,34.9744 230.901,34.4354 231.617,33.9564 C232.154,33.5664 232.899,32.9374 233.824,31.6204 C234.033,31.5004 234.57,31.5304 234.719,31.7694 L234.719,34.0164 C234.719,34.5854 234.749,34.6154 235.286,34.6154 L237.941,34.6154 C238.09,34.7354 238.179,34.9154 238.179,35.1844 C238.179,35.5134 238.09,36.0524 237.792,36.2324 L235.107,36.2324 Z" id="Fill-32" fill="#FFFFFF"></path>
                <path d="M249.9048,31.6797 C249.9048,28.6547 249.8448,28.2947 248.5928,28.1457 L247.6678,28.0257 C247.3988,27.8757 247.3988,27.2167 247.7268,27.0067 C249.6968,26.8577 252.0228,26.7377 254.6188,26.7377 C257.1538,26.7377 258.8248,27.0367 260.0778,27.5167 C261.8968,28.2047 263.7178,29.7927 263.7178,32.6987 C263.7178,37.6107 258.7948,38.3287 257.2138,38.3287 C256.8558,38.3287 256.5878,38.3287 256.2588,38.2997 C256.0198,38.1497 255.9608,37.6707 256.1698,37.4917 C258.6458,36.7117 259.1528,34.9447 259.1528,32.7287 C259.1528,30.5117 258.0188,28.1157 255.3348,28.1157 C254.2308,28.1157 254.1718,28.4457 254.1718,29.6427 L254.1718,42.2837 C254.1718,45.0687 254.3498,45.3087 255.6918,45.5187 L256.6468,45.6677 C256.9748,45.8177 256.9748,46.5067 256.6468,46.6867 C254.9758,46.6257 253.5148,46.5967 252.0828,46.5967 C250.6508,46.5967 249.2188,46.6257 247.6078,46.6867 C247.2798,46.5067 247.2198,45.8177 247.5488,45.6677 L248.3838,45.5187 C249.7258,45.2787 249.9048,45.0687 249.9048,42.2837 L249.9048,31.6797 Z" id="Fill-34" fill="#FFFFFF"></path>
                <path d="M267.1207,29.9424 C267.1207,28.7444 267.1207,28.4154 266.5237,28.0554 L266.0167,27.7554 C265.8077,27.5764 265.8077,27.0374 266.0167,26.8574 C267.2997,26.5574 269.0897,25.8384 270.5807,25.1794 C270.7597,25.1794 270.9687,25.2404 271.0877,25.3894 C271.0277,26.6184 270.9987,27.8764 270.9987,29.7624 L270.9987,43.1224 C270.9987,45.2184 271.1177,45.4584 272.1617,45.5784 L272.6687,45.6374 C272.9077,45.8174 272.9077,46.5064 272.6397,46.6864 C271.6547,46.6264 270.4017,46.5964 269.0587,46.5964 C267.7767,46.5964 266.5237,46.6264 265.4787,46.6864 C265.2117,46.5064 265.2117,45.8174 265.4497,45.6374 L266.0167,45.5784 C267.0007,45.4884 267.1207,45.2184 267.1207,43.1224 L267.1207,29.9424 Z" id="Fill-36" fill="#FFFFFF"></path>
                <path d="M281.231,41.7138 C281.261,41.2348 281.231,41.1448 281.022,41.1748 C279.68,41.3548 278.516,41.8638 278.516,43.2718 C278.516,44.2308 279.203,45.0678 280.038,45.0678 C280.962,45.0678 281.142,44.5288 281.171,43.6018 L281.231,41.7138 Z M284.811,42.4928 C284.692,44.5288 285.557,45.0678 286.153,45.0678 C286.511,45.0678 286.81,44.9788 287.287,44.7088 C287.555,44.7698 287.734,45.1288 287.645,45.3988 C287.287,45.8778 285.885,47.0158 284.184,47.0158 C283.14,47.0158 282.484,46.6558 281.678,45.9678 C281.47,45.7878 281.35,45.7278 281.202,45.7278 C281.052,45.7278 280.874,45.8478 280.575,46.0578 C280.038,46.4458 279.143,47.0158 278.04,47.0158 C276.309,47.0158 274.698,45.9678 274.698,43.8708 C274.698,42.3428 275.623,41.4148 277.8,40.7558 C278.934,40.3968 279.769,40.1558 280.605,39.9168 C281.142,39.7678 281.291,39.5578 281.321,39.3178 C281.35,38.9878 281.38,38.6588 281.38,38.2998 C281.38,37.1608 280.933,35.7238 279.65,35.7238 C278.934,35.7238 278.308,36.1428 278.099,37.4308 C278.04,37.9098 277.86,38.1798 277.592,38.3898 C277.144,38.7188 275.981,39.0778 275.444,39.0778 C274.937,39.0778 274.758,38.7488 274.758,38.3288 C274.758,37.5508 275.474,36.5918 276.19,36.0238 C277.204,35.2138 279.084,34.1958 281.202,34.1958 C283.708,34.1958 285.169,35.4538 285.02,38.5388 L284.811,42.4928 Z" id="Fill-38" fill="#FFFFFF"></path>
                <path d="M287.3785,35.5742 C287.1695,35.3642 287.1695,34.6452 287.4675,34.5252 C288.5415,34.5852 289.8245,34.6152 291.4055,34.6152 C292.5095,34.6152 293.6435,34.5852 294.7465,34.5252 C295.0445,34.6452 295.0745,35.3642 294.8355,35.5742 L294.2385,35.6932 C293.4035,35.8732 293.3445,35.9932 293.3445,36.2622 C293.3445,36.6222 293.6725,37.4002 294.2385,38.9282 C294.5675,39.7672 295.2245,41.5952 295.5815,42.3432 C295.9095,41.7142 296.2085,41.0252 296.5065,40.3662 L297.0435,39.1372 C297.6695,37.7002 298.1475,36.4422 298.1475,36.1132 C298.1475,35.9032 297.8495,35.7542 297.4905,35.6932 L296.8945,35.5742 C296.6255,35.3642 296.6555,34.6152 296.9835,34.5252 C297.6405,34.5852 298.5345,34.6152 299.8775,34.6152 C300.6525,34.6152 301.4285,34.5852 302.2045,34.5252 C302.5025,34.6452 302.5325,35.3932 302.2645,35.5742 L301.6965,35.6342 C301.1005,35.6932 300.5935,35.9332 300.3245,36.2932 C299.9675,36.7712 299.2215,38.0592 298.5655,39.4372 L296.9835,42.7022 L292.4495,52.1372 C291.8225,53.4852 290.9875,54.0852 289.8845,54.1142 C288.2735,54.1442 287.9755,53.1262 287.9755,52.3172 C287.9755,51.4192 288.6315,50.7602 289.6755,50.7602 L290.3915,50.7602 C291.1075,50.7602 291.5545,50.5202 291.8535,50.1312 C292.1815,49.6812 292.4195,49.1122 292.7185,48.4832 C292.8975,48.1242 293.1355,47.5852 293.1355,47.2252 C293.1355,46.8362 293.0465,46.2662 292.5685,45.0392 L289.7045,37.7902 C289.1385,36.3522 288.8695,35.8132 287.9155,35.6642 L287.3785,35.5742 Z" id="Fill-40" fill="#FFFFFF"></path>
                <path d="M308.7681,29.583 C308.7681,31.02 307.6641,31.77 306.5311,31.77 C305.2181,31.77 304.4431,30.871 304.4431,29.643 C304.4431,28.325 305.4871,27.456 306.6801,27.456 C307.9331,27.456 308.7681,28.385 308.7681,29.583 L308.7681,29.583 Z M308.5301,43.122 C308.5301,45.219 308.6491,45.488 309.6331,45.578 L310.2011,45.638 C310.4391,45.817 310.4391,46.507 310.1701,46.687 C309.1261,46.626 307.9631,46.597 306.5901,46.597 C305.2481,46.597 303.9961,46.626 303.0111,46.687 C302.7431,46.507 302.7431,45.817 302.9811,45.638 L303.5481,45.578 C304.5331,45.488 304.6521,45.219 304.6521,43.122 L304.6521,38.599 C304.6521,37.4 304.6521,37.041 304.0851,36.682 L303.6671,36.412 C303.4581,36.232 303.4581,35.693 303.6671,35.514 C305.0701,35.124 307.1871,34.315 308.0821,33.776 C308.3211,33.776 308.4991,33.866 308.6201,34.046 C308.5601,34.944 308.5301,36.263 308.5301,37.61 L308.5301,43.122 Z" id="Fill-42" fill="#FFFFFF"></path>
                <path d="M313.7808,38.5986 C313.7808,37.4006 313.7808,37.0406 313.2148,36.6816 L312.7968,36.4116 C312.5878,36.2326 312.5878,35.6936 312.7968,35.5136 C314.1988,35.1236 316.3458,34.3156 317.2118,33.7766 C317.4498,33.7766 317.6288,33.8666 317.7488,34.0456 C317.7488,34.4656 317.6588,35.1846 317.6588,35.3936 C317.6588,35.5746 317.7188,35.6336 317.8078,35.6336 C317.8968,35.6336 318.1958,35.4836 318.3748,35.3936 C319.0308,35.0046 320.4328,34.1966 321.8048,34.1966 C324.2808,34.1966 325.5338,35.9036 325.5338,37.9696 L325.5338,43.1216 C325.5338,45.2186 325.6538,45.4576 326.7268,45.5776 L327.2048,45.6376 C327.4428,45.8176 327.4428,46.5066 327.1748,46.6866 C326.2508,46.6256 324.9978,46.5966 323.5648,46.5966 C322.3718,46.5966 321.2088,46.6256 320.3428,46.6866 C320.0748,46.5066 320.0748,45.8176 320.3138,45.6376 L320.8508,45.5476 C321.5368,45.4286 321.6558,45.2186 321.6558,43.5716 L321.6558,38.5086 C321.6558,37.3406 321.0588,36.3826 319.5678,36.3826 C318.7328,36.3826 318.1358,36.7716 317.8968,37.1016 C317.7188,37.3106 317.6588,37.6706 317.6588,38.2096 L317.6588,43.5716 C317.6588,45.2186 317.7778,45.4886 318.5238,45.5776 L319.0018,45.6376 C319.2398,45.8176 319.2398,46.5066 318.9708,46.6866 C318.0468,46.6256 317.0928,46.5966 315.6598,46.5966 C314.4068,46.5966 313.1838,46.6256 312.1398,46.6866 C311.8718,46.5066 311.8718,45.8176 312.1098,45.6376 L312.5878,45.5776 C313.6618,45.4576 313.7808,45.2186 313.7808,43.1216 L313.7808,38.5986 Z" id="Fill-44" fill="#FFFFFF"></path>
                <path d="M335.2017,42.1933 C336.1267,42.1933 336.9017,41.3253 336.9017,39.1373 C336.9017,36.7123 336.0367,35.5743 334.9637,35.5743 C334.0387,35.5743 333.1427,36.4723 333.1427,38.5083 C333.1427,40.7853 334.0087,42.1933 335.2017,42.1933 L335.2017,42.1933 Z M334.5457,48.2733 C333.7397,48.2733 333.1427,48.4533 332.8747,48.6633 C332.5767,48.9323 332.4577,49.3223 332.4577,49.7123 C332.4577,51.7483 333.9777,53.0663 336.3357,53.0663 C338.2147,53.0663 339.4677,52.1373 339.4677,50.7003 C339.4677,48.9633 338.1847,48.2733 336.5437,48.2733 L334.5457,48.2733 Z M342.9577,35.3033 C343.1667,35.4833 343.2257,35.7233 343.2257,36.0523 C343.2257,36.5323 343.0767,37.0713 342.7787,37.2513 L340.5707,37.2513 C340.6307,37.5203 340.6607,37.7903 340.6607,38.2993 C340.6607,40.6663 339.2587,43.5413 334.5457,43.5413 C334.0677,43.5413 333.6497,43.4813 333.3217,43.4513 C333.0237,43.5713 332.8147,43.8103 332.8147,44.1703 C332.8147,44.8293 333.4417,45.2493 334.3367,45.2493 C335.3507,45.2493 336.5737,45.1883 337.9757,45.1883 C340.2137,45.1883 342.5997,45.7883 342.5997,48.8123 C342.5997,50.7003 341.4667,52.3773 339.9147,53.3363 C338.3637,54.2643 336.4247,54.6533 334.6947,54.6533 C330.3987,54.6533 328.8477,52.6763 328.8477,50.8193 C328.8477,50.1003 329.2957,49.6223 329.8027,49.3223 C330.3987,48.9633 330.9357,48.5733 331.2637,48.3933 C331.6217,48.1833 331.5327,48.0343 331.2937,47.9743 C330.1897,47.6153 329.4437,46.6263 329.4437,45.5783 C329.4437,45.3393 329.5037,45.0983 329.6527,44.9493 C330.4877,44.4103 331.3837,43.7203 331.5617,43.5413 C331.8307,43.3323 331.9497,43.1513 331.8017,42.8813 C330.3087,42.2833 329.2647,40.8453 329.2647,39.0183 C329.2647,36.5323 331.2047,34.1963 335.0827,34.1963 C336.8427,34.1963 338.4237,34.7053 339.5267,35.3033 L342.9577,35.3033 Z" id="Fill-46" fill="#FFFFFF"></path>
            </g>
        </g>
    </g>
</svg>