<?xml version="1.0" encoding="UTF-8"?>
<svg width="1440px" height="1024px" viewBox="0 0 1440 1024" version="1.1" xmlns="http://www.w3.org/2000/svg" xmlns:xlink="http://www.w3.org/1999/xlink">
    <!-- Generator: Sketch 55.2 (78181) - https://sketchapp.com -->
    <title>Group 144objective_bg</title>
    <desc>Created with Sketch.</desc>
    <defs>
        <path d="M0.007,16.252 C0.007,16.252 14.569,15.516 20.477,0.937 L20.477,0.937 C20.477,0.937 19.087,0.68 17.031,0.68 L17.031,0.68 C11.5,0.68 1.145,2.538 0.007,16.252" id="path-1"></path>
        <path d="M0.552,11.548 C0.552,11.548 12.544,8.635 11.99,0.293 L11.99,0.293 C11.99,0.293 11.208,0.181 10.048,0.181 L10.048,0.181 C6.259,0.181 -1.571,1.374 0.552,11.548" id="path-3"></path>
        <path d="M5.852,1.651 C1.46,3.779 -0.78,8.514 0.849,12.227 L0.849,12.227 C2.476,15.94 7.356,17.223 11.748,15.096 L11.748,15.096 C16.14,12.967 18.38,8.232 16.752,4.52 L16.752,4.52 C15.657,2.022 13.089,0.623 10.19,0.623 L10.19,0.623 C8.779,0.623 7.289,0.954 5.852,1.651" id="path-5"></path>
        <path d="M9.441,0.398 C4.099,0.856 0.139,5.558 0.597,10.9 L0.597,10.9 C1.055,16.242 5.758,20.202 11.1,19.744 L11.1,19.744 C16.443,19.286 20.402,14.585 19.944,9.241 L19.944,9.241 C19.51,4.181 15.27,0.361 10.283,0.361999804 L10.283,0.361999804 C10.005,0.361999804 9.724,0.374 9.441,0.398" id="path-7"></path>
    </defs>
    <g id="Page-1" stroke="none" stroke-width="1" fill="none" fill-rule="evenodd">
        <g id="Group-144">
            <polygon id="Fill-1" fill="#FFF8DC" points="0 1024 1440 1024 1440 0 0 0"></polygon>
            <g id="Group-52" transform="translate(263.000000, 116.000000)">
                <path d="M158.1167,75.7717 C159.4907,72.2847 161.1867,65.7947 155.0467,64.9027 C152.7837,64.7407 150.1177,65.4707 147.8557,67.0117 C145.4317,68.6337 143.7347,72.2037 144.0577,74.7177 C144.3817,77.2327 144.6237,77.5567 146.0777,79.4217 C147.3707,81.0447 150.1177,83.2347 152.7027,84.8577 C155.5317,86.8037 158.5207,88.6687 160.7827,90.8597 C163.1257,92.8067 164.9037,95.1587 165.5497,98.3227 C170.7207,123.6297 127.3337,129.8757 124.2627,110.2467 C123.3747,104.2437 126.0407,97.3487 132.1007,94.3477 L139.5337,101.9727 C133.3127,104.3247 130.7267,108.3807 131.8577,111.5437 C133.1507,115.3567 139.8567,116.7357 145.4317,114.0587 C148.3407,112.8417 151.0067,110.2467 152.2187,106.4337 C153.7537,102.2157 150.1987,98.6467 147.2897,96.2937 C144.1387,94.0237 142.2807,92.7257 139.6147,90.7787 C136.9487,88.5877 134.1197,85.5057 132.6657,82.8297 C128.7067,75.6097 130.3227,66.7687 138.7257,62.4687 C143.4117,60.1167 148.4207,59.2247 153.5917,59.7107 C160.7827,60.5227 166.6807,64.0917 168.8627,70.2557 C169.8317,73.2577 169.8317,76.8267 169.0237,80.6387 L158.1167,75.7717 Z" id="Fill-2" fill="#000000"></path>
                <path d="M180.1719,100.9182 C192.9379,101.3232 194.3919,85.9112 192.3719,84.2892 C190.7559,83.0722 187.2009,84.6132 184.2929,89.2372 C182.5959,91.8332 181.1419,95.4832 180.2529,100.0252 C180.2529,100.3502 180.1719,100.6752 180.1719,100.9182 L180.1719,100.9182 Z M204.4109,106.5962 C198.1089,118.2762 191.4839,121.2782 182.2729,121.0342 C167.0029,120.5482 166.7599,101.1612 174.2739,89.1562 C180.4139,79.5843413 190.9179,77.5572 195.5229,81.4502 C199.6439,84.7752 199.7239,90.9402 197.2999,95.7272 C193.6649,102.4592 186.8779,104.9742 179.9299,104.7312 C180.0099,108.6242 181.4639,113.1662 184.9389,114.8702 C191.1599,117.7902 197.7049,112.9232 201.5019,106.5962 L204.4109,106.5962 Z" id="Fill-4" fill="#000000"></path>
                <path d="M227.1118,106.9201 C221.0518,123.5491 198.2678,128.0111 202.5498,106.3531 L211.0328,63.7671 L221.9408,63.7671 C219.1938,77.5571 213.9418,102.7831 212.0838,112.1111 C210.3058,121.3591 221.5368,114.4641 224.0418,106.9201 L227.1118,106.9201 Z" id="Fill-6" fill="#000000"></path>
                <path d="M233.0083,100.9182 C245.7743,101.3232 247.2283,85.9112 245.2083,84.2892 C243.5923,83.0722 240.0373,84.6132 237.1293,89.2372 C235.4323,91.8332 233.9783,95.4832 233.0893,100.0252 C233.0893,100.3502 233.0083,100.6752 233.0083,100.9182 L233.0083,100.9182 Z M257.2473,106.5962 C250.9453,118.2762 244.3203,121.2782 235.1093,121.0342 C219.8393,120.5482 219.5963,101.1612 227.1103,89.1562 C233.2503,79.5843413 243.7543,77.5572 248.3593,81.4502 C252.4803,84.7752 252.5603,90.9402 250.1363,95.7272 C246.5013,102.4592 239.7143,104.9742 232.7663,104.7312 C232.8463,108.6242 234.3003,113.1662 237.7753,114.8702 C243.9963,117.7902 250.5413,112.9232 254.3383,106.5962 L257.2473,106.5962 Z" id="Fill-8" fill="#000000"></path>
                <path d="M289.4019,106.5959 C284.6349,114.9509 277.4439,120.7099 268.5569,121.0339 C256.8409,121.5219 253.3669,110.5709 255.6299,99.5389 C257.1649,91.7519 261.4459,83.7219 268.7179,80.7199 C272.9999,78.9359 277.2019,79.2599 280.0289,81.5319 C284.1499,84.7759 284.9579,91.1839 282.5339,95.7269 C282.2109,96.4559 281.8069,97.0249 281.4029,97.6729 L277.6869,91.1029 C279.5449,87.5339 279.3019,84.9389 278.3329,84.2889 C277.3629,83.6409 275.6669,83.8839 273.8889,85.1819 C269.2839,88.5069 266.9409,95.1579 266.1329,100.3499 C264.9209,108.7049 267.0219,113.5729 270.7379,115.0329 C276.5549,117.3029 282.4529,111.6249 286.4119,106.5959 L289.4019,106.5959 Z" id="Fill-10" fill="#000000"></path>
                <path d="M313.4756,106.3527 C307.0116,123.7107 283.1776,128.3347 287.7016,106.0287 L291.9836,84.9387 L287.1366,84.9387 L289.1566,79.9907 L293.0346,79.9907 L295.2156,69.4457 L306.6886,67.1737 L304.1836,79.9907 L310.7286,79.9907 L308.3856,84.9387 L303.2956,84.9387 L297.8826,111.8687 C296.0236,121.3597 307.4966,114.3017 310.2436,106.3527 L313.4756,106.3527 Z" id="Fill-12" fill="#000000"></path>
                <path d="M356.2144,87.4533 C351.2854,78.4493 341.7524,87.2093 338.9244,100.3493 C335.8544,115.0323 341.1864,122.6573 352.3364,107.5693 L356.2144,87.4533 Z M378.1104,106.6773 C372.5354,121.6023 353.1444,126.8753 352.0934,112.9233 C343.5294,125.7393 325.1084,123.3873 326.5624,106.5963 C327.6934,93.5363 334.0764,80.4763 348.5384,79.9903 L368.9804,79.9903 L368.3334,83.0723 C365.8294,95.4833 364.1324,102.7023 362.2744,112.0303 C360.4964,121.2783 372.2924,114.3023 374.9594,106.6773 L378.1104,106.6773 Z" id="Fill-14" fill="#000000"></path>
                <path d="M408.728,86.3986 L403.395,112.8416 C406.951,117.6276 411.233,115.8426 413.899,112.1116 C415.515,109.8406 416.889,106.2716 417.616,102.3776 C419.07,94.5906 419.555,79.0976 408.728,86.3986 M429.25,97.3486 C429.169,102.5406 427.957,107.9746 425.453,112.4366 C424.241,114.7896 422.706,116.7356 420.605,118.1956 C418.424,119.9806 415.596,121.0346 412.445,121.0346 C409.132,121.0346 404.204,119.4126 402.426,117.4656 L397.902,140.8276 L386.509,140.8276 L398.548,79.9906 L409.94,79.9906 L409.456,82.4236 C422.06,73.9066 429.331,86.1546 429.25,97.3486" id="Fill-16" fill="#000000"></path>
                <path d="M461.001,87.4533 C456.072,78.4493 446.539,87.2093 443.711,100.3493 C440.641,115.0323 445.973,122.6573 457.123,107.5693 L461.001,87.4533 Z M482.897,106.6773 C477.322,121.6023 457.931,126.8753 456.88,112.9233 C448.316,125.7393 429.895,123.3873 431.349,106.5963 C432.48,93.5363 438.863,80.4763 453.325,79.9903 L473.767,79.9903 L473.12,83.0723 C470.616,95.4833 468.919,102.7023 467.061,112.0303 C465.283,121.2783 477.079,114.3023 479.746,106.6773 L482.897,106.6773 Z" id="Fill-18" fill="#000000"></path>
                <path d="M516.9897,82.6672 L509.4757,88.9132 C502.9317,84.1272 496.9527,90.3732 492.8317,97.1052 L488.3077,120.5482 L476.9157,120.5482 L485.0757,79.9902 L496.1447,79.9902 L494.4477,88.8322 C499.5377,80.3142 506.4057,76.3402 516.9897,82.6672" id="Fill-20" fill="#000000"></path>
                <path d="M545.9932,106.3527 C539.5292,123.7107 515.6952,128.3347 520.2192,106.0287 L524.5012,84.9387 L519.6542,84.9387 L521.6742,79.9907 L525.5522,79.9907 L527.7332,69.4457 L539.2062,67.1737 L536.7012,79.9907 L543.2462,79.9907 L540.9032,84.9387 L535.8132,84.9387 L530.4002,111.8687 C528.5412,121.3597 540.0142,114.3017 542.7612,106.3527 L545.9932,106.3527 Z" id="Fill-22" fill="#000000"></path>
                <path d="M581.542,79.9904 L575.482,110.0844 C571.927,129.2274 566.514,146.0184 542.356,139.2044 L550.032,131.4174 C552.052,133.1214 558.677,136.6894 559.565,132.2284 L563.04,115.1944 C553.991,124.6034 538.882,123.7934 542.599,105.7044 L547.689,79.9904 L559.162,79.9904 C556.657,92.4814 554.556,102.7834 552.779,111.7064 C551.082,120.5484 560.535,115.3564 564.414,108.5434 L570.15,79.9904 L581.542,79.9904 Z" id="Fill-24" fill="#000000"></path>
                <path d="M626.7842,106.3527 C620.3202,123.7107 596.4862,128.3347 601.0102,106.0287 L605.2922,84.9387 L600.4452,84.9387 L602.4652,79.9907 L606.3432,79.9907 L608.5242,69.4457 L619.9972,67.1737 L617.4922,79.9907 L624.0372,79.9907 L621.6942,84.9387 L616.6042,84.9387 L611.1912,111.8687 C609.3322,121.3597 620.8052,114.3017 623.5522,106.3527 L626.7842,106.3527 Z" id="Fill-26" fill="#000000"></path>
                <path d="M669.5239,106.5148 C662.8989,125.0898 640.7609,125.0088 643.5079,109.6788 C644.8809,101.9728 646.1739,95.2408 647.2239,88.8318 C648.9209,80.0718 640.8409,85.1818 637.2059,91.9948 L631.5499,120.4668 L620.4809,120.4668 L631.9539,63.7668 L642.6999,63.7668 L638.4179,85.3438 C647.0629,76.2588 660.5559,76.9078 657.2429,94.5908 C656.2739,100.2688 655.2229,106.3528 654.1729,111.7868 C652.4759,121.5218 663.7869,114.3018 666.3729,106.5148 L669.5239,106.5148 Z" id="Fill-28" fill="#000000"></path>
                <path d="M674.0464,100.9182 C686.8124,101.3232 688.2664,85.9112 686.2464,84.2892 C684.6304,83.0722 681.0754,84.6132 678.1674,89.2372 C676.4704,91.8332 675.0164,95.4832 674.1274,100.0252 C674.1274,100.3502 674.0464,100.6752 674.0464,100.9182 L674.0464,100.9182 Z M698.2854,106.5962 C691.9834,118.2762 685.3584,121.2782 676.1474,121.0342 C660.8774,120.5482 660.6344,101.1612 668.1484,89.1562 C674.2884,79.5843413 684.7924,77.5572 689.3974,81.4502 C693.5184,84.7752 693.5984,90.9402 691.1744,95.7272 C687.5394,102.4592 680.7524,104.9742 673.8044,104.7312 C673.8844,108.6242 675.3384,113.1662 678.8134,114.8702 C685.0344,117.7902 691.5794,112.9232 695.3764,106.5962 L698.2854,106.5962 Z" id="Fill-30" fill="#000000"></path>
                <path d="M761.5459,106.758 C755.0819,124.198 732.7019,126.632 736.0949,108.543 C737.2259,102.297 738.5189,95.808 739.8119,88.75 C741.7509,79.503 733.0249,86.399 730.1159,93.861 C730.0359,94.024 729.9549,94.186 729.8739,94.51 C729.3889,97.025 725.6719,118.439 725.2689,120.548 L714.6039,120.548 C716.8659,107.894 718.5629,97.836 720.1789,88.994 C721.7129,80.396 713.5529,85.506 710.2409,92.32 C710.1599,92.401 710.1599,92.482 710.0789,92.645 L704.5039,120.548 L693.3549,120.548 L701.4339,79.99 L712.5839,79.99 L711.5329,85.506 C717.9969,77.719 729.6309,76.745 730.3589,87.859 C738.8419,76.259 753.3849,75.447 749.5069,94.51 L748.2139,101.729 C747.5679,105.217 747.4869,105.46 746.2749,112.03 C744.9019,118.439 755.7289,114.464 758.3949,106.758 L761.5459,106.758 Z" id="Fill-32" fill="#000000"></path>
                <path d="M766.3901,100.9182 C779.1561,101.3232 780.6101,85.9112 778.5901,84.2892 C776.9741,83.0722 773.4191,84.6132 770.5111,89.2372 C768.8141,91.8332 767.3601,95.4832 766.4711,100.0252 C766.4711,100.3502 766.3901,100.6752 766.3901,100.9182 L766.3901,100.9182 Z M790.6291,106.5962 C784.3271,118.2762 777.7021,121.2782 768.4911,121.0342 C753.2211,120.5482 752.9781,101.1612 760.4921,89.1562 C766.6321,79.5843413 777.1361,77.5572 781.7411,81.4502 C785.8621,84.7752 785.9421,90.9402 783.5181,95.7272 C779.8831,102.4592 773.0961,104.9742 766.1481,104.7312 C766.2281,108.6242 767.6821,113.1662 771.1571,114.8702 C777.3781,117.7902 783.9231,112.9232 787.7201,106.5962 L790.6291,106.5962 Z" id="Fill-34" fill="#000000"></path>
                <path d="M845.0024,161.6867 C871.7674,151.3107 933.6354,56.4187 843.1584,6.0797 C798.9404,-18.5223 755.7504,52.9987 816.7394,75.9637 C861.3074,92.7457 818.5444,117.9327 811.0344,122.7987 C791.1144,135.7067 802.5804,178.1327 845.0024,161.6867" id="Fill-36" fill="#F8B171"></path>
                <path d="M841.0786,39.256 C836.0826,46.24 826.3716,47.854 819.3866,42.859 C812.4026,37.863 810.7896,28.152 815.7846,21.167 C820.7806,14.182 830.4916,12.569 837.4766,17.565 C844.4606,22.56 846.0736,32.272 841.0786,39.256" id="Fill-38" fill="#FBF1E3"></path>
                <path d="M828.564,35.9474 C826.755,38.4764 823.238,39.0604 820.708,37.2524 C818.178,35.4424 817.594,31.9254 819.403,29.3954 C821.212,26.8654 824.73,26.2814 827.26,28.0914 C829.789,29.9004 830.373,33.4174 828.564,35.9474" id="Fill-40" fill="#516E7D"></path>
                <path d="M806.939,37.7668 C804.328,41.4168 799.253,42.2598 795.603,39.6498 C791.953,37.0378 791.11,31.9628 793.72,28.3138 C796.331,24.6628 801.406,23.8208 805.056,26.4308 C808.707,29.0408 809.549,34.1168 806.939,37.7668" id="Fill-42" fill="#FBF1E3"></path>
                <path d="M800.3989,36.0373 C799.4539,37.3593 797.6149,37.6643 796.2939,36.7193 C794.9709,35.7733 794.6659,33.9353 795.6109,32.6133 C796.5569,31.2913 798.3949,30.9863 799.7169,31.9323 C801.0389,32.8773 801.3439,34.7153 800.3989,36.0373" id="Fill-44" fill="#516E7D"></path>
                <path d="M850.2324,43.6535 C850.6164,45.5875 850.4074,47.6415 849.7034,49.5675 C848.9824,51.4765 847.6244,53.2915 845.7544,54.3555 C843.8964,55.4285 841.7704,55.7935 839.7564,55.7305 C838.7514,55.6795 837.7644,55.4735 836.7974,55.2985 C835.8534,54.9865 834.9194,54.6805 834.0254,54.2915 C835.0204,54.2485 835.9754,54.2895 836.9194,54.3245 C837.3934,54.3115 837.8624,54.2735 838.3284,54.2505 C838.7914,54.2055 839.2584,54.2585 839.7094,54.1715 C841.5284,53.9465 843.2404,53.4795 844.7324,52.6375 C846.2194,51.7865 847.3994,50.4725 848.2924,48.9135 C849.1584,47.3355 849.7894,45.5575 850.2324,43.6535" id="Fill-46" fill="#516E7D"></path>
                <path d="M65.8125,39.6008 C65.8125,39.6008 11.9385,30.8978 2.0075,99.1838 C-8.1815,169.2468 60.3685,205.6858 102.6005,182.4858 C127.8585,168.6088 116.5175,139.7468 94.0225,143.9838 C68.7565,148.7428 54.1545,114.7178 70.0055,90.4828 C85.9815,66.0558 82.8105,57.2588 76.7045,52.8758 C76.7045,52.8758 61.6175,89.6088 31.9025,77.6588 C31.9025,77.6588 66.1645,58.4788 65.8125,39.6008" id="Fill-48" fill="#06AABF"></path>
                <path d="M42.4775,55.9367 C42.4775,55.9367 23.5685,52.4387 22.0065,71.2517 C22.0065,71.2517 36.5695,70.5157 42.4775,55.9367" id="Fill-50" fill="#FBF1E3"></path>
            </g>
            <g id="Group-55" transform="translate(285.000000, 171.000000)">
                <mask id="mask-2" fill="white">
                    <use xlink:href="#path-1"></use>
                </mask>
                <g id="Clip-54"></g>
                <path d="M11.1201,7.7766 C13.1041,11.3636 11.8051,15.8806 8.2181,17.8646 C4.6301,19.8486 0.1131,18.5496 -1.8709,14.9626 C-3.8559,11.3756 -2.5559,6.8576 1.0321,4.8746 C4.6191,2.8886 9.1361,4.1886 11.1201,7.7766" id="Fill-53" fill="#516E7D" mask="url(#mask-2)"></path>
            </g>
            <path d="M318.9893,159.2922 C318.9893,159.2922 304.7793,157.2572 307.5513,170.5482 C307.5513,170.5482 319.5443,167.6352 318.9893,159.2922" id="Fill-56" fill="#FBF1E3"></path>
            <g id="Group-60" transform="translate(307.000000, 159.000000)">
                <mask id="mask-4" fill="white">
                    <use xlink:href="#path-3"></use>
                </mask>
                <g id="Clip-59"></g>
                <path d="M8.4214,4.5197 C10.8234,7.8407 10.0794,12.4817 6.7574,14.8837 C3.4354,17.2877 -1.2046,16.5417 -3.6076,13.2207 C-6.0106,9.8987 -5.2656,5.2577 -1.9436,2.8557 C1.3784,0.4527 6.0184,1.1977 8.4214,4.5197" id="Fill-58" fill="#516E7D" mask="url(#mask-4)"></path>
            </g>
            <g id="Group-99" transform="translate(302.000000, 62.000000)">
                <path d="M6.3638,129.2023 L6.3638,129.2023 C4.8158,130.0573 2.8678,129.4973 2.0118,127.9493 L0.0388,124.3843 L5.6428,121.2833 L7.6158,124.8493 C8.4718,126.3973 7.9108,128.3463 6.3638,129.2023" id="Fill-61" fill="#06AABF"></path>
                <path d="M11.5728,126.8459 L11.5728,126.8459 C13.0288,125.8409 15.0228,126.2069 16.0268,127.6619 L18.3418,131.0169 L13.0718,134.6549 L10.7568,131.2999 C9.7518,129.8449 10.1168,127.8509 11.5728,126.8459" id="Fill-63" fill="#06AABF"></path>
                <path d="M21.3584,119.6486 L21.3584,119.6486 C22.6464,118.4366 24.6734,118.4996 25.8844,119.7876 L28.6774,122.7546 L24.0124,127.1436 L21.2204,124.1746 C20.0084,122.8866 20.0704,120.8606 21.3584,119.6486" id="Fill-65" fill="#06AABF"></path>
                <path d="M27.9141,110.9396 L27.9141,110.9396 C28.8931,109.4666 30.8811,109.0666 32.3531,110.0456 L35.7471,112.3026 L32.2011,117.6356 L28.8071,115.3786 C27.3341,114.3996 26.9351,112.4126 27.9141,110.9396" id="Fill-67" fill="#06AABF"></path>
                <path d="M15.9062,121.5353 L15.9062,121.5353 C14.5242,122.6393 12.5102,122.4143 11.4062,121.0323 L8.8622,117.8473 L13.8662,113.8503 L16.4092,117.0353 C17.5132,118.4173 17.2882,120.4313 15.9062,121.5353" id="Fill-69" fill="#06AABF"></path>
                <path d="M23.667,113.006 L23.667,113.006 C22.585,114.404 20.574,114.661 19.175,113.58 L15.951,111.087 L19.869,106.021 L23.092,108.514 C24.492,109.596 24.749,111.607 23.667,113.006" id="Fill-71" fill="#06AABF"></path>
                <path d="M28.0967,104.3683 L28.0967,104.3683 C27.0757,105.6893 25.1767,105.9313 23.8557,104.9103 L20.8107,102.5563 L24.5107,97.7723 L27.5547,100.1273 C28.8757,101.1483 29.1177,103.0473 28.0967,104.3683" id="Fill-73" fill="#06AABF"></path>
                <path d="M726.4619,81.0334 C732.3819,110.7164 705.5519,111.6374 688.8959,107.1564 C645.3479,95.4424 631.1989,40.0684 666.6829,12.9014 C715.7029,-24.6276 755.1279,34.7184 733.7119,65.4604 C728.2269,73.3324 725.6589,77.0104 726.4619,81.0334" id="Fill-75" fill="#EF7D67"></path>
                <path d="M697.7192,89.7453 C698.1772,95.0873 694.2172,99.7893 688.8752,100.2473 C683.5322,100.7053 678.8302,96.7463 678.3722,91.4033 C677.9142,86.0603 681.8732,81.3583 687.2162,80.9003 C692.5582,80.4423 697.2612,84.4023 697.7192,89.7453" id="Fill-77" fill="#FBF1E3"></path>
                <path d="M693.6079,89.8869 C693.7739,91.8219 692.3399,93.5249 690.4049,93.6909 C688.4699,93.8569 686.7669,92.4219 686.6009,90.4879 C686.4349,88.5519 687.8689,86.8489 689.8039,86.6839 C691.7389,86.5179 693.4419,87.9509 693.6079,89.8869" id="Fill-79" fill="#516E7D"></path>
                <path d="M674.8804,65.1691 C678.3934,70.0691 677.7064,76.4291 673.3474,79.3731 C668.9874,82.3171 662.6064,80.7321 659.0934,75.8321 C655.5814,70.9321 656.2674,64.5721 660.6274,61.6281 C664.9864,58.6831 671.3684,60.2691 674.8804,65.1691" id="Fill-81" fill="#FBF1E3"></path>
                <path d="M672.4023,67.6613 C673.4693,69.5693 672.7883,71.9813 670.8803,73.0493 C668.9723,74.1163 666.5603,73.4343 665.4933,71.5263 C664.4253,69.6183 665.1073,67.2063 667.0153,66.1393 C668.9233,65.0713 671.3353,65.7533 672.4023,67.6613" id="Fill-83" fill="#516E7D"></path>
                <path d="M710.5601,34.5891 C710.3101,39.4621 706.6671,43.1391 702.4231,42.8021 C698.1801,42.4651 694.9421,38.2421 695.1921,33.3701 C695.4431,28.4971 699.0861,24.8201 703.3301,25.1571 C707.5731,25.4931 710.8101,29.7171 710.5601,34.5891" id="Fill-85" fill="#FBF1E3"></path>
                <path d="M707.7354,34.9152 C707.4474,36.6612 705.7994,37.8442 704.0544,37.5562 C702.3084,37.2692 701.1264,35.6202 701.4134,33.8752 C701.7004,32.1292 703.3484,30.9462 705.0944,31.2342 C706.8404,31.5212 708.0224,33.1702 707.7354,34.9152" id="Fill-87" fill="#516E7D"></path>
                <path d="M688.3237,33.7746 C688.8477,36.5716 687.6037,39.0396 685.5447,39.2876 C683.4857,39.5346 681.3907,37.4676 680.8667,34.6706 C680.3437,31.8736 681.5877,29.4056 683.6467,29.1576 C685.7057,28.9106 687.7997,30.9766 688.3237,33.7746" id="Fill-89" fill="#FBF1E3"></path>
                <path d="M687.3799,34.2062 C687.4409,35.2372 686.6529,36.1232 685.6219,36.1842 C684.5899,36.2442 683.7049,35.4572 683.6449,34.4262 C683.5839,33.3942 684.3709,32.5092 685.4019,32.4482 C686.4339,32.3882 687.3189,33.1752 687.3799,34.2062" id="Fill-91" fill="#516E7D"></path>
                <path d="M724.5547,56.0344 C724.0407,60.8624 718.8957,64.4544 713.0647,64.0554 C707.2327,63.6584 702.9217,59.4224 703.4367,54.5934 C703.9507,49.7644 709.0947,46.1734 714.9267,46.5714 C720.7587,46.9694 725.0687,51.2054 724.5547,56.0344" id="Fill-93" fill="#FBF1E3"></path>
                <path d="M719.252,55.8547 C718.878,57.8597 716.95,59.1817 714.945,58.8087 C712.94,58.4347 711.618,56.5067 711.992,54.5017 C712.365,52.4977 714.294,51.1747 716.298,51.5477 C718.303,51.9217 719.626,53.8497 719.252,55.8547" id="Fill-95" fill="#516E7D"></path>
                <path d="M674.752,38.5197 C676.38,42.2327 674.14,46.9667 669.748,49.0957 C665.356,51.2237 660.477,49.9397 658.849,46.2267 C657.22,42.5137 659.46,37.7797 663.852,35.6507 C668.244,33.5227 673.124,34.8067 674.752,38.5197" id="Fill-97" fill="#FBF1E3"></path>
            </g>
            <g id="Group-102" transform="translate(960.000000, 96.000000)">
                <mask id="mask-6" fill="white">
                    <use xlink:href="#path-5"></use>
                </mask>
                <g id="Clip-101"></g>
                <path d="M25.0161,2.0383 C26.8491,7.3033 24.0691,13.0573 18.8051,14.8903 C13.5401,16.7243 7.7861,13.9423 5.9531,8.6793 C4.1191,3.4143 6.9001,-2.3397 12.1641,-4.1737 C17.4291,-6.0077 23.1831,-3.2267 25.0161,2.0383" id="Fill-100" fill="#516E7D" mask="url(#mask-6)"></path>
            </g>
            <g id="Group-109" transform="translate(981.000000, 111.000000)">
                <path d="M19.8838,9.6398 C20.3418,14.9828 16.3828,19.6848 11.0398,20.1428 C5.6968,20.6008 0.9948,16.6418 0.5368,11.2988 C0.0788,5.9558 4.0388,1.2538 9.3808,0.7958 C14.7238,0.3378 19.4258,4.2978 19.8838,9.6398" id="Fill-103" fill="#FBF1E3"></path>
                <path d="M16.2236,9.1135 C16.3896,11.0495 14.9546,12.7515 13.0206,12.9175 C11.0856,13.0835 9.3826,11.6495 9.2166,9.7145 C9.0506,7.7795 10.4846,6.0765 12.4196,5.9105 C14.3546,5.7445 16.0576,7.1785 16.2236,9.1135" id="Fill-105" fill="#516E7D"></path>
                <path d="M42.9443,30.2414 C43.4023,35.5844 39.4423,40.2864 34.1003,40.7444 C28.7573,41.2024 24.0553,37.2424 23.5973,31.8994 C23.1393,26.5574 27.0983,21.8554 32.4413,21.3974 C37.7833,20.9384 42.4863,24.8984 42.9443,30.2414" id="Fill-107" fill="#FBF1E3"></path>
            </g>
            <g id="Group-112" transform="translate(1004.000000, 132.000000)">
                <mask id="mask-8" fill="white">
                    <use xlink:href="#path-7"></use>
                </mask>
                <g id="Clip-111"></g>
                <path d="M24.978,6.6437 C25.457,12.2357 21.312,17.1577 15.72,17.6367 C10.128,18.1167 5.206,13.9717 4.727,8.3787 C4.247,2.7877 8.392,-2.1343 13.984,-2.6143 C19.577,-3.0933 24.499,1.0507 24.978,6.6437" id="Fill-110" fill="#516E7D" mask="url(#mask-8)"></path>
            </g>
            <g id="Group-143" transform="translate(251.000000, 47.000000)">
                <path d="M755.1343,106.9426 C755.7593,107.2756 756.1443,107.8416 756.3753,108.4776 C756.5923,109.1166 756.6023,109.8726 756.3483,110.5626 C756.0963,111.2476 755.6093,111.8616 755.0013,112.1826 C754.4053,112.5286 753.7323,112.6486 753.0543,112.5166 C753.3853,111.8856 753.7123,111.4616 753.9353,111.0256 C754.1933,110.6206 754.3223,110.2446 754.4673,109.8836 C754.7553,109.1546 754.8833,108.2836 755.1343,106.9426" id="Fill-113" fill="#FBF1E3"></path>
                <path d="M785.9077,228.7951 C781.6527,230.0521 777.1847,227.6221 775.9277,223.3681 C774.6707,219.1131 777.0997,214.6461 781.3547,213.3881 C785.6097,212.1311 790.0767,214.5611 791.3347,218.8161 C792.5917,223.0691 790.1617,227.5381 785.9077,228.7951" id="Fill-115" fill="#06AABF"></path>
                <path d="M852.2847,22.9025 C849.5397,26.3875 844.4897,26.9875 841.0037,24.2435 C837.5187,21.4985 836.9187,16.4475 839.6637,12.9625 C842.4087,9.4765 847.4597,8.8775 850.9447,11.6225 C854.4297,14.3675 855.0297,19.4185 852.2847,22.9025" id="Fill-117" fill="#4DB26F"></path>
                <path d="M826.6328,16.5617 C824.9728,18.6677 821.9198,19.0317 819.8118,17.3717 C817.7048,15.7117 817.3418,12.6587 819.0018,10.5507 C820.6618,8.4437 823.7158,8.0807 825.8228,9.7407 C827.9298,11.4007 828.2928,14.4547 826.6328,16.5617" id="Fill-119" fill="#4DB26F"></path>
                <path d="M137.2124,101.1691 C132.7764,101.2271 129.1334,97.6781 129.0754,93.2421 C129.0174,88.8061 132.5664,85.1631 137.0024,85.1051 C141.4374,85.0471 145.0814,88.5961 145.1394,93.0311 C145.1974,97.4671 141.6484,101.1101 137.2124,101.1691" id="Fill-121" fill="#F8B171"></path>
                <path d="M125.0845,116.9553 C122.6815,116.9863 120.7075,115.0633 120.6755,112.6603 C120.6445,110.2573 122.5665,108.2823 124.9705,108.2513 C127.3735,108.2203 129.3475,110.1433 129.3795,112.5463 C129.4105,114.9493 127.4875,116.9233 125.0845,116.9553" id="Fill-123" fill="#F8B171"></path>
                <path d="M842.1587,39.5773 C840.2367,39.8063 838.4937,38.4323 838.2657,36.5113 C838.0377,34.5903 839.4097,32.8473 841.3317,32.6183 C843.2537,32.3903 844.9957,33.7633 845.2247,35.6843 C845.4527,37.6063 844.0797,39.3483 842.1587,39.5773" id="Fill-125" fill="#4DB26F"></path>
                <path d="M676.2026,91.1135 C677.7486,92.2765 678.0596,94.4735 676.8966,96.0195 C675.7336,97.5665 673.5366,97.8775 671.9906,96.7145 C670.4446,95.5505 670.1336,93.3545 671.2966,91.8075 C672.4596,90.2605 674.6566,89.9505 676.2026,91.1135" id="Fill-127" fill="#EF7D67"></path>
                <path d="M661.1597,88.5178 C664.1397,90.7588 664.7387,94.9928 662.4967,97.9728 C660.2557,100.9528 656.0227,101.5518 653.0427,99.3098 C650.0617,97.0688 649.4637,92.8348 651.7047,89.8558 C653.9467,86.8748 658.1797,86.2768 661.1597,88.5178" id="Fill-129" fill="#EF7D67"></path>
                <path d="M167.8398,1.0695 C170.0408,2.0365 171.0408,4.6045 170.0728,6.8045 C169.1058,9.0055 166.5378,10.0055 164.3378,9.0385 C162.1368,8.0715 161.1368,5.5035 162.1048,3.3025 C163.0718,1.1025 165.6398,0.1025 167.8398,1.0695" id="Fill-131" fill="#EF7D67"></path>
                <path d="M133.8003,0.4426 C136.0003,1.4096 137.0003,3.9766 136.0333,6.1776 C135.0663,8.3786 132.4983,9.3786 130.2983,8.4116 C128.0973,7.4436 127.0973,4.8766 128.0643,2.6756 C129.0313,0.4746 131.5993,-0.5254 133.8003,0.4426" id="Fill-133" fill="#EF7D67"></path>
                <path d="M153.9409,34.3781 C148.2919,36.5781 141.9299,33.7821 139.7299,28.1331 C137.5299,22.4841 140.3269,16.1221 145.9759,13.9221 C151.6249,11.7231 157.9869,14.5191 160.1869,20.1681 C162.3859,25.8161 159.5899,32.1791 153.9409,34.3781" id="Fill-135" fill="#EF7D67"></path>
                <path d="M17.481,74.7863 C13.046,74.6753 9.542,70.9883 9.654,66.5543 C9.766,62.1183 13.452,58.6143 17.887,58.7263 C22.322,58.8383 25.826,62.5243 25.714,66.9593 C25.602,71.3933 21.916,74.8983 17.481,74.7863" id="Fill-137" fill="#06AABF"></path>
                <path d="M1.2241,88.8224 C-0.1089,87.4194 -0.0529,85.2014 1.3491,83.8684 C2.7521,82.5354 4.9691,82.5914 6.3031,83.9934 C7.6361,85.3954 7.5801,87.6134 6.1781,88.9474 C4.7751,90.2804 2.5571,90.2244 1.2241,88.8224" id="Fill-139" fill="#06AABF"></path>
                <path d="M13.7583,92.2082 C16.1573,89.9272 19.9513,90.0222 22.2323,92.4222 C24.5123,94.8202 24.4173,98.6142 22.0183,100.8962 C19.6193,103.1772 15.8253,103.0802 13.5443,100.6822 C11.2633,98.2822 11.3593,94.4882 13.7583,92.2082" id="Fill-141" fill="#06AABF"></path>
            </g>
        </g>
    </g>
</svg>