<?xml version="1.0" encoding="UTF-8"?>
<svg width="366px" height="366px" viewBox="0 0 366 366" version="1.1" xmlns="http://www.w3.org/2000/svg" xmlns:xlink="http://www.w3.org/1999/xlink">
    <!-- Generator: Sketch 55.2 (78181) - https://sketchapp.com -->
    <title>Group 202playground_obj</title>
    <desc>Created with Sketch.</desc>
    <defs>
        <path d="M0.956,182.902 C0.956,283.677 82.651,365.372 183.427,365.372 L183.427,365.372 C284.203,365.372 365.898,283.677 365.898,182.902 L365.898,182.902 C365.898,82.125 284.203,0.43 183.427,0.43 L183.427,0.43 C82.651,0.43 0.956,82.125 0.956,182.902 L0.956,182.902 Z" id="path-1"></path>
        <path d="M0.956,182.902 C0.956,283.677 82.651,365.372 183.427,365.372 L183.427,365.372 C284.203,365.372 365.898,283.677 365.898,182.902 L365.898,182.902 C365.898,82.125 284.203,0.43 183.427,0.43 L183.427,0.43 C82.651,0.43 0.956,82.125 0.956,182.902" id="path-3"></path>
        <path d="M0.956,182.902 C0.956,283.677 82.651,365.372 183.427,365.372 L183.427,365.372 C284.203,365.372 365.898,283.677 365.898,182.902 L365.898,182.902 C365.898,82.125 284.203,0.43 183.427,0.43 L183.427,0.43 C82.651,0.43 0.956,82.125 0.956,182.902 L0.956,182.902 Z" id="path-5"></path>
        <path d="M0.446,38.485 L38.599,38.485 C38.599,38.485 21.964,2.174 19.298,0.24 L19.298,0.24 C19.235,0.195 19.165,0.173 19.087,0.173 L19.087,0.173 C15.877,0.177 0.446,38.485 0.446,38.485 L0.446,38.485 Z" id="path-7"></path>
        <path d="M0.446,38.485 L38.599,38.485 C38.599,38.485 21.964,2.174 19.298,0.24 L19.298,0.24 C19.235,0.195 19.165,0.173 19.087,0.173 L19.087,0.173 C15.877,0.177 0.446,38.485 0.446,38.485" id="path-9"></path>
        <path d="M0.446,38.485 L38.599,38.485 C38.599,38.485 21.964,2.174 19.298,0.24 L19.298,0.24 C19.235,0.195 19.165,0.173 19.087,0.173 L19.087,0.173 C15.877,0.177 0.446,38.485 0.446,38.485" id="path-11"></path>
        <path d="M0.446,38.485 L38.599,38.485 C38.599,38.485 21.964,2.174 19.298,0.24 L19.298,0.24 C19.235,0.195 19.165,0.173 19.087,0.173 L19.087,0.173 C15.877,0.177 0.446,38.485 0.446,38.485" id="path-13"></path>
        <path d="M0.446,38.485 L38.599,38.485 C38.599,38.485 21.964,2.174 19.298,0.24 L19.298,0.24 C19.235,0.195 19.165,0.173 19.087,0.173 L19.087,0.173 C15.877,0.177 0.446,38.485 0.446,38.485" id="path-15"></path>
        <path d="M0.446,38.485 L38.599,38.485 C38.599,38.485 21.964,2.174 19.298,0.24 L19.298,0.24 C19.235,0.195 19.165,0.173 19.087,0.173 L19.087,0.173 C15.877,0.177 0.446,38.485 0.446,38.485" id="path-17"></path>
        <path d="M0.956,182.902 C0.956,283.677 82.651,365.372 183.427,365.372 L183.427,365.372 C284.203,365.372 365.898,283.677 365.898,182.902 L365.898,182.902 C365.898,82.125 284.203,0.43 183.427,0.43 L183.427,0.43 C82.651,0.43 0.956,82.125 0.956,182.902" id="path-19"></path>
        <path d="M0.956,182.902 C0.956,283.677 82.651,365.372 183.427,365.372 L183.427,365.372 C284.203,365.372 365.898,283.677 365.898,182.902 L365.898,182.902 C365.898,82.125 284.203,0.43 183.427,0.43 L183.427,0.43 C82.651,0.43 0.956,82.125 0.956,182.902" id="path-21"></path>
        <path d="M0.956,182.902 C0.956,283.677 82.651,365.372 183.427,365.372 L183.427,365.372 C284.203,365.372 365.898,283.677 365.898,182.902 L365.898,182.902 C365.898,82.125 284.203,0.43 183.427,0.43 L183.427,0.43 C82.651,0.43 0.956,82.125 0.956,182.902" id="path-23"></path>
        <path d="M0.956,182.902 C0.956,283.677 82.651,365.372 183.427,365.372 L183.427,365.372 C284.203,365.372 365.898,283.677 365.898,182.902 L365.898,182.902 C365.898,82.125 284.203,0.43 183.427,0.43 L183.427,0.43 C82.651,0.43 0.956,82.125 0.956,182.902" id="path-25"></path>
        <path d="M0.956,182.902 C0.956,283.677 82.651,365.372 183.427,365.372 L183.427,365.372 C284.203,365.372 365.898,283.677 365.898,182.902 L365.898,182.902 C365.898,82.125 284.203,0.43 183.427,0.43 L183.427,0.43 C82.651,0.43 0.956,82.125 0.956,182.902" id="path-27"></path>
        <path d="M0.956,182.902 C0.956,283.677 82.651,365.372 183.427,365.372 L183.427,365.372 C284.203,365.372 365.898,283.677 365.898,182.902 L365.898,182.902 C365.898,82.125 284.203,0.43 183.427,0.43 L183.427,0.43 C82.651,0.43 0.956,82.125 0.956,182.902" id="path-29"></path>
        <path d="M0.956,182.902 C0.956,283.677 82.651,365.372 183.427,365.372 L183.427,365.372 C284.203,365.372 365.898,283.677 365.898,182.902 L365.898,182.902 C365.898,82.125 284.203,0.43 183.427,0.43 L183.427,0.43 C82.651,0.43 0.956,82.125 0.956,182.902" id="path-31"></path>
        <path d="M0.956,182.902 C0.956,283.677 82.651,365.372 183.427,365.372 L183.427,365.372 C284.203,365.372 365.898,283.677 365.898,182.902 L365.898,182.902 C365.898,82.125 284.203,0.43 183.427,0.43 L183.427,0.43 C82.651,0.43 0.956,82.125 0.956,182.902" id="path-33"></path>
        <path d="M0.956,182.902 C0.956,283.677 82.651,365.372 183.427,365.372 L183.427,365.372 C284.203,365.372 365.898,283.677 365.898,182.902 L365.898,182.902 C365.898,82.125 284.203,0.43 183.427,0.43 L183.427,0.43 C82.651,0.43 0.956,82.125 0.956,182.902 L0.956,182.902 Z" id="path-35"></path>
        <path d="M0.956,182.902 C0.956,283.677 82.651,365.372 183.427,365.372 L183.427,365.372 C284.203,365.372 365.898,283.677 365.898,182.902 L365.898,182.902 C365.898,82.125 284.203,0.43 183.427,0.43 L183.427,0.43 C82.651,0.43 0.956,82.125 0.956,182.902" id="path-37"></path>
        <path d="M0.956,182.902 C0.956,283.677 82.651,365.372 183.427,365.372 L183.427,365.372 C284.203,365.372 365.898,283.677 365.898,182.902 L365.898,182.902 C365.898,82.125 284.203,0.43 183.427,0.43 L183.427,0.43 C82.651,0.43 0.956,82.125 0.956,182.902" id="path-39"></path>
        <path d="M0.956,182.902 C0.956,283.677 82.651,365.372 183.427,365.372 L183.427,365.372 C284.203,365.372 365.898,283.677 365.898,182.902 L365.898,182.902 C365.898,82.125 284.203,0.43 183.427,0.43 L183.427,0.43 C82.651,0.43 0.956,82.125 0.956,182.902 L0.956,182.902 Z" id="path-41"></path>
        <path d="M0.956,182.902 C0.956,283.677 82.651,365.372 183.427,365.372 L183.427,365.372 C284.203,365.372 365.898,283.677 365.898,182.902 L365.898,182.902 C365.898,82.125 284.203,0.43 183.427,0.43 L183.427,0.43 C82.651,0.43 0.956,82.125 0.956,182.902" id="path-43"></path>
        <path d="M0.956,182.902 C0.956,283.677 82.651,365.372 183.427,365.372 L183.427,365.372 C284.203,365.372 365.898,283.677 365.898,182.902 L365.898,182.902 C365.898,82.125 284.203,0.43 183.427,0.43 L183.427,0.43 C82.651,0.43 0.956,82.125 0.956,182.902" id="path-45"></path>
        <path d="M0.956,182.902 C0.956,283.677 82.651,365.372 183.427,365.372 L183.427,365.372 C284.203,365.372 365.898,283.677 365.898,182.902 L365.898,182.902 C365.898,82.125 284.203,0.43 183.427,0.43 L183.427,0.43 C82.651,0.43 0.956,82.125 0.956,182.902" id="path-47"></path>
    </defs>
    <g id="Page-1" stroke="none" stroke-width="1" fill="none" fill-rule="evenodd">
        <g id="Group-202">
            <g id="Group-136" transform="translate(0.000000, 0.535000)">
                <g id="Group-3">
                    <mask id="mask-2" fill="white">
                        <use xlink:href="#path-1"></use>
                    </mask>
                    <g id="Clip-2"></g>
                    <polygon id="Fill-1" fill="#7DA81E" mask="url(#mask-2)" points="801.8275 -78.5353 801.8275 504.9997 -644.0005 504.9997 -644.0005 -61.2953"></polygon>
                </g>
                <g id="Group-6">
                    <mask id="mask-4" fill="white">
                        <use xlink:href="#path-3"></use>
                    </mask>
                    <g id="Clip-5"></g>
                    <path d="M131.4554,152.0941 L62.4424,152.0941 C60.3194,152.0941 58.5984,150.3731 58.5984,148.2501 C58.5984,146.1261 60.3194,144.4061 62.4424,144.4061 L131.4554,144.4061 C133.5794,144.4061 135.2994,146.1261 135.2994,148.2501 C135.2994,150.3731 133.5794,152.0941 131.4554,152.0941" id="Fill-4" fill="#C99D66" mask="url(#mask-4)"></path>
                </g>
                <mask id="mask-6" fill="white">
                    <use xlink:href="#path-5"></use>
                </mask>
                <g id="Clip-8"></g>
                <polygon id="Fill-7" fill="#608B06" mask="url(#mask-6)" points="73.723 148.25 76.799 148.25 76.799 119.766 73.723 119.766"></polygon>
                <path d="M79.2015,110.3788 L75.6525,106.8288 C75.4365,106.6118 75.0855,106.6118 74.8695,106.8288 L71.3205,110.3788 L68.3255,107.3828 C67.9765,107.0338 67.3805,107.2808 67.3805,107.7748 L67.3805,117.0368 C67.3805,121.3758 70.7755,125.0978 75.1145,125.1778 C79.5335,125.2568 83.1425,121.6998 83.1425,117.2978 L83.1425,107.7748 C83.1425,107.2808 82.5465,107.0338 82.1975,107.3828 L79.2015,110.3788 Z" id="Fill-9" fill="#DF51CD" mask="url(#mask-6)"></path>
                <polygon id="Fill-10" fill="#608B06" mask="url(#mask-6)" points="98.691 148.25 101.766 148.25 101.766 119.766 98.691 119.766"></polygon>
                <path d="M104.1688,110.3788 L100.6198,106.8288 C100.4038,106.6118 100.0528,106.6118 99.8368,106.8288 L96.2878,110.3788 L93.2928,107.3828 C92.9438,107.0338 92.3478,107.2808 92.3478,107.7748 L92.3478,117.0368 C92.3478,121.3758 95.7428,125.0978 100.0818,125.1778 C104.5008,125.2568 108.1088,121.6998 108.1088,117.2978 L108.1088,107.7748 C108.1088,107.2808 107.5128,107.0338 107.1648,107.3828 L104.1688,110.3788 Z" id="Fill-11" fill="#DF51CD" mask="url(#mask-6)"></path>
                <polygon id="Fill-12" fill="#608B06" mask="url(#mask-6)" points="123.658 148.25 126.733 148.25 126.733 119.766 123.658 119.766"></polygon>
                <path d="M129.1361,110.3788 L125.5871,106.8288 C125.3711,106.6118 125.0201,106.6118 124.8041,106.8288 L121.2551,110.3788 L118.2591,107.3828 C117.9111,107.0338 117.3151,107.2808 117.3151,107.7748 L117.3151,117.0368 C117.3151,121.3758 120.7101,125.0978 125.0491,125.1778 C129.4681,125.2568 133.0761,121.6998 133.0761,117.2978 L133.0761,107.7748 C133.0761,107.2808 132.4801,107.0338 132.1321,107.3828 L129.1361,110.3788 Z" id="Fill-13" fill="#DF51CD" mask="url(#mask-6)"></path>
                <polygon id="Fill-14" fill="#FECEB7" mask="url(#mask-6)" points="264.6879 171.1044 264.7399 191.4864 261.2409 193.4574 269.1419 195.2634 273.3269 176.9594"></polygon>
                <polygon id="Fill-15" fill="#FECEB7" mask="url(#mask-6)" points="285.7015 172.7045 281.1085 192.5615 284.0805 195.2635 275.9755 195.2635 275.9755 176.4875"></polygon>
                <path d="M269.7748,154.9198 C269.7748,154.9198 257.2288,157.4608 257.2288,172.7048 L260.8938,172.7048 C260.8938,172.7048 262.7848,163.9068 270.2318,163.8118 L269.7748,154.9198 Z" id="Fill-16" fill="#FECEB7" mask="url(#mask-6)"></path>
                <path d="M280.5863,154.9198 L280.1293,163.8118 C287.5763,163.9068 289.4673,172.7048 289.4673,172.7048 L293.1313,172.7048 C293.1313,157.4608 280.5863,154.9198 280.5863,154.9198" id="Fill-17" fill="#FECEB7" mask="url(#mask-6)"></path>
                <path d="M280.5345,154.9198 L275.1545,152.6888 L269.7745,154.9198 C269.7745,154.9198 262.5575,162.6618 265.1815,175.3898 C267.6755,182.4758 275.1545,180.6378 275.1545,181.2948 C275.1545,180.6378 282.6335,182.4758 285.1265,175.3898 C287.7515,162.6618 280.5345,154.9198 280.5345,154.9198" id="Fill-18" fill="#FECEB7" mask="url(#mask-6)"></path>
                <path d="M282.7655,94.0927 C282.7655,94.0927 305.5365,87.6037 308.0515,95.3847 C310.5665,103.1657 289.9985,104.0057 289.9985,104.0057" id="Fill-19" fill="#1F70B7" mask="url(#mask-6)"></path>
                <path d="M260.1039,160.1332 L263.9979,167.3142 L267.8919,165.2912 L284.1239,165.0892 L286.1459,166.9912 L289.3819,159.6782 C289.3819,159.6782 286.4639,157.0572 283.0939,155.7882 C281.0889,155.2792 271.3799,150.8292 260.1039,160.1332" id="Fill-20" fill="#33AB67" mask="url(#mask-6)"></path>
                <path d="M272.952,162.8636 C272.952,162.8636 270.111,161.7206 271.056,160.7976 C272.002,159.8746 273.94,160.5166 273.94,160.5166 C273.94,160.5166 274.378,158.3176 275.389,158.3876 C276.399,158.4576 276.843,160.7486 276.843,160.7486 C276.843,160.7486 279.232,160.0086 279.183,161.4656 C279.136,162.9236 277.523,163.0626 277.523,163.0626 C277.523,163.0626 278.637,165.1156 277.703,165.5976 C276.769,166.0796 275.162,164.2476 275.162,164.2476 C275.162,164.2476 274.54,165.8846 273.395,165.8006 C272.25,165.7156 272.952,162.8636 272.952,162.8636" id="Fill-21" fill="#058C36" mask="url(#mask-6)"></path>
                <path d="M264.6825,167.9393 L261.6965,189.1723 L271.2715,191.2673 L272.9205,181.7873 L275.3075,181.9523 L275.1545,191.2673 L284.8275,191.2673 C284.8275,191.2673 286.3405,175.8723 285.7015,168.3513 C284.8245,158.0193 283.5675,155.7883 283.5675,155.7883 L281.3925,155.1393 L281.7405,163.8123 L268.9635,163.8123 L268.6715,155.2363 L266.1175,155.9923 C266.1175,155.9923 265.5365,160.6033 264.6825,167.9393" id="Fill-22" fill="#38A8E0" mask="url(#mask-6)"></path>
                <path d="M275.3636,90.1483 C275.3636,90.1483 252.1946,88.3013 242.4766,110.6543 C232.7576,133.0073 247.8336,143.6673 257.5946,145.7233 C267.3566,147.7803 299.6206,147.6833 307.3476,137.9643 C315.0756,128.2453 312.8396,89.6623 275.3636,90.1483" id="Fill-23" fill="#F8B033" mask="url(#mask-6)"></path>
                <path d="M243.3788,126.307 C243.3788,142.684 257.6988,155.959 275.3638,155.959 C293.0278,155.959 307.3478,142.684 307.3478,126.307 C307.3478,109.931 293.0278,96.655 275.3638,96.655 C257.6988,96.655 243.3788,109.931 243.3788,126.307" id="Fill-24" fill="#FECEB7" mask="url(#mask-6)"></path>
                <path d="M253.3793,129.1429 C253.3793,132.8909 256.4173,135.9279 260.1643,135.9279 C263.9113,135.9279 266.9493,132.8909 266.9493,129.1429 C266.9493,125.3959 263.9113,122.3579 260.1643,122.3579 C256.4173,122.3579 253.3793,125.3959 253.3793,129.1429" id="Fill-25" fill="#FFFFFF" mask="url(#mask-6)"></path>
                <path d="M254.7928,129.1429 C254.7928,132.1099 257.1978,134.5149 260.1648,134.5149 C263.1308,134.5149 265.5358,132.1099 265.5358,129.1429 C265.5358,126.1769 263.1308,123.7709 260.1648,123.7709 C257.1978,123.7709 254.7928,126.1769 254.7928,129.1429" id="Fill-26" fill="#432918" mask="url(#mask-6)"></path>
                <path d="M283.6757,129.1429 C283.6757,132.8909 286.7137,135.9279 290.4607,135.9279 C294.2077,135.9279 297.2457,132.8909 297.2457,129.1429 C297.2457,125.3959 294.2077,122.3579 290.4607,122.3579 C286.7137,122.3579 283.6757,125.3959 283.6757,129.1429" id="Fill-27" fill="#FFFFFF" mask="url(#mask-6)"></path>
                <path d="M285.0892,129.1429 C285.0892,132.1099 287.4942,134.5149 290.4612,134.5149 C293.4272,134.5149 295.8322,132.1099 295.8322,129.1429 C295.8322,126.1769 293.4272,123.7709 290.4612,123.7709 C287.4942,123.7709 285.0892,126.1769 285.0892,129.1429" id="Fill-28" fill="#432918" mask="url(#mask-6)"></path>
                <path d="M257.724,95.494 C257.724,95.494 269.004,124.748 309.042,127.427 C310.848,97.775 291.262,86.909 257.724,95.494" id="Fill-29" fill="#F8B033" mask="url(#mask-6)"></path>
                <path d="M245.1669,127.5917 C245.1669,127.5917 240.9419,125.1507 239.4399,129.1877 C237.9379,133.2247 241.7999,137.8787 247.3259,137.5697 L245.1669,127.5917 Z" id="Fill-30" fill="#FECEB7" mask="url(#mask-6)"></path>
                <path d="M306.0736,127.5917 C306.0736,127.5917 310.2986,125.1507 311.8006,129.1877 C313.3026,133.2247 309.4406,137.8787 303.9146,137.5697 L306.0736,127.5917 Z" id="Fill-31" fill="#FECEB7" mask="url(#mask-6)"></path>
                <path d="M256.2181,136.7123 C256.3611,135.6543 255.0371,134.4453 253.2601,134.0123 C251.4841,133.5793 249.9271,134.0863 249.7851,135.1443 C249.6421,136.2023 250.9661,137.4113 252.7421,137.8443 C254.5191,138.2773 256.0751,137.7713 256.2181,136.7123" id="Fill-32" fill="#FEAD8C" mask="url(#mask-6)"></path>
                <path d="M294.4066,136.7123 C294.2636,135.6543 295.5886,134.4453 297.3646,134.0123 C299.1406,133.5793 300.6976,134.0863 300.8406,135.1443 C300.9836,136.2023 299.6586,137.4113 297.8826,137.8443 C296.1056,138.2773 294.5496,137.7713 294.4066,136.7123" id="Fill-33" fill="#FEAD8C" mask="url(#mask-6)"></path>
                <path d="M264.7396,191.2675 L269.7266,192.7055 L269.1416,195.2635 L260.9456,193.3745 C260.9456,193.3745 261.4806,190.4705 264.7396,191.2675" id="Fill-34" fill="#1F70B7" mask="url(#mask-6)"></path>
                <path d="M275.9755,192.8651 L281.1085,192.5621 C281.1085,192.5621 284.0805,191.9041 284.0805,195.2631 L275.9755,195.2631 L275.9755,192.8651 Z" id="Fill-35" fill="#1F70B7" mask="url(#mask-6)"></path>
                <path d="M278.6,137.2855 C278.229,138.4595 277.049,141.3975 274.569,141.1915 C272.185,140.9925 271.513,138.5045 271.329,137.3695 C270.012,137.5565 268.14,138.7825 270.425,141.0615 C270.454,141.0895 270.482,141.1185 270.51,141.1455 C272.641,143.2025 276.137,143.2565 278.66,141.4595 C279.649,140.7555 280.636,139.8325 280.649,138.9515 C280.674,137.3245 279.689,137.0225 278.6,137.2855" id="Fill-36" fill="#E84E1B" mask="url(#mask-6)"></path>
                <path d="M274.5687,141.1913 C277.4927,141.4473 278.2287,138.4603 278.5997,137.2853 C277.8807,137.4603 277.1157,137.8783 276.5677,138.3333 C275.1877,139.4763 273.0727,137.8203 272.1277,137.4193 C271.9417,137.3393 271.6517,137.3243 271.3287,137.3703 C271.5127,138.5043 272.1857,140.9833 274.5687,141.1913" id="Fill-37" fill="#FFFFFF" mask="url(#mask-6)"></path>
                <polygon id="Fill-38" fill="#FFFFFF" mask="url(#mask-6)" points="285.8588 174.7572 263.7238 174.7572 263.7918 174.2732 285.8588 174.2732"></polygon>
                <path d="M264.4198,180.476 C263.5808,180.476 262.9818,180.365 262.9238,180.353 L263.0158,179.878 C263.0488,179.884 266.2788,180.478 268.3128,178.797 C269.4258,177.877 269.9898,176.437 269.9898,174.515 L270.4738,174.515 C270.4738,176.589 269.8498,178.156 268.6198,179.172 C267.3158,180.247 265.6218,180.476 264.4198,180.476" id="Fill-39" fill="#FFFFFF" mask="url(#mask-6)"></path>
                <path d="M284.681,180.5326 C283.598,180.5326 281.847,180.3266 280.503,179.1766 C279.299,178.1446 278.688,176.5756 278.688,174.5146 L279.173,174.5146 C279.173,176.4286 279.727,177.8726 280.819,178.8086 C282.7,180.4196 285.753,179.9366 285.679,179.9636 L285.635,180.4756 C285.592,180.4826 285.25,180.5326 284.681,180.5326" id="Fill-40" fill="#FFFFFF" mask="url(#mask-6)"></path>
                <polygon id="Fill-41" fill="#FFFFFF" mask="url(#mask-6)" points="271.5712 189.5131 261.9032 187.6141 261.9962 187.1381 271.6652 189.0371"></polygon>
                <polygon id="Fill-42" fill="#FFFFFF" mask="url(#mask-6)" points="275.1884 189.6869 275.1804 189.2019 285.0294 189.0329 284.9874 189.5179"></polygon>
                <polygon id="Fill-43" fill="#FFFFFF" mask="url(#mask-6)" points="265.2064 163.8187 265.1844 163.3347 268.9374 163.1597 268.9604 163.6437"></polygon>
                <polygon id="Fill-44" fill="#FFFFFF" mask="url(#mask-6)" points="285.1947 163.8187 281.7127 163.6437 281.7367 163.1597 285.2187 163.3347"></polygon>
                <path d="M270.4838,166.3109 C270.5148,166.7709 270.6338,167.8209 271.1038,168.8549 C271.9208,170.6579 273.3738,171.5719 275.4208,171.5719 C276.7958,171.5719 277.9078,171.1509 278.7238,170.3219 C280.0218,169.0029 280.2358,166.9959 280.2718,166.3109 L270.4838,166.3109 Z M275.4208,172.0559 C273.9098,172.0559 272.6748,171.5859 271.7498,170.6609 C270.0048,168.9129 269.9898,166.1839 269.9898,166.0679 L269.9898,165.8269 L280.7578,165.8269 L280.7628,166.0639 C280.7648,166.1799 280.7908,168.9099 279.0718,170.6589 C278.1598,171.5859 276.9318,172.0559 275.4208,172.0559 L275.4208,172.0559 Z" id="Fill-45" fill="#FFFFFF" mask="url(#mask-6)"></path>
                <polygon id="Fill-46" fill="#FFFFFF" mask="url(#mask-6)" points="266.83 165.181 267.314 165.181 267.314 163.49 266.83 163.49"></polygon>
                <polygon id="Fill-47" fill="#FFFFFF" mask="url(#mask-6)" points="283.224 164.818 283.708 164.818 283.708 163.489 283.224 163.489"></polygon>
                <path d="M266.3724,165.1801 C266.3724,165.5671 266.6854,165.8801 267.0724,165.8801 C267.4584,165.8801 267.7724,165.5671 267.7724,165.1801 C267.7724,164.7941 267.4584,164.4801 267.0724,164.4801 C266.6854,164.4801 266.3724,164.7941 266.3724,165.1801" id="Fill-48" fill="#FFFFFF" mask="url(#mask-6)"></path>
                <path d="M282.7655,165.1801 C282.7655,165.5671 283.0785,165.8801 283.4655,165.8801 C283.8525,165.8801 284.1655,165.5671 284.1655,165.1801 C284.1655,164.7941 283.8525,164.4801 283.4655,164.4801 C283.0785,164.4801 282.7655,164.7941 282.7655,165.1801" id="Fill-49" fill="#FFFFFF" mask="url(#mask-6)"></path>
                <path d="M259.1888,99.2762 C268.7288,89.9902 271.9888,101.0382 271.9888,101.0382 C264.3308,101.6482 259.1888,99.2762 259.1888,99.2762 M275.8848,83.7062 C255.1518,84.0872 249.3128,100.3842 249.3128,100.3842 C249.3128,100.3842 259.2358,107.1822 286.2888,104.2922 C301.5768,102.6582 303.2768,101.5972 303.2768,101.5972 C303.2768,101.5972 296.6168,83.3242 275.8848,83.7062" id="Fill-50" fill="#672483" mask="url(#mask-6)"></path>
                <polygon id="Fill-51" fill="#1F70B7" mask="url(#mask-6)" points="268.8485 100.9252 268.8485 105.2032 272.5265 105.2032 271.9895 100.9252"></polygon>
                <path d="M260.6473,172.1342 C260.6473,172.1342 262.5543,173.4522 262.9153,175.3582 C263.2763,177.2642 261.7513,176.6452 261.0983,174.4032 C261.3013,178.2062 260.3513,178.8392 259.9623,178.4912 C259.3993,177.9862 259.4773,175.9232 259.4773,175.9232 C259.4773,175.9232 259.4043,178.0482 258.5613,178.4152 C257.7183,178.7822 257.9903,175.7972 257.9903,175.7972 C257.9903,175.7972 257.6273,177.7082 256.9753,177.7962 C256.3243,177.8842 256.8873,174.9942 256.8873,174.9942 C256.8873,174.9942 256.5283,176.1152 255.8823,175.9282 C255.2363,175.7412 256.0613,172.1852 258.1203,171.1042" id="Fill-52" fill="#FECEB7" mask="url(#mask-6)"></path>
                <path d="M289.85,172.1342 C289.85,172.1342 287.943,173.4522 287.581,175.3582 C287.22,177.2642 288.746,176.6452 289.399,174.4032 C289.195,178.2062 290.146,178.8392 290.535,178.4912 C291.098,177.9862 291.02,175.9232 291.02,175.9232 C291.02,175.9232 291.092,178.0482 291.936,178.4152 C292.779,178.7822 292.506,175.7972 292.506,175.7972 C292.506,175.7972 292.87,177.7082 293.521,177.7962 C294.173,177.8842 293.61,174.9942 293.61,174.9942 C293.61,174.9942 293.969,176.1152 294.615,175.9282 C295.26,175.7412 294.436,172.1852 292.377,171.1042" id="Fill-53" fill="#FECEB7" mask="url(#mask-6)"></path>
                <path d="M243.5292,131.9139 C243.6742,131.5009 243.9442,131.4329 244.2072,131.4909 C244.0372,130.5179 243.9752,129.9099 243.9752,129.9099 C243.9622,129.8959 243.9482,129.8829 243.9342,129.8699 C242.6072,128.5949 240.4292,130.0179 240.9982,131.7679 C241.4392,133.1229 242.8732,133.9889 244.8612,134.4469 C244.7222,133.9319 244.6042,133.4409 244.5032,132.9839 C243.9602,132.8239 243.3212,132.5059 243.5292,131.9139" id="Fill-54" fill="#FEAD8C" mask="url(#mask-6)"></path>
                <path d="M307.2225,131.9139 C307.0765,131.5009 306.8075,131.4329 306.5445,131.4909 C306.7145,130.5179 306.7765,129.9099 306.7765,129.9099 C306.7895,129.8959 306.8035,129.8829 306.8175,129.8699 C308.1435,128.5949 310.3225,130.0179 309.7525,131.7679 C309.3125,133.1229 307.8785,133.9889 305.8905,134.4469 C306.0295,133.9319 306.1465,133.4409 306.2475,132.9839 C306.7915,132.8239 307.4305,132.5059 307.2225,131.9139" id="Fill-55" fill="#FEAD8C" mask="url(#mask-6)"></path>
                <path d="M307.2655,107.4979 C306.9495,107.6079 306.6215,107.7209 306.2785,107.8339 C298.7045,110.3509 284.4615,113.6819 271.3285,113.0609 C276.4515,117.4279 283.3225,121.6429 292.2855,124.4199 C297.4085,124.3059 303.1765,123.9219 309.3495,123.1149 C309.9385,123.0379 310.5295,122.9589 311.1255,122.8749 C310.9425,117.8969 309.7675,112.4729 307.2655,107.4979" id="Fill-56" fill="#F9C573" mask="url(#mask-6)"></path>
                <path d="M248.1742,110.684 L243.3792,108.723 C243.3792,108.723 241.8972,111.6 241.1362,114.112 C242.8522,115.25 245.1652,116.516 245.1652,116.516 C245.1652,116.516 246.3602,113.253 248.1742,110.684" id="Fill-57" fill="#F9C573" mask="url(#mask-6)"></path>
                <polygon id="Fill-58" fill="#058C36" mask="url(#mask-6)" points="260.1039 160.1332 260.8269 159.5532 264.8039 166.8952 263.9979 167.3142"></polygon>
                <polygon id="Fill-59" fill="#058C36" mask="url(#mask-6)" points="286.1459 166.9916 285.5229 166.4056 288.6669 159.0826 289.3819 159.6786"></polygon>
                <path d="M255.3207,120.4916 C255.3207,120.4916 258.8007,114.4066 266.8527,117.4956 C263.1077,112.4406 255.7727,114.9676 255.3207,120.4916" id="Fill-60" fill="#F29101" mask="url(#mask-6)"></path>
                <path d="M297.1483,120.4916 C297.1483,120.4916 293.6693,114.4066 285.6173,117.4956 C289.3623,112.4406 296.6963,114.9676 297.1483,120.4916" id="Fill-61" fill="#F29101" mask="url(#mask-6)"></path>
                <path d="M284.8256,166.5267 C284.8256,167.0347 284.9456,167.6417 284.9296,168.1237 C299.6006,168.8387 313.0776,172.4837 313.1246,177.0737 C313.1776,182.1697 298.1426,185.9187 280.3236,186.0287 C262.5036,186.1407 247.2236,182.5797 247.1706,177.4837 C247.1366,174.1607 254.5266,171.1167 263.9766,169.4157 C264.1026,168.7387 264.1216,168.0127 264.1796,167.6037 C252.5726,169.3907 244.6156,173.0517 244.6156,177.2787 C244.6156,183.2637 260.5786,188.1167 280.2716,188.1167 C299.9636,188.1167 315.9276,183.2637 315.9276,177.2787 C315.9276,171.7617 302.3676,167.2077 284.8256,166.5267" id="Fill-62" fill="#FF8E01" mask="url(#mask-6)"></path>
                <polygon id="Fill-63" fill="#C89D67" mask="url(#mask-6)" points="170.5253 276.309 174.5463 293.694 180.9913 293.694 180.9913 280.379"></polygon>
                <polygon id="Fill-64" fill="#C89D67" mask="url(#mask-6)" points="192.7596 276.309 182.2936 280.379 182.2936 293.694 188.7386 293.694"></polygon>
                <polygon id="Fill-65" fill="#FFFFFF" mask="url(#mask-6)" points="175.4677 297.6776 172.2697 300.5846 180.9917 300.5846 180.9917 293.6946 174.5467 293.6946"></polygon>
                <polygon id="Fill-66" fill="#FFFFFF" mask="url(#mask-6)" points="188.7386 293.6942 182.2936 293.6942 182.2936 300.5852 191.0156 300.5852 187.8176 297.6772"></polygon>
                <path d="M187.432,257.1708 L181.642,254.7708 L175.853,257.1708 C175.853,257.1708 168.087,265.5018 170.911,279.1978 C173.594,286.8228 181.642,284.8468 181.642,285.5528 C181.642,284.8468 189.691,286.8228 192.374,279.1978 C195.198,265.5018 187.432,257.1708 187.432,257.1708" id="Fill-67" fill="#53CAFE" mask="url(#mask-6)"></path>
                <polygon id="Fill-68" fill="#53CAFE" mask="url(#mask-6)" points="173.0189 271.118 163.2759 277.097 161.0389 273.629 175.2089 257.96"></polygon>
                <path d="M187.9286,257.6566 C187.9286,257.6566 191.9226,265.5386 201.2146,258.8236 L203.3666,261.2786 C203.3666,261.2786 199.1836,272.6956 189.4116,267.6256" id="Fill-69" fill="#53CAFE" mask="url(#mask-6)"></path>
                <path d="M146.1307,237.8226 C146.1307,237.8226 136.7477,222.3366 146.1307,202.0536 C155.5127,181.7716 190.6967,174.3206 211.2557,196.8106 C231.8147,219.3016 214.5287,238.6506 214.5287,238.6506" id="Fill-70" fill="#683C11" mask="url(#mask-6)"></path>
                <path d="M181.1639,261.6835 C179.9769,262.8705 177.8909,262.7085 176.5039,261.3225 C175.1179,259.9355 174.9559,257.8495 176.1429,256.6625 C177.3299,255.4755 179.4159,255.6365 180.8029,257.0235 C182.1889,258.4105 182.3509,260.4965 181.1639,261.6835" id="Fill-71" fill="#38A8E0" mask="url(#mask-6)"></path>
                <path d="M182.1224,261.6835 C183.3094,262.8705 185.3954,262.7085 186.7824,261.3225 C188.1694,259.9355 188.3304,257.8495 187.1434,256.6625 C185.9564,255.4755 183.8704,255.6365 182.4834,257.0235 C181.0974,258.4105 180.9354,260.4965 182.1224,261.6835" id="Fill-72" fill="#38A8E0" mask="url(#mask-6)"></path>
                <path d="M146.8851,228.5521 C146.8851,245.8691 162.0271,259.9081 180.7071,259.9081 C199.3861,259.9081 214.5291,245.8691 214.5291,228.5521 C214.5291,211.2351 199.3861,197.1971 180.7071,197.1971 C162.0271,197.1971 146.8851,211.2351 146.8851,228.5521" id="Fill-73" fill="#C89D67" mask="url(#mask-6)"></path>
                <path d="M156.9999,230.0131 C156.9999,234.0451 160.2689,237.3141 164.3009,237.3141 C168.3329,237.3141 171.6029,234.0451 171.6029,230.0131 C171.6029,225.9811 168.3329,222.7121 164.3009,222.7121 C160.2689,222.7121 156.9999,225.9811 156.9999,230.0131" id="Fill-74" fill="#FFFFFF" mask="url(#mask-6)"></path>
                <path d="M157.577,230.0131 C157.577,233.2051 160.165,235.7931 163.357,235.7931 C166.55,235.7931 169.138,233.2051 169.138,230.0131 C169.138,226.8211 166.55,224.2331 163.357,224.2331 C160.165,224.2331 157.577,226.8211 157.577,230.0131" id="Fill-75" fill="#432918" mask="url(#mask-6)"></path>
                <path d="M189.6014,230.0131 C189.6014,234.0451 192.8704,237.3141 196.9024,237.3141 C200.9354,237.3141 204.2044,234.0451 204.2044,230.0131 C204.2044,225.9811 200.9354,222.7121 196.9024,222.7121 C192.8704,222.7121 189.6014,225.9811 189.6014,230.0131" id="Fill-76" fill="#FFFFFF" mask="url(#mask-6)"></path>
                <path d="M190.1791,230.0131 C190.1791,233.2051 192.7671,235.7931 195.9591,235.7931 C199.1511,235.7931 201.7391,233.2051 201.7391,230.0131 C201.7391,226.8211 199.1511,224.2331 195.9591,224.2331 C192.7671,224.2331 190.1791,226.8211 190.1791,230.0131" id="Fill-77" fill="#432918" mask="url(#mask-6)"></path>
                <path d="M160.0546,238.1586 C160.2086,237.0196 158.7836,235.7186 156.8716,235.2526 C154.9596,234.7866 153.2856,235.3316 153.1316,236.4706 C152.9776,237.6096 154.4026,238.9096 156.3146,239.3766 C158.2266,239.8426 159.9006,239.2976 160.0546,238.1586" id="Fill-78" fill="#FE7B5C" mask="url(#mask-6)"></path>
                <path d="M201.1488,238.1586 C200.9948,237.0196 202.4198,235.7186 204.3318,235.2526 C206.2438,234.7866 207.9188,235.3316 208.0718,236.4706 C208.2258,237.6096 206.8008,238.9096 204.8888,239.3766 C202.9778,239.8426 201.3028,239.2976 201.1488,238.1586" id="Fill-79" fill="#FE7B5C" mask="url(#mask-6)"></path>
                <path d="M147.7386,229.1654 C147.7386,229.1654 143.2716,226.5844 141.6836,230.8524 C140.0946,235.1214 144.1776,240.0434 150.0216,239.7154 L147.7386,229.1654 Z" id="Fill-80" fill="#C89D67" mask="url(#mask-6)"></path>
                <path d="M213.0472,229.1654 C213.0472,229.1654 217.5142,226.5844 219.1032,230.8524 C220.6912,235.1214 216.6082,240.0434 210.7642,239.7154 L213.0472,229.1654 Z" id="Fill-81" fill="#C89D67" mask="url(#mask-6)"></path>
                <path d="M159.267,199.8182 C159.267,199.8182 158.861,215.4482 172.203,212.9642 C184.302,210.6192 180.515,201.4792 180.515,201.4792 C180.515,201.4792 191.753,211.4472 201.963,201.7892 C212.173,192.1302 182.249,181.2902 159.267,199.8182" id="Fill-82" fill="#683C11" mask="url(#mask-6)"></path>
                <polygon id="Fill-83" fill="#058C36" mask="url(#mask-6)" points="170.5546 277.097 192.7326 277.097 192.2666 288.447 182.2936 288.447 182.2936 286.452 180.9916 286.452 180.9916 288.447 171.1896 288.447"></polygon>
                <path d="M175.3431,297.1395 C175.3431,297.1395 171.2671,297.0505 171.2671,300.5845 L180.9911,300.5845 L180.9911,297.1395 L175.3431,297.1395 Z" id="Fill-84" fill="#E4332A" mask="url(#mask-6)"></path>
                <path d="M187.9418,297.1395 C187.9418,297.1395 192.0178,297.0505 192.0178,300.5845 L182.2938,300.5845 L182.2938,297.1395 L187.9418,297.1395 Z" id="Fill-85" fill="#E4332A" mask="url(#mask-6)"></path>
                <path d="M158.3412,218.0443 C158.3412,218.0443 161.5922,211.2373 170.4782,213.9133 C166.0572,208.7853 158.3872,212.0803 158.3412,218.0443" id="Fill-86" fill="#432918" mask="url(#mask-6)"></path>
                <path d="M203.1073,217.5946 C203.1073,217.5946 199.3623,211.0456 190.6983,214.3706 C194.7283,208.9306 202.6203,211.6506 203.1073,217.5946" id="Fill-87" fill="#432918" mask="url(#mask-6)"></path>
                <path d="M180.2308,242.1405 C180.0138,242.1405 179.7968,242.1295 179.5808,242.1065 C175.9388,241.7305 173.8398,238.3335 173.7518,238.1885 C173.6528,238.0255 173.7048,237.8115 173.8688,237.7125 C174.0328,237.6125 174.2468,237.6655 174.3458,237.8285 C174.3658,237.8615 176.3608,241.0785 179.6568,241.4165 C181.9828,241.6485 184.4208,240.4295 186.8998,237.7725 C187.0318,237.6335 187.2518,237.6245 187.3918,237.7555 C187.5318,237.8865 187.5398,238.1065 187.4088,238.2455 C184.9948,240.8335 182.5828,242.1405 180.2308,242.1405" id="Fill-88" fill="#966635" mask="url(#mask-6)"></path>
                <polygon id="Fill-89" fill="#634E42" mask="url(#mask-6)" points="170.5546 277.097 192.7326 277.097 192.6616 278.823 170.6516 278.823"></polygon>
                <polygon id="Fill-90" fill="#38A8E0" mask="url(#mask-6)" points="181.299 277.097 181.986 277.097 181.986 259.895 181.299 259.895"></polygon>
                <polygon id="Fill-91" fill="#38A8E0" mask="url(#mask-6)" points="164.4183 276.4115 161.8813 272.5995 162.4603 272.2145 164.9963 276.0255"></polygon>
                <polygon id="Fill-92" fill="#38A8E0" mask="url(#mask-6)" points="202.536 263.0253 199.654 259.8463 200.257 259.4763 202.88 262.3703"></polygon>
                <path d="M183.7543,265.472 C183.7543,265.182 183.5193,264.948 183.2303,264.948 C182.9413,264.948 182.7063,265.182 182.7063,265.472 C182.7063,265.762 182.9413,265.996 183.2303,265.996 C183.5193,265.996 183.7543,265.762 183.7543,265.472" id="Fill-93" fill="#38A8E0" mask="url(#mask-6)"></path>
                <path d="M183.7543,274.8285 C183.7543,274.5385 183.5193,274.3045 183.2303,274.3045 C182.9413,274.3045 182.7063,274.5385 182.7063,274.8285 C182.7063,275.1185 182.9413,275.3525 183.2303,275.3525 C183.5193,275.3525 183.7543,275.1185 183.7543,274.8285" id="Fill-94" fill="#38A8E0" mask="url(#mask-6)"></path>
                <path d="M183.7543,270.1503 C183.7543,269.8603 183.5193,269.6263 183.2303,269.6263 C182.9413,269.6263 182.7063,269.8603 182.7063,270.1503 C182.7063,270.4403 182.9413,270.6743 183.2303,270.6743 C183.5193,270.6743 183.7543,270.4403 183.7543,270.1503" id="Fill-95" fill="#38A8E0" mask="url(#mask-6)"></path>
                <path d="M201.2142,258.8231 C201.2142,258.8231 200.0262,256.6301 200.6072,254.6251 C201.1882,252.6201 202.3502,253.9561 201.8852,256.4271 C203.5422,252.6781 204.7622,252.5321 204.9652,253.0551 C205.2602,253.8141 204.1812,255.7571 204.1812,255.7571 C204.1812,255.7571 205.2852,253.7531 206.2732,253.8111 C207.2612,253.8691 205.5472,256.6011 205.5472,256.6011 C205.5472,256.6011 206.8252,254.9451 207.4942,255.1771 C208.1622,255.4091 206.2152,257.9081 206.2152,257.9081 C206.2152,257.9081 207.1052,257.0081 207.6332,257.5021 C208.1622,257.9961 205.6402,261.0071 203.1382,261.0421" id="Fill-96" fill="#C89D67" mask="url(#mask-6)"></path>
                <path d="M163.2762,277.097 L161.0722,273.633 C158.5812,273.396 155.7482,276.116 156.2202,276.664 C156.6922,277.213 157.6742,276.414 157.6742,276.414 C157.6742,276.414 155.4672,278.687 156.1072,278.991 C156.7462,279.294 158.1962,277.786 158.1962,277.786 C158.1962,277.786 156.1962,280.316 157.1722,280.481 C158.1482,280.645 159.4632,278.773 159.4632,278.773 C159.4632,278.773 158.1792,280.587 158.3902,281.373 C158.5362,281.915 159.7652,281.904 161.8182,278.356 C161.0882,280.762 162.0982,282.216 162.8932,280.286 C163.6892,278.356 163.2762,277.097 163.2762,277.097" id="Fill-97" fill="#C89D67" mask="url(#mask-6)"></path>
                <path d="M176.1556,184.8085 C176.1556,184.8085 169.0616,182.7615 172.6346,178.4715 C176.2056,174.1815 178.7876,180.8115 178.7876,180.8115 C178.7876,180.8115 179.8846,174.6685 184.9676,177.6915 C190.0506,180.7135 182.1886,184.8085 182.1886,184.8085" id="Fill-98" fill="#683C11" mask="url(#mask-6)"></path>
                <path d="M146.2738,233.5956 C146.4298,233.1516 146.7198,233.0776 147.0038,233.1406 C146.8198,232.0936 146.7538,231.4386 146.7538,231.4386 C146.7388,231.4246 146.7248,231.4096 146.7098,231.3966 C145.2818,230.0236 142.9378,231.5556 143.5508,233.4396 C144.0248,234.8966 145.5678,235.8286 147.7068,236.3226 C147.5578,235.7666 147.4308,235.2396 147.3228,234.7466 C146.7378,234.5746 146.0488,234.2326 146.2738,233.5956" id="Fill-99" fill="#B18352" mask="url(#mask-6)"></path>
                <path d="M214.8143,233.5956 C214.6573,233.1516 214.3683,233.0776 214.0843,233.1406 C214.2673,232.0936 214.3343,231.4386 214.3343,231.4386 C214.3483,231.4246 214.3633,231.4096 214.3773,231.3966 C215.8053,230.0236 218.1493,231.5556 217.5373,233.4396 C217.0633,234.8966 215.5203,235.8286 213.3813,236.3226 C213.5303,235.7666 213.6563,235.2396 213.7653,234.7466 C214.3503,234.5746 215.0383,234.2326 214.8143,233.5956" id="Fill-100" fill="#B18352" mask="url(#mask-6)"></path>
                <polygon id="Fill-101" fill="#036633" mask="url(#mask-6)" points="170.899 289.643 181.299 289.643 181.299 287.244 170.899 287.244"></polygon>
                <polygon id="Fill-102" fill="#036633" mask="url(#mask-6)" points="181.956 289.643 192.528 289.643 192.528 287.244 181.956 287.244"></polygon>
                <path d="M182.4198,261.7015 L182.4618,261.6805 L182.3768,261.6805 L176.1318,258.6925 C175.4138,258.3485 174.5828,258.8715 174.5828,259.6685 L174.5828,261.6805 L174.5828,261.7215 L174.5828,263.7345 C174.5828,264.5315 175.4138,265.0545 176.1318,264.7105 L182.3768,261.7215 L182.4618,261.7215 L182.4198,261.7015 Z" id="Fill-103" fill="#E4332A" mask="url(#mask-6)"></path>
                <path d="M180.8656,261.7015 L180.8236,261.7215 L180.9076,261.7215 L187.1536,264.7105 C187.8716,265.0545 188.7026,264.5315 188.7026,263.7345 L188.7026,261.7215 L188.7026,261.6805 L188.7026,259.6685 C188.7026,258.8715 187.8716,258.3485 187.1536,258.6925 L180.9076,261.6805 L180.8236,261.6805 L180.8656,261.7015 Z" id="Fill-104" fill="#E4332A" mask="url(#mask-6)"></path>
                <path d="M180.5233,261.7015 C180.5233,262.3195 181.0243,262.8215 181.6433,262.8215 C182.2613,262.8215 182.7623,262.3195 182.7623,261.7015 C182.7623,261.0825 182.2613,260.5815 181.6433,260.5815 C181.0243,260.5815 180.5233,261.0825 180.5233,261.7015" id="Fill-105" fill="#BC1523" mask="url(#mask-6)"></path>
                <path d="M188.5873,297.0292 C189.0113,297.1322 189.3763,297.1012 189.6763,296.9392 C189.9603,296.7872 189.9073,296.5052 189.8313,296.3622 C189.7583,296.2232 189.5563,296.0252 189.2783,296.1722 C188.9783,296.3282 188.7463,296.6162 188.5873,297.0292 M189.0523,297.4362 C188.8203,297.4362 188.5733,297.3952 188.3103,297.3132 L188.1453,297.2602 L188.1973,297.0952 C188.3833,296.5002 188.6933,296.0862 189.1173,295.8632 C189.5543,295.6362 189.9603,295.8622 190.1393,296.1992 C190.3203,296.5422 190.2763,297.0112 189.8403,297.2452 C189.6043,297.3722 189.3403,297.4362 189.0523,297.4362" id="Fill-106" fill="#BC1523" mask="url(#mask-6)"></path>
                <path d="M187.6664,297.1908 C187.4354,297.1908 187.2264,297.2408 187.0414,297.3398 C186.7584,297.4918 186.8104,297.7738 186.8864,297.9168 C186.9594,298.0568 187.1584,298.2548 187.4404,298.1078 C187.7394,297.9508 187.9714,297.6628 188.1304,297.2498 C187.9674,297.2108 187.8124,297.1908 187.6664,297.1908 M187.2454,298.5068 C186.9554,298.5068 186.7074,298.3228 186.5784,298.0798 C186.3974,297.7368 186.4414,297.2678 186.8774,297.0338 C187.3034,296.8038 187.8174,296.7818 188.4074,296.9658 L188.5724,297.0188 L188.5204,297.1838 C188.3344,297.7798 188.0244,298.1938 187.6014,298.4158 L187.6004,298.4158 C187.4794,298.4798 187.3584,298.5068 187.2454,298.5068" id="Fill-107" fill="#BC1523" mask="url(#mask-6)"></path>
                <path d="M174.2889,296.1718 C174.0109,296.0248 173.8099,296.2228 173.7359,296.3628 C173.6599,296.5048 173.6079,296.7868 173.8919,296.9398 C174.1909,297.1008 174.5559,297.1318 174.9799,297.0288 C174.8209,296.6168 174.5889,296.3288 174.2889,296.1718 M173.7269,297.2458 C173.2909,297.0118 173.2469,296.5418 173.4289,296.1998 C173.6079,295.8618 174.0139,295.6358 174.4509,295.8638 C174.8739,296.0858 175.1849,296.4998 175.3709,297.0948 L175.4229,297.2608 L175.2569,297.3138 C174.9949,297.3958 174.7469,297.4368 174.5149,297.4368 C174.2269,297.4368 173.9629,297.3728 173.7269,297.2458" id="Fill-108" fill="#BC1523" mask="url(#mask-6)"></path>
                <path d="M175.4374,297.2499 C175.5964,297.6629 175.8284,297.9509 176.1274,298.1079 C176.4084,298.2549 176.6074,298.0569 176.6814,297.9169 C176.7564,297.7739 176.8094,297.4919 176.5254,297.3399 C176.3404,297.2409 176.1324,297.1909 175.9014,297.1909 C175.7554,297.1909 175.6004,297.2109 175.4374,297.2499 M175.9674,298.4159 L175.9664,298.4159 C175.5424,298.1939 175.2334,297.7799 175.0474,297.1839 L174.9954,297.0189 L175.1604,296.9659 C175.7504,296.7819 176.2644,296.8039 176.6894,297.0339 C177.1254,297.2679 177.1704,297.7369 176.9894,298.0799 C176.8604,298.3229 176.6124,298.5069 176.3214,298.5069 C176.2084,298.5069 176.0884,298.4789 175.9674,298.4159" id="Fill-109" fill="#BC1523" mask="url(#mask-6)"></path>
                <path d="M170.8719,282.7723 C170.8719,282.7723 175.2089,283.1433 175.2089,278.8223 L170.6509,278.8223 L170.8719,282.7723 Z" id="Fill-110" fill="#0EB046" mask="url(#mask-6)"></path>
                <path d="M192.4813,282.7723 C192.4813,282.7723 188.1453,283.1433 188.1453,278.8223 L192.6613,278.8223 L192.4813,282.7723 Z" id="Fill-111" fill="#0EB046" mask="url(#mask-6)"></path>
                <polygon id="Fill-112" fill="#0EB046" mask="url(#mask-6)" points="180.435 286.452 182.85 286.452 182.85 278.823 180.435 278.823"></polygon>
                <polygon id="Fill-113" fill="#0EB046" mask="url(#mask-6)" points="175.209 278.823 175.759 278.823 175.759 277.097 175.209 277.097"></polygon>
                <polygon id="Fill-114" fill="#0EB046" mask="url(#mask-6)" points="187.653 278.823 188.203 278.823 188.203 277.097 187.653 277.097"></polygon>
                <path d="M209.1683,194.661 C204.5183,197.044 199.7923,196.889 195.5903,193.657 C185.7713,186.103 176.6393,185.282 167.0473,189.182 C163.3043,190.703 160.8013,189.909 159.1513,188.457 C153.6493,191.592 149.2243,195.96 146.5443,201.271 C150.7423,202.824 155.1253,202.917 159.4093,202.038 C166.4083,200.601 170.6623,196.783 177.6063,197.336 C184.5663,197.891 188.3313,203.112 196.4773,205.249 C197.7873,204.787 199.1163,204.084 200.4393,203.084 C201.8143,204.001 203.1123,205.009 204.3223,206.101 C208.3293,205.895 212.1983,204.626 215.3543,201.915 C213.5533,199.302 211.3323,196.726 209.1683,194.661" id="Fill-115" fill="#825125" mask="url(#mask-6)"></path>
                <path d="M159.266,226.3807 C159.266,224.8857 160.478,223.6737 161.973,223.6737 C163.467,223.6737 164.679,224.8857 164.679,226.3807 C164.679,227.8757 163.467,229.0877 161.973,229.0877 C160.478,229.0877 159.266,227.8757 159.266,226.3807" id="Fill-116" fill="#FFFFFF" mask="url(#mask-6)"></path>
                <path d="M191.9867,226.3807 C191.9867,224.8857 193.1977,223.6737 194.6937,223.6737 C196.1877,223.6737 197.3997,224.8857 197.3997,226.3807 C197.3997,227.8757 196.1877,229.0877 194.6937,229.0877 C193.1977,229.0877 191.9867,227.8757 191.9867,226.3807" id="Fill-117" fill="#FFFFFF" mask="url(#mask-6)"></path>
                <path d="M186.2069,267.1327 C186.2429,267.7617 186.4009,269.1087 187.1129,269.8347 C187.4279,270.1557 187.8109,270.3117 188.2829,270.3117 C188.7509,270.3117 189.1229,270.1577 189.4209,269.8407 C190.1039,269.1147 190.2019,267.7557 190.2089,267.1327 L186.2069,267.1327 Z M188.2829,271.0077 C187.6229,271.0077 187.0609,270.7757 186.6149,270.3197 C185.4669,269.1467 185.4999,266.8747 185.5019,266.7777 L185.5099,266.4377 L190.8769,266.4377 L190.8969,266.7637 C190.9029,266.8607 191.0339,269.1377 189.9289,270.3157 C189.4989,270.7747 188.9449,271.0077 188.2829,271.0077 L188.2829,271.0077 Z" id="Fill-118" fill="#38A8E0" mask="url(#mask-6)"></path>
                <path d="M206.6781,330.3285 L175.7461,320.3405 C174.0451,319.7915 172.3611,320.2455 172.0051,321.3495 C171.6481,322.4535 172.7481,323.8055 174.4491,324.3545 L205.3821,334.3425 C207.0831,334.8915 208.7661,334.4385 209.1231,333.3345 C209.4791,332.2305 208.3791,330.8775 206.6781,330.3285" id="Fill-119" fill="#515A60" mask="url(#mask-6)"></path>
                <path d="M208.6693,348.3417 L177.7373,338.3537 C176.0363,337.8047 174.3533,338.2587 173.9963,339.3627 C173.6403,340.4667 174.7403,341.8187 176.4413,342.3677 L207.3733,352.3557 C209.0743,352.9047 210.7583,352.4507 211.1143,351.3477 C211.4713,350.2437 210.3713,348.8907 208.6693,348.3417" id="Fill-120" fill="#515A60" mask="url(#mask-6)"></path>
                <path d="M210.661,366.3544 L179.729,356.3674 C178.028,355.8174 176.344,356.2714 175.988,357.3754 C175.631,358.4794 176.732,359.8314 178.433,360.3804 L209.365,370.3684 C211.066,370.9174 212.75,370.4644 213.106,369.3604 C213.463,368.2564 212.362,366.9034 210.661,366.3544" id="Fill-121" fill="#515A60" mask="url(#mask-6)"></path>
                <path d="M173.9423,319.7631 L202.9913,312.7211 C204.5893,312.3341 206.3923,312.9591 206.9973,314.1111 C207.6033,315.2621 206.7923,316.5201 205.1943,316.9081 L176.1453,323.9491 C174.5473,324.3361 172.7443,323.7111 172.1383,322.5601 C171.5323,321.4091 172.3443,320.1501 173.9423,319.7631" id="Fill-122" fill="#41387A" mask="url(#mask-6)"></path>
                <path d="M175.9335,337.7758 L204.9825,330.7348 C206.5805,330.3478 208.3835,330.9728 208.9895,332.1238 C209.5955,333.2748 208.7835,334.5338 207.1855,334.9208 L178.1365,341.9618 C176.5385,342.3488 174.7355,341.7238 174.1305,340.5728 C173.5245,339.4218 174.3355,338.1628 175.9335,337.7758" id="Fill-123" fill="#41387A" mask="url(#mask-6)"></path>
                <path d="M177.9252,355.7889 L206.9742,348.7469 C208.5722,348.3599 210.3752,348.9849 210.9812,350.1369 C211.5872,351.2879 210.7752,352.5459 209.1772,352.9339 L180.1282,359.9749 C178.5302,360.3619 176.7272,359.7369 176.1222,358.5859 C175.5162,357.4349 176.3272,356.1759 177.9252,355.7889" id="Fill-124" fill="#41387A" mask="url(#mask-6)"></path>
                <path d="M219.3158,252.3622 C217.8658,253.1982 217.3638,255.0682 218.1998,256.5182 L230.3578,277.6072 C231.1938,279.0572 233.0648,279.5592 234.5138,278.7232 C235.9638,277.8872 236.4658,276.0172 235.6298,274.5672 L223.4718,253.4782 C222.6358,252.0292 220.7658,251.5262 219.3158,252.3622" id="Fill-125" fill="#ED1C24" mask="url(#mask-6)"></path>
                <path d="M264.7968,268.3392 C256.7718,261.6212 246.5188,258.1532 236.0528,258.1532 L233.2288,258.1532 C231.8128,258.1532 227.5248,266.2732 226.5478,267.4192 C219.6508,275.5142 210.7888,280.5522 200.0878,281.2192 C184.7388,282.1772 170.0468,273.4142 163.1188,259.7482 L121.2848,259.7482 L121.2848,276.2082 C118.7288,277.3742 116.9378,279.9502 116.9378,282.9302 L116.9378,308.1422 C116.9378,312.2072 120.2638,315.5322 124.3278,315.5322 C125.5768,315.5322 126.7548,315.2152 127.7888,314.6632 L281.2518,314.6632 C281.2518,314.6632 285.7648,285.8902 264.7968,268.3392" id="Fill-126" fill="#ED1C24" mask="url(#mask-6)"></path>
                <path d="M206.7572,299.014 L155.7872,299.014 C154.0252,299.014 152.5832,297.572 152.5832,295.809 L152.5832,293.525 C152.5832,291.763 154.0252,290.32 155.7872,290.32 L206.7572,290.32 C208.5202,290.32 209.9622,291.763 209.9622,293.525 L209.9622,295.809 C209.9622,297.572 208.5202,299.014 206.7572,299.014" id="Fill-127" fill="#F8B033" mask="url(#mask-6)"></path>
                <path d="M131.8754,269.455 L120.0204,269.455 C116.8904,269.455 114.3304,272.016 114.3304,275.145 L114.3304,279.413 C114.3304,282.543 116.8904,285.104 120.0204,285.104 L131.8754,285.104 C135.0054,285.104 137.5654,282.543 137.5654,279.413 L137.5654,275.145 C137.5654,272.016 135.0054,269.455 131.8754,269.455" id="Fill-128" fill="#F8B033" mask="url(#mask-6)"></path>
                <path d="M123.8929,316.8363 C123.8929,304.5923 133.8189,294.6673 146.0619,294.6673 C158.3059,294.6673 168.2309,304.5923 168.2309,316.8363 C168.2309,329.0803 158.3059,339.0053 146.0619,339.0053 C133.8189,339.0053 123.8929,329.0803 123.8929,316.8363" id="Fill-129" fill="#515A60" mask="url(#mask-6)"></path>
                <path d="M128.2543,316.8363 C128.2543,307.0013 136.2273,299.0283 146.0623,299.0283 C155.8973,299.0283 163.8703,307.0013 163.8703,316.8363 C163.8703,326.6713 155.8973,334.6443 146.0623,334.6443 C136.2273,334.6443 128.2543,326.6713 128.2543,316.8363" id="Fill-130" fill="#FFFFFF" mask="url(#mask-6)"></path>
                <path d="M132.6151,316.8363 C132.6151,309.4103 138.6361,303.3893 146.0621,303.3893 C153.4891,303.3893 159.5091,309.4103 159.5091,316.8363 C159.5091,324.2633 153.4891,330.2833 146.0621,330.2833 C138.6361,330.2833 132.6151,324.2633 132.6151,316.8363" id="Fill-131" fill="#A3B6B6" mask="url(#mask-6)"></path>
                <path d="M217.7865,316.8363 C217.7865,304.5923 227.7115,294.6673 239.9555,294.6673 C252.1995,294.6673 262.1245,304.5923 262.1245,316.8363 C262.1245,329.0803 252.1995,339.0053 239.9555,339.0053 C227.7115,339.0053 217.7865,329.0803 217.7865,316.8363" id="Fill-132" fill="#515A60" mask="url(#mask-6)"></path>
                <path d="M222.1473,316.8363 C222.1473,307.0013 230.1203,299.0283 239.9553,299.0283 C249.7913,299.0283 257.7633,307.0013 257.7633,316.8363 C257.7633,326.6713 249.7913,334.6443 239.9553,334.6443 C230.1203,334.6443 222.1473,326.6713 222.1473,316.8363" id="Fill-133" fill="#FFFFFF" mask="url(#mask-6)"></path>
                <path d="M226.5087,316.8363 C226.5087,309.4103 232.5297,303.3893 239.9557,303.3893 C247.3827,303.3893 253.4027,309.4103 253.4027,316.8363 C253.4027,324.2633 247.3827,330.2833 239.9557,330.2833 C232.5297,330.2833 226.5087,324.2633 226.5087,316.8363" id="Fill-134" fill="#A3B6B6" mask="url(#mask-6)"></path>
                <path d="M222.9862,246.8055 L207.9542,258.6325 C206.6392,259.6665 206.4092,261.5895 207.4442,262.9055 C208.4792,264.2205 210.4022,264.4495 211.7172,263.4145 L226.7492,251.5885 C228.0642,250.5535 228.2942,248.6305 227.2592,247.3155 C226.2242,245.9995 224.3012,245.7705 222.9862,246.8055" id="Fill-135" fill="#41387A" mask="url(#mask-6)"></path>
            </g>
            <g id="Group-155" transform="translate(159.000000, 153.535000)">
                <g id="Group-139">
                    <mask id="mask-8" fill="white">
                        <use xlink:href="#path-7"></use>
                    </mask>
                    <g id="Clip-138"></g>
                    <path d="M0.4462,38.4852 C0.4462,38.4852 16.6302,-1.6938 19.2972,0.2402 C21.9652,2.1742 38.5992,38.4852 38.5992,38.4852 L0.4462,38.4852 Z" id="Fill-137" fill="#8169AD" mask="url(#mask-8)"></path>
                </g>
                <g id="Group-142">
                    <mask id="mask-10" fill="white">
                        <use xlink:href="#path-9"></use>
                    </mask>
                    <g id="Clip-141"></g>
                    <path d="M7.6937,13.8788 L9.4577,15.9388 C9.4897,15.9768 9.5397,15.9968 9.5897,15.9918 L12.2867,15.7068 C12.4137,15.6928 12.5007,15.8308 12.4337,15.9398 L11.0197,18.2538 C10.9937,18.2968 10.9897,18.3498 11.0107,18.3958 L12.1147,20.8728 C12.1667,20.9888 12.0627,21.1138 11.9387,21.0848 L9.3017,20.4548 C9.2527,20.4428 9.2007,20.4568 9.1627,20.4898 L7.1487,22.3058 C7.0547,22.3908 6.9027,22.3308 6.8927,22.2038 L6.6767,19.5008 C6.6727,19.4508 6.6447,19.4048 6.6007,19.3798 L4.2517,18.0248 C4.1407,17.9618 4.1517,17.7988 4.2687,17.7508 L6.7737,16.7098 C6.8197,16.6908 6.8537,16.6498 6.8647,16.5998 L7.4267,13.9468 C7.4527,13.8228 7.6107,13.7818 7.6937,13.8788" id="Fill-140" fill="#E28AD9" mask="url(#mask-10)"></path>
                </g>
                <g id="Group-145">
                    <mask id="mask-12" fill="white">
                        <use xlink:href="#path-11"></use>
                    </mask>
                    <g id="Clip-144"></g>
                    <path d="M22.0507,16.4462 L22.8517,19.0362 C22.8667,19.0852 22.9047,19.1232 22.9527,19.1382 L25.5417,19.9462 C25.6627,19.9842 25.6887,20.1452 25.5837,20.2182 L23.3677,21.7812 C23.3267,21.8102 23.3017,21.8582 23.3027,21.9082 L23.3337,24.6202 C23.3347,24.7472 23.1897,24.8212 23.0877,24.7452 L20.9167,23.1202 C20.8767,23.0902 20.8237,23.0812 20.7757,23.0972 L18.2067,23.9652 C18.0857,24.0052 17.9707,23.8902 18.0117,23.7692 L18.8857,21.2022 C18.9027,21.1542 18.8947,21.1022 18.8637,21.0612 L17.2457,18.8862 C17.1697,18.7842 17.2437,18.6392 17.3707,18.6402 L20.0827,18.6792 C20.1327,18.6792 20.1807,18.6552 20.2097,18.6142 L21.7787,16.4032 C21.8527,16.2992 22.0127,16.3242 22.0507,16.4462" id="Fill-143" fill="#E28AD9" mask="url(#mask-12)"></path>
                </g>
                <g id="Group-148">
                    <mask id="mask-14" fill="white">
                        <use xlink:href="#path-13"></use>
                    </mask>
                    <g id="Clip-147"></g>
                    <path d="M21.8241,2.891 L22.8171,5.414 C22.8361,5.462 22.8761,5.496 22.9261,5.508 L25.5671,6.12 C25.6911,6.149 25.7291,6.308 25.6301,6.389 L23.5371,8.113 C23.4981,8.145 23.4781,8.194 23.4821,8.245 L23.7161,10.946 C23.7271,11.073 23.5881,11.158 23.4811,11.089 L21.1941,9.631 C21.1511,9.604 21.0981,9.6 21.0521,9.62 L18.5541,10.677 C18.4371,10.727 18.3141,10.62 18.3461,10.497 L19.0251,7.872 C19.0381,7.823 19.0261,7.771 18.9921,7.733 L17.2151,5.684 C17.1321,5.588 17.1951,5.438 17.3221,5.431 L20.0291,5.266 C20.0791,5.263 20.1251,5.235 20.1511,5.191 L21.5501,2.869 C21.6151,2.759 21.7781,2.773 21.8241,2.891" id="Fill-146" fill="#E28AD9" mask="url(#mask-14)"></path>
                </g>
                <g id="Group-151">
                    <mask id="mask-16" fill="white">
                        <use xlink:href="#path-15"></use>
                    </mask>
                    <g id="Clip-150"></g>
                    <path d="M12.3763,28.16 L13.8263,30.452 C13.8533,30.494 13.8993,30.521 13.9503,30.523 L16.6593,30.628 C16.7863,30.633 16.8533,30.782 16.7723,30.88 L15.0403,32.967 C15.0073,33.006 14.9963,33.058 15.0103,33.107 L15.7473,35.716 C15.7823,35.839 15.6613,35.948 15.5433,35.901 L13.0233,34.899 C12.9763,34.88 12.9233,34.886 12.8813,34.913 L10.6263,36.421 C10.5213,36.492 10.3803,36.41 10.3883,36.284 L10.5633,33.577 C10.5663,33.527 10.5443,33.478 10.5043,33.447 L8.3743,31.769 C8.2743,31.69 8.3083,31.531 8.4313,31.499 L11.0593,30.829 C11.1073,30.817 11.1473,30.781 11.1653,30.734 L12.1023,28.189 C12.1463,28.07 12.3083,28.053 12.3763,28.16" id="Fill-149" fill="#E28AD9" mask="url(#mask-16)"></path>
                </g>
                <g id="Group-154">
                    <mask id="mask-18" fill="white">
                        <use xlink:href="#path-17"></use>
                    </mask>
                    <g id="Clip-153"></g>
                    <path d="M31.8387,26.2762 L33.2877,28.5682 C33.3147,28.6102 33.3607,28.6372 33.4117,28.6392 L36.1217,28.7442 C36.2487,28.7492 36.3147,28.8982 36.2337,28.9962 L34.5017,31.0832 C34.4697,31.1222 34.4587,31.1742 34.4727,31.2232 L35.2097,33.8322 C35.2437,33.9552 35.1237,34.0642 35.0047,34.0172 L32.4847,33.0142 C32.4387,32.9962 32.3847,33.0022 32.3427,33.0292 L30.0887,34.5372 C29.9837,34.6082 29.8417,34.5262 29.8507,34.4002 L30.0247,31.6932 C30.0277,31.6432 30.0057,31.5942 29.9657,31.5632 L27.8367,29.8852 C27.7357,29.8062 27.7697,29.6472 27.8937,29.6152 L30.5207,28.9452 C30.5697,28.9332 30.6097,28.8972 30.6267,28.8492 L31.5647,26.3052 C31.6087,26.1852 31.7707,26.1682 31.8387,26.2762" id="Fill-152" fill="#E28AD9" mask="url(#mask-18)"></path>
                </g>
            </g>
            <g id="Group-201" transform="translate(0.000000, 0.535000)">
                <g id="Group-158">
                    <mask id="mask-20" fill="white">
                        <use xlink:href="#path-19"></use>
                    </mask>
                    <g id="Clip-157"></g>
                    <path d="M239.2474,72.0853 C239.4624,71.2823 239.6164,70.4783 239.7244,69.6763 C239.8124,69.0173 239.4464,68.3843 238.8314,68.1303 C238.0824,67.8213 237.3104,67.5543 236.5074,67.3393 C228.2494,65.1263 219.8284,68.4353 215.1114,74.9843 C214.3024,66.9553 208.6644,59.8783 200.4054,57.6653 C199.6024,57.4513 198.8004,57.2963 197.9974,57.1893 C197.3384,57.1013 196.7044,57.4663 196.4514,58.0803 C196.1434,58.8303 195.8754,59.6033 195.6604,60.4053 C193.3294,69.1033 197.1074,77.9943 204.3634,82.5343 C201.2654,83.8893 198.7844,86.5823 197.8414,90.1043 C197.7074,90.6023 197.6154,91.1013 197.5514,91.6003 C197.5134,91.9103 197.6884,92.2173 197.9774,92.3393 C198.4404,92.5343 198.9194,92.7053 199.4174,92.8383 C203.8364,94.0223 208.3334,92.4593 211.1284,89.2113 C211.9254,93.4213 215.0384,97.0233 219.4564,98.2073 C219.9544,98.3413 220.4544,98.4333 220.9524,98.4963 C221.2634,98.5343 221.5694,98.3573 221.6914,98.0683 C221.8864,97.6043 222.0554,97.1263 222.1884,96.6273 C223.1224,93.1433 222.3514,89.6063 220.3914,86.8943 C229.0444,86.6973 236.8934,80.8683 239.2474,72.0853" id="Fill-156" fill="#DF51CD" mask="url(#mask-20)"></path>
                </g>
                <g id="Group-161">
                    <mask id="mask-22" fill="white">
                        <use xlink:href="#path-21"></use>
                    </mask>
                    <g id="Clip-160"></g>
                    <path d="M200.3304,92.9911 C200.0924,92.9911 199.8514,92.9571 199.6104,92.8851 C198.2884,92.4891 197.5384,91.0951 197.9344,89.7721 C198.9064,86.5341 201.2494,83.8961 204.3634,82.5341 C196.8684,77.8441 193.3704,68.9511 195.6604,60.4051 C195.7904,59.9201 195.9404,59.4381 196.1174,58.9471 C196.5844,57.6471 198.0184,56.9731 199.3154,57.4401 C200.6144,57.9071 201.2894,59.3391 200.8224,60.6381 C200.6944,60.9951 200.5854,61.3461 200.4904,61.7001 C198.7724,68.1091 201.3944,74.7791 207.0164,78.2971 L211.0314,80.8091 C211.8174,81.3011 212.2674,82.1871 212.1984,83.1121 C212.1304,84.0361 211.5564,84.8471 210.7064,85.2191 L206.3654,87.1161 C204.6004,87.8881 203.2724,89.3801 202.7244,91.2091 C202.3984,92.2921 201.4054,92.9911 200.3304,92.9911" id="Fill-159" fill="#CC50C3" mask="url(#mask-22)"></path>
                </g>
                <g id="Group-164">
                    <mask id="mask-24" fill="white">
                        <use xlink:href="#path-23"></use>
                    </mask>
                    <g id="Clip-163"></g>
                    <path d="M49.3925,207.2694 C49.3925,207.2694 42.9725,208.8024 49.1045,212.0874 C55.2375,215.3734 49.3925,207.2694 49.3925,207.2694" id="Fill-162" fill="#FF921F" mask="url(#mask-24)"></path>
                </g>
                <g id="Group-167">
                    <mask id="mask-26" fill="white">
                        <use xlink:href="#path-25"></use>
                    </mask>
                    <g id="Clip-166"></g>
                    <path d="M89.8988,200.1171 C89.8988,200.1171 92.7188,180.4761 73.0058,180.4761 C53.2938,180.4761 57.4408,200.5191 57.4408,200.5191 C57.4408,200.5191 47.1328,201.6741 48.2288,213.5541 L105.5038,213.5541 C105.5038,213.5541 106.3808,198.2281 89.8988,200.1171" id="Fill-165" fill="#41387A" mask="url(#mask-26)"></path>
                </g>
                <g id="Group-170">
                    <mask id="mask-28" fill="white">
                        <use xlink:href="#path-27"></use>
                    </mask>
                    <g id="Clip-169"></g>
                    <path d="M70.9857,213.5116 C70.9857,218.0476 67.3087,221.7246 62.7727,221.7246 C58.2357,221.7246 54.5587,218.0476 54.5587,213.5116 C54.5587,208.9756 58.2357,205.2976 62.7727,205.2976 C67.3087,205.2976 70.9857,208.9756 70.9857,213.5116" id="Fill-168" fill="#515A60" mask="url(#mask-28)"></path>
                </g>
                <g id="Group-173">
                    <mask id="mask-30" fill="white">
                        <use xlink:href="#path-29"></use>
                    </mask>
                    <g id="Clip-172"></g>
                    <path d="M67.0433,213.5116 C67.0433,215.8706 65.1303,217.7826 62.7723,217.7826 C60.4133,217.7826 58.5013,215.8706 58.5013,213.5116 C58.5013,211.1526 60.4133,209.2406 62.7723,209.2406 C65.1303,209.2406 67.0433,211.1526 67.0433,213.5116" id="Fill-171" fill="#A3B6B6" mask="url(#mask-30)"></path>
                </g>
                <g id="Group-176">
                    <mask id="mask-32" fill="white">
                        <use xlink:href="#path-31"></use>
                    </mask>
                    <g id="Clip-175"></g>
                    <path d="M94.641,213.5116 C94.641,218.0476 90.964,221.7246 86.427,221.7246 C81.891,221.7246 78.214,218.0476 78.214,213.5116 C78.214,208.9756 81.891,205.2976 86.427,205.2976 C90.964,205.2976 94.641,208.9756 94.641,213.5116" id="Fill-174" fill="#515A60" mask="url(#mask-32)"></path>
                </g>
                <g id="Group-179">
                    <mask id="mask-34" fill="white">
                        <use xlink:href="#path-33"></use>
                    </mask>
                    <g id="Clip-178"></g>
                    <path d="M90.6981,213.5116 C90.6981,215.8706 88.7861,217.7826 86.4271,217.7826 C84.0681,217.7826 82.1561,215.8706 82.1561,213.5116 C82.1561,211.1526 84.0681,209.2406 86.4271,209.2406 C88.7861,209.2406 90.6981,211.1526 90.6981,213.5116" id="Fill-177" fill="#A3B6B6" mask="url(#mask-34)"></path>
                </g>
                <g id="Group-182">
                    <mask id="mask-36" fill="white">
                        <use xlink:href="#path-35"></use>
                    </mask>
                    <g id="Clip-181"></g>
                    <path d="M61.1508,200.3534 C61.1508,200.3534 57.0628,186.2424 71.5838,183.6144 L71.5838,200.3534 L61.1508,200.3534 Z" id="Fill-180" fill="#C5FCFA" mask="url(#mask-36)"></path>
                </g>
                <g id="Group-185">
                    <mask id="mask-38" fill="white">
                        <use xlink:href="#path-37"></use>
                    </mask>
                    <g id="Clip-184"></g>
                    <path d="M69.5634,184.1459 C69.9464,185.3669 70.1544,186.6599 70.1544,187.9949 C70.1544,193.7379 66.3174,198.7169 61.1064,200.4779 C61.1334,200.6199 61.1504,200.6979 61.1504,200.6979 L71.6644,200.6979 L71.6644,183.6139 C70.9134,183.7569 70.2164,183.9369 69.5634,184.1459" id="Fill-183" fill="#C5FCFA" mask="url(#mask-38)"></path>
                </g>
                <g id="Group-188">
                    <mask id="mask-40" fill="white">
                        <use xlink:href="#path-39"></use>
                    </mask>
                    <g id="Clip-187"></g>
                    <path d="M60.9784,198.7269 C60.9784,192.3669 65.6294,186.9299 71.6644,185.6819 L71.6644,183.6139 C59.0814,186.0109 60.7044,198.2419 61.0874,200.3779 C61.0194,199.8359 60.9784,199.2859 60.9784,198.7269" id="Fill-186" fill="#C5FCFA" mask="url(#mask-40)"></path>
                </g>
                <g id="Group-191">
                    <mask id="mask-42" fill="white">
                        <use xlink:href="#path-41"></use>
                    </mask>
                    <g id="Clip-190"></g>
                    <path d="M86.2303,200.3534 C86.2303,200.3534 88.7443,186.2424 75.5433,183.6144 L75.5433,200.3534 L86.2303,200.3534 Z" id="Fill-189" fill="#C5FCFA" mask="url(#mask-42)"></path>
                </g>
                <g id="Group-194">
                    <mask id="mask-44" fill="white">
                        <use xlink:href="#path-43"></use>
                    </mask>
                    <g id="Clip-193"></g>
                    <path d="M77.8182,184.1459 C77.4352,185.3669 77.2272,186.6599 77.2272,187.9949 C77.2272,193.7379 81.0642,198.7169 86.2752,200.4779 C86.2482,200.6199 86.2302,200.6979 86.2302,200.6979 L75.7172,200.6979 L75.7172,183.6139 C76.4682,183.7569 77.1652,183.9369 77.8182,184.1459" id="Fill-192" fill="#C5FCFA" mask="url(#mask-44)"></path>
                </g>
                <g id="Group-197">
                    <mask id="mask-46" fill="white">
                        <use xlink:href="#path-45"></use>
                    </mask>
                    <g id="Clip-196"></g>
                    <path d="M86.4027,198.7269 C86.4027,192.3669 81.7517,186.9299 75.7167,185.6819 L75.7167,183.6139 C88.3007,186.0109 86.6767,198.2419 86.2937,200.3779 C86.3627,199.8359 86.4027,199.2859 86.4027,198.7269" id="Fill-195" fill="#C5FCFA" mask="url(#mask-46)"></path>
                </g>
                <g id="Group-200">
                    <mask id="mask-48" fill="white">
                        <use xlink:href="#path-47"></use>
                    </mask>
                    <g id="Clip-199"></g>
                    <path d="M80.8236,203.6537 C80.8236,204.0177 80.5286,204.3137 80.1636,204.3137 L76.2036,204.3137 C75.8396,204.3137 75.5436,204.0177 75.5436,203.6537 C75.5436,203.2887 75.8396,202.9937 76.2036,202.9937 L80.1636,202.9937 C80.5286,202.9937 80.8236,203.2887 80.8236,203.6537" id="Fill-198" fill="#000000" mask="url(#mask-48)"></path>
                </g>
            </g>
        </g>
    </g>
</svg>