<?xml version="1.0" encoding="UTF-8"?>
<svg width="44px" height="45px" viewBox="0 0 44 45" version="1.1" xmlns="http://www.w3.org/2000/svg" xmlns:xlink="http://www.w3.org/1999/xlink">
    <!-- Generator: Sketch 55.2 (78181) - https://sketchapp.com -->
    <title>Group 4division</title>
    <desc>Created with Sketch.</desc>
    <g id="Page-1" stroke="none" stroke-width="1" fill="none" fill-rule="evenodd">
        <g id="Artboard" transform="translate(-65.000000, -297.000000)" fill="#FFFFFF">
            <g id="Group-4" transform="translate(65.060700, 297.936000)">
                <path d="M21.692,40.024 C11.583,40.024 3.36,31.801 3.36,21.692 C3.36,11.584 11.583,3.36 21.692,3.36 C31.8,3.36 40.024,11.584 40.024,21.692 C40.024,31.801 31.8,40.024 21.692,40.024 M21.692,0 C9.732,0 0,9.73 0,21.692 C0,33.654 9.732,43.385 21.692,43.385 C33.654,43.385 43.384,33.654 43.384,21.692 C43.384,9.73 33.652,0 21.692,0" id="Fill-826"></path>
                <path d="M30.0934,19.8609 L13.2904,19.8609 C12.3634,19.8609 11.6104,20.6129 11.6104,21.5409 C11.6104,22.4689 12.3634,23.2209 13.2904,23.2209 L30.0934,23.2209 C31.0214,23.2209 31.7734,22.4689 31.7734,21.5409 C31.7734,20.6129 31.0214,19.8609 30.0934,19.8609" id="Fill-828"></path>
                <path d="M23.4806,13.3321 C23.4806,14.3201 22.6796,15.1211 21.6916,15.1211 C20.7046,15.1211 19.9036,14.3201 19.9036,13.3321 C19.9036,12.3441 20.7046,11.5431 21.6916,11.5431 C22.6796,11.5431 23.4806,12.3441 23.4806,13.3321" id="Fill-830"></path>
                <path d="M23.4806,29.8765 C23.4806,30.8645 22.6796,31.6655 21.6916,31.6655 C20.7046,31.6655 19.9036,30.8645 19.9036,29.8765 C19.9036,28.8885 20.7046,28.0875 21.6916,28.0875 C22.6796,28.0875 23.4806,28.8885 23.4806,29.8765" id="Fill-832"></path>
            </g>
        </g>
    </g>
</svg>